<?xml version="1.0" standalone="no"?>
<!DOCTYPE svg PUBLIC "-//W3C//DTD SVG 1.1//EN" "http://www.w3.org/Graphics/SVG/1.1/DTD/svg11.dtd" >
<svg xmlns="http://www.w3.org/2000/svg" xmlns:xlink="http://www.w3.org/1999/xlink" version="1.1">
<metadata>
Created by FontForge 20150318 at Wed Jul  1 21:33:21 2015
 By uniteet7
Copyright (c) 2011 Linotype Corp., www.linotype.com. All rights reserved. This font software may not be reproduced, modified, disclosed or transferred without the express written approval of Linotype Corp. Shilia W23 is a trademark of Linotype Corp. and may be registered in certain jurisdictions in the name of Linotype Corp. or its licensee Linotype GmbH. This typeface is original artwork of Mamoun Sakkal. The design may be protected in certain jurisdictions.
</metadata>
<defs>
<font id="ShiliaMedium" horiz-adv-x="1075" >
  <font-face 
    font-family="ShiliaMedium"
    font-weight="500"
    font-stretch="normal"
    units-per-em="1000"
    panose-1="2 11 6 3 3 2 2 2 2 3"
    ascent="723"
    descent="-277"
    x-height="504"
    cap-height="723"
    bbox="-189 -516 2187 1019"
    underline-thickness="50"
    underline-position="-50"
    unicode-range="U+0020-FEFC"
  />
<missing-glyph horiz-adv-x="512" 
d="M222 117v67h56v-67h-56zM225 234l-2 17q0 55 13 81t46 59q32 31 41 47.5t9 35.5q0 36 -22.5 60.5t-53.5 24.5t-53.5 -22t-28.5 -73l-50 8q7 71 44 104t91 33q53 0 88.5 -36t35.5 -95q0 -32 -12.5 -58.5t-50.5 -61.5q-37 -33 -43 -52t-6 -72h-46zM462 50v617h-412v-617
h412zM512 718v-718h-512v718h512z" />
    <glyph glyph-name="uniFEF5" unicode="&#xfedf;&#xfe82;" horiz-adv-x="515" arabic-form="isolated" 
d="M489 215q0 -46 -14 -86t-40 -69t-63.5 -44.5t-83.5 -15.5h-212v111h212q42 0 67 29.5t25 74.5v508h109v-508zM135 186v436h109v-436h-109zM295 677h-93q-28 0 -45 5t-26 23l-50 -33v51l66 40q10 -23 21 -31t38 -8h89v-47z" />
    <glyph glyph-name="uniFEF6" unicode="&#xfee0;&#xfe82;" horiz-adv-x="544" arabic-form="final" 
d="M544 0q-31 0 -63 20.5t-45 63.5h-2q-21 -46 -57 -65t-90 -19h-211v111h211q43 0 68 29.5t25 74.5v508h109v-533q0 -38 14 -58.5t41 -20.5v-111zM135 186v436h109v-436h-109zM295 677h-93q-28 0 -45 5t-26 23l-50 -33v51l66 40q10 -23 21 -31t38 -8h89v-47z" />
    <glyph glyph-name="uniFEF7" unicode="&#xfedf;&#xfe84;" horiz-adv-x="515" arabic-form="isolated" 
d="M489 215q0 -46 -14 -86t-40 -69t-63.5 -44.5t-83.5 -15.5h-212v111h212q42 0 67 29.5t25 74.5v508h109v-508zM135 186v436h109v-436h-109zM112 675v72q0 47 29 77t75 30h44v-49h-44q-24 0 -40.5 -16t-16.5 -42v-22h101v-50h-148z" />
    <glyph glyph-name="uniFEF8" unicode="&#xfee0;&#xfe84;" horiz-adv-x="544" arabic-form="final" 
d="M544 0q-31 0 -63 20.5t-45 63.5h-2q-21 -46 -57 -65t-90 -19h-211v111h211q43 0 68 29.5t25 74.5v508h109v-533q0 -38 14 -58.5t41 -20.5v-111zM135 186v436h109v-436h-109zM112 675v72q0 47 29 77t75 30h44v-49h-44q-24 0 -40.5 -16t-16.5 -42v-22h101v-50h-148z" />
    <glyph glyph-name="uniFEF9" unicode="&#xfedf;&#xfe88;" horiz-adv-x="515" arabic-form="isolated" 
d="M489 215q0 -46 -14 -86t-40 -69t-63.5 -44.5t-83.5 -15.5h-212v111h212q42 0 67 29.5t25 74.5v508h109v-508zM135 186v537h109v-537h-109zM113 -246v72q0 45 29 76t75 31h44v-50h-44q-24 0 -40.5 -15.5t-16.5 -41.5v-24h101v-48h-148z" />
    <glyph glyph-name="uniFEFA" unicode="&#xfee0;&#xfe88;" horiz-adv-x="544" arabic-form="final" 
d="M544 0q-31 0 -63 20.5t-45 63.5h-2q-21 -46 -57 -65t-90 -19h-211v111h211q43 0 68 29.5t25 74.5v508h109v-533q0 -38 14 -58.5t41 -20.5v-111zM135 186v537h109v-537h-109zM113 -246v72q0 45 29 76t75 31h44v-50h-44q-24 0 -40.5 -15.5t-16.5 -41.5v-24h101v-48h-148z
" />
    <glyph glyph-name="uniFEFB" unicode="&#xfedf;&#xfe8e;" horiz-adv-x="515" arabic-form="isolated" 
d="M489 215q0 -46 -14 -86t-40 -69t-63.5 -44.5t-83.5 -15.5h-212v111h212q42 0 67 29.5t25 74.5v508h109v-508zM135 186v537h109v-537h-109z" />
    <glyph glyph-name="uniFEFC" unicode="&#xfee0;&#xfe8e;" horiz-adv-x="544" arabic-form="final" 
d="M544 0q-31 0 -63 20.5t-45 63.5h-2q-21 -46 -57 -65t-90 -19h-211v111h211q43 0 68 29.5t25 74.5v508h109v-533q0 -38 14 -58.5t41 -20.5v-111zM135 186v537h109v-537h-109z" />
    <glyph glyph-name="uniFEDF_uniFB51.rlig" unicode="&#xfedf;&#xfb51;" horiz-adv-x="515" 
d="M489 215q0 -46 -14 -86t-40 -69t-63.5 -44.5t-83.5 -15.5h-212v111h212q42 0 67 29.5t25 74.5v508h109v-508zM135 186v436h109v-436h-109zM155 729v71h33v-12q0 -8 -2 -17h1l5 7q13 19 25 26.5t26 7.5q25 0 39 -16t14 -51v-50h-145q-17 0 -22.5 2t-13.5 12l-37 -19v38
l45 25h2q3 -12 9.5 -18t16.5 -6h4zM263 742q0 12 -3.5 22.5t-17.5 10.5q-8 0 -15 -3.5t-18 -14.5l-22 -28h76v13z" />
    <glyph glyph-name="uniFEE0_uniFB51.rlig" unicode="&#xfee0;&#xfb51;" horiz-adv-x="544" 
d="M544 0q-31 0 -63 20.5t-45 63.5h-2q-21 -46 -57 -65t-90 -19h-211v111h211q43 0 68 29.5t25 74.5v508h109v-533q0 -38 14 -58.5t41 -20.5v-111zM135 186v436h109v-436h-109zM155 729v71h33v-12q0 -8 -2 -17h1l5 7q13 19 25 26.5t26 7.5q25 0 39 -16t14 -51v-50h-145
q-17 0 -22.5 2t-13.5 12l-37 -19v38l45 25h2q3 -12 9.5 -18t16.5 -6h4zM263 742q0 12 -3.5 22.5t-17.5 10.5q-8 0 -15 -3.5t-18 -14.5l-22 -28h76v13z" />
    <glyph glyph-name="uniFE8C_uniFEAE.liga" unicode="&#xfe8c;&#xfeae;" horiz-adv-x="582" 
d="M359 224q25 0 42 20.5t17 51.5v140h109v-247q0 -38 11.5 -58t43.5 -20v-111q-32 0 -59 5t-46.5 19t-32 36.5t-17.5 56.5l-3 23h-2q-12 -18 -27.5 -25.5t-31.5 -7.5t-33 8t-25 25h-2v-158q0 -62 -19 -111.5t-57 -84t-95 -52.5t-132 -18v95q50 0 86 12.5t60 35t36 54.5
t12 69v331h107v-27q0 -11 4.5 -22t12 -20.5t18.5 -14.5t23 -5zM399 533v72q0 47 29 77t75 30h44v-49h-44q-24 0 -40.5 -16t-16.5 -42v-22h101v-50h-148z" />
    <glyph glyph-name="uniFE92_uniFEAE.liga" unicode="&#xfe92;&#xfeae;" horiz-adv-x="582" 
d="M359 224q25 0 42 20.5t17 51.5v140h109v-247q0 -38 11.5 -58t43.5 -20v-111q-32 0 -59 5t-46.5 19t-32 36.5t-17.5 56.5l-3 23h-2q-12 -18 -27.5 -25.5t-31.5 -7.5t-33 8t-25 25h-2v-158q0 -62 -19 -111.5t-57 -84t-95 -52.5t-132 -18v95q50 0 86 12.5t60 35t36 54.5
t12 69v331h107v-27q0 -11 4.5 -22t12 -20.5t18.5 -14.5t23 -5zM427 -149q0 52 52 52t52 -52q0 -53 -52 -53t-52 53z" />
    <glyph glyph-name="uniFE98_uniFEAE.liga" unicode="&#xfe98;&#xfeae;" horiz-adv-x="582" 
d="M359 224q25 0 42 20.5t17 51.5v140h109v-247q0 -38 11.5 -58t43.5 -20v-111q-32 0 -59 5t-46.5 19t-32 36.5t-17.5 56.5l-3 23h-2q-12 -18 -27.5 -25.5t-31.5 -7.5t-33 8t-25 25h-2v-158q0 -62 -19 -111.5t-57 -84t-95 -52.5t-132 -18v95q50 0 86 12.5t60 35t36 54.5
t12 69v331h107v-27q0 -11 4.5 -22t12 -20.5t18.5 -14.5t23 -5zM359 620q0 51 49 51q24 0 37.5 -13t13.5 -38t-13.5 -37.5t-37.5 -12.5q-23 0 -36 12t-13 38zM473 620q0 25 13.5 38t37.5 13q49 0 49 -51q0 -26 -13 -38t-36 -12q-24 0 -37.5 12.5t-13.5 37.5z" />
    <glyph glyph-name="uniFE9C_uniFEAE.liga" unicode="&#xfe9c;&#xfeae;" horiz-adv-x="582" 
d="M359 224q25 0 42 20.5t17 51.5v140h109v-247q0 -38 11.5 -58t43.5 -20v-111q-32 0 -59 5t-46.5 19t-32 36.5t-17.5 56.5l-3 23h-2q-12 -18 -27.5 -25.5t-31.5 -7.5t-33 8t-25 25h-2v-158q0 -62 -19 -111.5t-57 -84t-95 -52.5t-132 -18v95q50 0 86 12.5t60 35t36 54.5
t12 69v331h107v-27q0 -11 4.5 -22t12 -20.5t18.5 -14.5t23 -5zM356 571q0 51 51 51q24 0 37 -13t13 -38t-13 -38t-37 -13q-25 0 -38 12t-13 39zM475 571q0 25 13 38t37 13q51 0 51 -51q0 -27 -13 -39t-38 -12q-24 0 -37 13t-13 38zM415 681q0 28 13 39.5t38 11.5t38 -11.5
t13 -39.5q0 -25 -13.5 -38t-37.5 -13t-37.5 13t-13.5 38z" />
    <glyph glyph-name="uniFEE8_uniFEAE.liga" unicode="&#xfee8;&#xfeae;" horiz-adv-x="582" 
d="M359 224q25 0 42 20.5t17 51.5v140h109v-247q0 -38 11.5 -58t43.5 -20v-111q-32 0 -59 5t-46.5 19t-32 36.5t-17.5 56.5l-3 23h-2q-12 -18 -27.5 -25.5t-31.5 -7.5t-33 8t-25 25h-2v-158q0 -62 -19 -111.5t-57 -84t-95 -52.5t-132 -18v95q50 0 86 12.5t60 35t36 54.5
t12 69v331h107v-27q0 -11 4.5 -22t12 -20.5t18.5 -14.5t23 -5zM421 620q0 52 52 52t52 -52q0 -53 -52 -53t-52 53z" />
    <glyph glyph-name="uniFBE9_uniFEAE.liga" unicode="&#xfbe9;&#xfeae;" horiz-adv-x="612" 
d="M375 225q32 0 53 20t21 51v140h109v-247q0 -38 12 -58t42 -20v-111q-32 0 -58 5t-45.5 19t-33 36.5t-17.5 56.5l-4 23h-2q-13 -18 -33.5 -25.5t-43.5 -7.5q-19 0 -39 7.5t-31 25.5h-2v-158q0 -62 -19 -111.5t-57 -84t-95 -52.5t-132 -18v95q50 0 86 12.5t60 35t36 54.5
t12 69v331h107v-27q0 -11 5.5 -22t14.5 -19.5t23 -14t31 -5.5z" />
    <glyph glyph-name="uniFEF4_uniFEAE.liga" unicode="&#xfef4;&#xfeae;" horiz-adv-x="582" 
d="M359 224q25 0 42 20.5t17 51.5v140h109v-247q0 -38 11.5 -58t43.5 -20v-111q-32 0 -59 5t-46.5 19t-32 36.5t-17.5 56.5l-3 23h-2q-12 -18 -27.5 -25.5t-31.5 -7.5t-33 8t-25 25h-2v-158q0 -62 -19 -111.5t-57 -84t-95 -52.5t-132 -18v95q50 0 86 12.5t60 35t36 54.5
t12 69v331h107v-27q0 -11 4.5 -22t12 -20.5t18.5 -14.5t23 -5zM355 -202q0 51 49 51q24 0 37.5 -13t13.5 -38t-13.5 -37.5t-37.5 -12.5q-23 0 -36 12t-13 38zM469 -202q0 25 13.5 38t37.5 13q49 0 49 -51q0 -26 -13 -38t-36 -12q-24 0 -37.5 12.5t-13.5 37.5z" />
    <glyph glyph-name="uniFE8C_uniFEB0.liga" unicode="&#xfe8c;&#xfeb0;" horiz-adv-x="612" 
d="M375 225q32 0 53 20t21 51v140h109v-247q0 -38 12 -58t42 -20v-111q-32 0 -58 5t-45.5 19t-33 36.5t-17.5 56.5l-4 23h-2q-13 -18 -33.5 -25.5t-43.5 -7.5q-19 0 -39 7.5t-31 25.5h-2v-158q0 -62 -19 -111.5t-57 -84t-95 -52.5t-132 -18v95q50 0 86 12.5t60 35t36 54.5
t12 69v331h107v-27q0 -11 5.5 -22t14.5 -19.5t23 -14t31 -5.5zM194 537q0 52 52 52t52 -52q0 -53 -52 -53t-52 53zM429 533v72q0 47 29 77t75 30h44v-49h-44q-24 0 -40.5 -16t-16.5 -42v-22h101v-50h-148z" />
    <glyph glyph-name="uniFE92_uniFEB0.liga" unicode="&#xfe92;&#xfeb0;" horiz-adv-x="582" 
d="M359 224q25 0 42 20.5t17 51.5v140h109v-247q0 -38 11.5 -58t43.5 -20v-111q-32 0 -59 5t-46.5 19t-32 36.5t-17.5 56.5l-3 23h-2q-12 -18 -27.5 -25.5t-31.5 -7.5t-33 8t-25 25h-2v-158q0 -62 -19 -111.5t-57 -84t-95 -52.5t-132 -18v95q50 0 86 12.5t60 35t36 54.5
t12 69v331h107v-27q0 -11 4.5 -22t12 -20.5t18.5 -14.5t23 -5zM422 -149q0 52 52 52t52 -52q0 -53 -52 -53t-52 53zM196 537q0 52 52 52t52 -52q0 -53 -52 -53t-52 53z" />
    <glyph glyph-name="uniFE98_uniFEB0.liga" unicode="&#xfe98;&#xfeb0;" horiz-adv-x="612" 
d="M375 225q32 0 53 20t21 51v140h109v-247q0 -38 12 -58t42 -20v-111q-32 0 -58 5t-45.5 19t-33 36.5t-17.5 56.5l-4 23h-2q-13 -18 -33.5 -25.5t-43.5 -7.5q-19 0 -39 7.5t-31 25.5h-2v-158q0 -62 -19 -111.5t-57 -84t-95 -52.5t-132 -18v95q50 0 86 12.5t60 35t36 54.5
t12 69v331h107v-27q0 -11 5.5 -22t14.5 -19.5t23 -14t31 -5.5zM389 620q0 51 49 51q24 0 37.5 -13t13.5 -38t-13.5 -37.5t-37.5 -12.5q-23 0 -36 12t-13 38zM503 620q0 25 13.5 38t37.5 13q49 0 49 -51q0 -26 -13 -38t-36 -12q-24 0 -37.5 12.5t-13.5 37.5zM196 537
q0 52 52 52t52 -52q0 -53 -52 -53t-52 53z" />
    <glyph glyph-name="uniFE9C_uniFEB0.liga" unicode="&#xfe9c;&#xfeb0;" horiz-adv-x="612" 
d="M375 225q32 0 53 20t21 51v140h109v-247q0 -38 12 -58t42 -20v-111q-32 0 -58 5t-45.5 19t-33 36.5t-17.5 56.5l-4 23h-2q-13 -18 -33.5 -25.5t-43.5 -7.5q-19 0 -39 7.5t-31 25.5h-2v-158q0 -62 -19 -111.5t-57 -84t-95 -52.5t-132 -18v95q50 0 86 12.5t60 35t36 54.5
t12 69v331h107v-27q0 -11 5.5 -22t14.5 -19.5t23 -14t31 -5.5zM386 571q0 51 51 51q24 0 37 -13t13 -38t-13 -38t-37 -13q-25 0 -38 12t-13 39zM505 571q0 25 13 38t37 13q51 0 51 -51q0 -27 -13 -39t-38 -12q-24 0 -37 13t-13 38zM445 681q0 28 13 39.5t38 11.5t38 -11.5
t13 -39.5q0 -25 -13.5 -38t-37.5 -13t-37.5 13t-13.5 38zM196 537q0 52 52 52t52 -52q0 -53 -52 -53t-52 53z" />
    <glyph glyph-name="uniFEE8_uniFEB0.liga" unicode="&#xfee8;&#xfeb0;" horiz-adv-x="612" 
d="M375 225q32 0 53 20t21 51v140h109v-247q0 -38 12 -58t42 -20v-111q-32 0 -58 5t-45.5 19t-33 36.5t-17.5 56.5l-4 23h-2q-13 -18 -33.5 -25.5t-43.5 -7.5q-19 0 -39 7.5t-31 25.5h-2v-158q0 -62 -19 -111.5t-57 -84t-95 -52.5t-132 -18v95q50 0 86 12.5t60 35t36 54.5
t12 69v331h107v-27q0 -11 5.5 -22t14.5 -19.5t23 -14t31 -5.5zM196 537q0 52 52 52t52 -52q0 -53 -52 -53t-52 53zM451 620q0 52 52 52t52 -52q0 -53 -52 -53t-52 53z" />
    <glyph glyph-name="uniFBE9_uniFEB0.liga" unicode="&#xfbe9;&#xfeb0;" horiz-adv-x="582" 
d="M359 224q25 0 42 20.5t17 51.5v140h109v-247q0 -38 11.5 -58t43.5 -20v-111q-32 0 -59 5t-46.5 19t-32 36.5t-17.5 56.5l-3 23h-2q-12 -18 -27.5 -25.5t-31.5 -7.5t-33 8t-25 25h-2v-158q0 -62 -19 -111.5t-57 -84t-95 -52.5t-132 -18v95q50 0 86 12.5t60 35t36 54.5
t12 69v331h107v-27q0 -11 4.5 -22t12 -20.5t18.5 -14.5t23 -5zM196 537q0 52 52 52t52 -52q0 -53 -52 -53t-52 53z" />
    <glyph glyph-name="uniFEF4_uniFEB0.liga" unicode="&#xfef4;&#xfeb0;" horiz-adv-x="582" 
d="M359 224q25 0 42 20.5t17 51.5v140h109v-247q0 -38 11.5 -58t43.5 -20v-111q-32 0 -59 5t-46.5 19t-32 36.5t-17.5 56.5l-3 23h-2q-12 -18 -27.5 -25.5t-31.5 -7.5t-33 8t-25 25h-2v-158q0 -62 -19 -111.5t-57 -84t-95 -52.5t-132 -18v95q50 0 86 12.5t60 35t36 54.5
t12 69v331h107v-27q0 -11 4.5 -22t12 -20.5t18.5 -14.5t23 -5zM194 537q0 52 52 52t52 -52q0 -53 -52 -53t-52 53zM355 -202q0 51 49 51q24 0 37.5 -13t13.5 -38t-13.5 -37.5t-37.5 -12.5q-23 0 -36 12t-13 38zM469 -202q0 25 13.5 38t37.5 13q49 0 49 -51q0 -26 -13 -38
t-36 -12q-24 0 -37.5 12.5t-13.5 37.5z" />
    <glyph glyph-name="uniFE8C_uniFB8D.liga" unicode="&#xfe8c;&#xfb8d;" horiz-adv-x="612" 
d="M375 225q32 0 53 20t21 51v140h109v-247q0 -38 12 -58t42 -20v-111q-32 0 -58 5t-45.5 19t-33 36.5t-17.5 56.5l-4 23h-2q-13 -18 -33.5 -25.5t-43.5 -7.5q-19 0 -39 7.5t-31 25.5h-2v-158q0 -62 -19 -111.5t-57 -84t-95 -52.5t-132 -18v95q50 0 86 12.5t60 35t36 54.5
t12 69v331h107v-27q0 -11 5.5 -22t14.5 -19.5t23 -14t31 -5.5zM130 475v38h34v123h37v-54q0 -5 -1 -12t-3 -14l2 -1l9 12q12 15 26 22.5t29 7.5q20 0 37.5 -14.5t17.5 -49.5v-58h-188zM282 529q0 13 -4.5 21t-15.5 8q-10 0 -17.5 -6t-16.5 -17l-20 -22h74v16zM429 533v72
q0 47 29 77t75 30h44v-49h-44q-24 0 -40.5 -16t-16.5 -42v-22h101v-50h-148z" />
    <glyph glyph-name="uniFE92_uniFB8D.liga" unicode="&#xfe92;&#xfb8d;" horiz-adv-x="582" 
d="M359 224q25 0 42 20.5t17 51.5v140h109v-247q0 -38 11.5 -58t43.5 -20v-111q-32 0 -59 5t-46.5 19t-32 36.5t-17.5 56.5l-3 23h-2q-12 -18 -27.5 -25.5t-31.5 -7.5t-33 8t-25 25h-2v-158q0 -62 -19 -111.5t-57 -84t-95 -52.5t-132 -18v95q50 0 86 12.5t60 35t36 54.5
t12 69v331h107v-27q0 -11 4.5 -22t12 -20.5t18.5 -14.5t23 -5zM129 475v38h34v123h37v-54q0 -5 -1 -12t-3 -14l2 -1l9 12q12 15 26 22.5t29 7.5q20 0 37.5 -14.5t17.5 -49.5v-58h-188zM281 529q0 13 -4.5 21t-15.5 8q-10 0 -17.5 -6t-16.5 -17l-20 -22h74v16zM422 -149
q0 52 52 52t52 -52q0 -53 -52 -53t-52 53z" />
    <glyph glyph-name="uniFE98_uniFB8D.liga" unicode="&#xfe98;&#xfb8d;" horiz-adv-x="612" 
d="M375 225q32 0 53 20t21 51v140h109v-247q0 -38 12 -58t42 -20v-111q-32 0 -58 5t-45.5 19t-33 36.5t-17.5 56.5l-4 23h-2q-13 -18 -33.5 -25.5t-43.5 -7.5q-19 0 -39 7.5t-31 25.5h-2v-158q0 -62 -19 -111.5t-57 -84t-95 -52.5t-132 -18v95q50 0 86 12.5t60 35t36 54.5
t12 69v331h107v-27q0 -11 5.5 -22t14.5 -19.5t23 -14t31 -5.5zM389 620q0 51 49 51q24 0 37.5 -13t13.5 -38t-13.5 -37.5t-37.5 -12.5q-23 0 -36 12t-13 38zM503 620q0 25 13.5 38t37.5 13q49 0 49 -51q0 -26 -13 -38t-36 -12q-24 0 -37.5 12.5t-13.5 37.5zM129 475v38h34
v123h37v-54q0 -5 -1 -12t-3 -14l2 -1l9 12q12 15 26 22.5t29 7.5q20 0 37.5 -14.5t17.5 -49.5v-58h-188zM281 529q0 13 -4.5 21t-15.5 8q-10 0 -17.5 -6t-16.5 -17l-20 -22h74v16z" />
    <glyph glyph-name="uniFE9C_uniFB8D.liga" unicode="&#xfe9c;&#xfb8d;" horiz-adv-x="612" 
d="M375 225q32 0 53 20t21 51v140h109v-247q0 -38 12 -58t42 -20v-111q-32 0 -58 5t-45.5 19t-33 36.5t-17.5 56.5l-4 23h-2q-13 -18 -33.5 -25.5t-43.5 -7.5q-19 0 -39 7.5t-31 25.5h-2v-158q0 -62 -19 -111.5t-57 -84t-95 -52.5t-132 -18v95q50 0 86 12.5t60 35t36 54.5
t12 69v331h107v-27q0 -11 5.5 -22t14.5 -19.5t23 -14t31 -5.5zM129 475v38h34v123h37v-54q0 -5 -1 -12t-3 -14l2 -1l9 12q12 15 26 22.5t29 7.5q20 0 37.5 -14.5t17.5 -49.5v-58h-188zM281 529q0 13 -4.5 21t-15.5 8q-10 0 -17.5 -6t-16.5 -17l-20 -22h74v16zM386 571
q0 51 51 51q24 0 37 -13t13 -38t-13 -38t-37 -13q-25 0 -38 12t-13 39zM505 571q0 25 13 38t37 13q51 0 51 -51q0 -27 -13 -39t-38 -12q-24 0 -37 13t-13 38zM445 681q0 28 13 39.5t38 11.5t38 -11.5t13 -39.5q0 -25 -13.5 -38t-37.5 -13t-37.5 13t-13.5 38z" />
    <glyph glyph-name="uniFEE8_uniFB8D.liga" unicode="&#xfee8;&#xfb8d;" horiz-adv-x="612" 
d="M375 225q32 0 53 20t21 51v140h109v-247q0 -38 12 -58t42 -20v-111q-32 0 -58 5t-45.5 19t-33 36.5t-17.5 56.5l-4 23h-2q-13 -18 -33.5 -25.5t-43.5 -7.5q-19 0 -39 7.5t-31 25.5h-2v-158q0 -62 -19 -111.5t-57 -84t-95 -52.5t-132 -18v95q50 0 86 12.5t60 35t36 54.5
t12 69v331h107v-27q0 -11 5.5 -22t14.5 -19.5t23 -14t31 -5.5zM451 620q0 52 52 52t52 -52q0 -53 -52 -53t-52 53zM130 475v38h34v123h37v-54q0 -5 -1 -12t-3 -14l2 -1l9 12q12 15 26 22.5t29 7.5q20 0 37.5 -14.5t17.5 -49.5v-58h-188zM282 529q0 13 -4.5 21t-15.5 8
q-10 0 -17.5 -6t-16.5 -17l-20 -22h74v16z" />
    <glyph glyph-name="uniFBE9_uniFB8D.liga" unicode="&#xfbe9;&#xfb8d;" horiz-adv-x="582" 
d="M359 224q25 0 42 20.5t17 51.5v140h109v-247q0 -38 11.5 -58t43.5 -20v-111q-32 0 -59 5t-46.5 19t-32 36.5t-17.5 56.5l-3 23h-2q-12 -18 -27.5 -25.5t-31.5 -7.5t-33 8t-25 25h-2v-158q0 -62 -19 -111.5t-57 -84t-95 -52.5t-132 -18v95q50 0 86 12.5t60 35t36 54.5
t12 69v331h107v-27q0 -11 4.5 -22t12 -20.5t18.5 -14.5t23 -5zM129 475v38h34v123h37v-54q0 -5 -1 -12t-3 -14l2 -1l9 12q12 15 26 22.5t29 7.5q20 0 37.5 -14.5t17.5 -49.5v-58h-188zM281 529q0 13 -4.5 21t-15.5 8q-10 0 -17.5 -6t-16.5 -17l-20 -22h74v16z" />
    <glyph glyph-name="uniFEF4_uniFB8D.liga" unicode="&#xfef4;&#xfb8d;" horiz-adv-x="582" 
d="M359 224q25 0 42 20.5t17 51.5v140h109v-247q0 -38 11.5 -58t43.5 -20v-111q-32 0 -59 5t-46.5 19t-32 36.5t-17.5 56.5l-3 23h-2q-12 -18 -27.5 -25.5t-31.5 -7.5t-33 8t-25 25h-2v-158q0 -62 -19 -111.5t-57 -84t-95 -52.5t-132 -18v95q50 0 86 12.5t60 35t36 54.5
t12 69v331h107v-27q0 -11 4.5 -22t12 -20.5t18.5 -14.5t23 -5zM129 475v38h34v123h37v-54q0 -5 -1 -12t-3 -14l2 -1l9 12q12 15 26 22.5t29 7.5q20 0 37.5 -14.5t17.5 -49.5v-58h-188zM281 529q0 13 -4.5 21t-15.5 8q-10 0 -17.5 -6t-16.5 -17l-20 -22h74v16zM355 -202
q0 51 49 51q24 0 37.5 -13t13.5 -38t-13.5 -37.5t-37.5 -12.5q-23 0 -36 12t-13 38zM469 -202q0 25 13.5 38t37.5 13q49 0 49 -51q0 -26 -13 -38t-36 -12q-24 0 -37.5 12.5t-13.5 37.5z" />
    <glyph glyph-name="uniFE8C_uniFB8B.liga" unicode="&#xfe8c;&#xfb8b;" horiz-adv-x="612" 
d="M375 225q32 0 53 20t21 51v140h109v-247q0 -38 12 -58t42 -20v-111q-32 0 -58 5t-45.5 19t-33 36.5t-17.5 56.5l-4 23h-2q-13 -18 -33.5 -25.5t-43.5 -7.5q-19 0 -39 7.5t-31 25.5h-2v-158q0 -62 -19 -111.5t-57 -84t-95 -52.5t-132 -18v95q50 0 86 12.5t60 35t36 54.5
t12 69v331h107v-27q0 -11 5.5 -22t14.5 -19.5t23 -14t31 -5.5zM429 533v72q0 47 29 77t75 30h44v-49h-44q-24 0 -40.5 -16t-16.5 -42v-22h101v-50h-148zM106 517q0 51 51 51q24 0 37 -13t13 -38t-13 -38t-37 -13q-25 0 -38 12t-13 39zM225 517q0 25 13 38t37 13q51 0 51 -51
q0 -27 -13 -39t-38 -12q-24 0 -37 13t-13 38zM165 627q0 28 13 39.5t38 11.5t38 -11.5t13 -39.5q0 -25 -13.5 -38t-37.5 -13t-37.5 13t-13.5 38z" />
    <glyph glyph-name="uniFE92_uniFB8B.liga" unicode="&#xfe92;&#xfb8b;" horiz-adv-x="582" 
d="M359 224q25 0 42 20.5t17 51.5v140h109v-247q0 -38 11.5 -58t43.5 -20v-111q-32 0 -59 5t-46.5 19t-32 36.5t-17.5 56.5l-3 23h-2q-12 -18 -27.5 -25.5t-31.5 -7.5t-33 8t-25 25h-2v-158q0 -62 -19 -111.5t-57 -84t-95 -52.5t-132 -18v95q50 0 86 12.5t60 35t36 54.5
t12 69v331h107v-27q0 -11 4.5 -22t12 -20.5t18.5 -14.5t23 -5zM422 -149q0 52 52 52t52 -52q0 -53 -52 -53t-52 53zM106 517q0 51 51 51q24 0 37 -13t13 -38t-13 -38t-37 -13q-25 0 -38 12t-13 39zM225 517q0 25 13 38t37 13q51 0 51 -51q0 -27 -13 -39t-38 -12
q-24 0 -37 13t-13 38zM165 627q0 28 13 39.5t38 11.5t38 -11.5t13 -39.5q0 -25 -13.5 -38t-37.5 -13t-37.5 13t-13.5 38z" />
    <glyph glyph-name="uniFE98_uniFB8B.liga" unicode="&#xfe98;&#xfb8b;" horiz-adv-x="612" 
d="M375 225q32 0 53 20t21 51v140h109v-247q0 -38 12 -58t42 -20v-111q-32 0 -58 5t-45.5 19t-33 36.5t-17.5 56.5l-4 23h-2q-13 -18 -33.5 -25.5t-43.5 -7.5q-19 0 -39 7.5t-31 25.5h-2v-158q0 -62 -19 -111.5t-57 -84t-95 -52.5t-132 -18v95q50 0 86 12.5t60 35t36 54.5
t12 69v331h107v-27q0 -11 5.5 -22t14.5 -19.5t23 -14t31 -5.5zM106 517q0 51 51 51q24 0 37 -13t13 -38t-13 -38t-37 -13q-25 0 -38 12t-13 39zM225 517q0 25 13 38t37 13q51 0 51 -51q0 -27 -13 -39t-38 -12q-24 0 -37 13t-13 38zM165 627q0 28 13 39.5t38 11.5t38 -11.5
t13 -39.5q0 -25 -13.5 -38t-37.5 -13t-37.5 13t-13.5 38zM389 620q0 51 49 51q24 0 37.5 -13t13.5 -38t-13.5 -37.5t-37.5 -12.5q-23 0 -36 12t-13 38zM503 620q0 25 13.5 38t37.5 13q49 0 49 -51q0 -26 -13 -38t-36 -12q-24 0 -37.5 12.5t-13.5 37.5z" />
    <glyph glyph-name="uniFE9C_uniFB8B.liga" unicode="&#xfe9c;&#xfb8b;" horiz-adv-x="612" 
d="M375 225q32 0 53 20t21 51v140h109v-247q0 -38 12 -58t42 -20v-111q-32 0 -58 5t-45.5 19t-33 36.5t-17.5 56.5l-4 23h-2q-13 -18 -33.5 -25.5t-43.5 -7.5q-19 0 -39 7.5t-31 25.5h-2v-158q0 -62 -19 -111.5t-57 -84t-95 -52.5t-132 -18v95q50 0 86 12.5t60 35t36 54.5
t12 69v331h107v-27q0 -11 5.5 -22t14.5 -19.5t23 -14t31 -5.5zM106 517q0 51 51 51q24 0 37 -13t13 -38t-13 -38t-37 -13q-25 0 -38 12t-13 39zM225 517q0 25 13 38t37 13q51 0 51 -51q0 -27 -13 -39t-38 -12q-24 0 -37 13t-13 38zM165 627q0 28 13 39.5t38 11.5t38 -11.5
t13 -39.5q0 -25 -13.5 -38t-37.5 -13t-37.5 13t-13.5 38zM386 571q0 51 51 51q24 0 37 -13t13 -38t-13 -38t-37 -13q-25 0 -38 12t-13 39zM505 571q0 25 13 38t37 13q51 0 51 -51q0 -27 -13 -39t-38 -12q-24 0 -37 13t-13 38zM445 681q0 28 13 39.5t38 11.5t38 -11.5
t13 -39.5q0 -25 -13.5 -38t-37.5 -13t-37.5 13t-13.5 38z" />
    <glyph glyph-name="uniFEE8_uniFB8B.liga" unicode="&#xfee8;&#xfb8b;" horiz-adv-x="612" 
d="M375 225q32 0 53 20t21 51v140h109v-247q0 -38 12 -58t42 -20v-111q-32 0 -58 5t-45.5 19t-33 36.5t-17.5 56.5l-4 23h-2q-13 -18 -33.5 -25.5t-43.5 -7.5q-19 0 -39 7.5t-31 25.5h-2v-158q0 -62 -19 -111.5t-57 -84t-95 -52.5t-132 -18v95q50 0 86 12.5t60 35t36 54.5
t12 69v331h107v-27q0 -11 5.5 -22t14.5 -19.5t23 -14t31 -5.5zM451 620q0 52 52 52t52 -52q0 -53 -52 -53t-52 53zM106 517q0 51 51 51q24 0 37 -13t13 -38t-13 -38t-37 -13q-25 0 -38 12t-13 39zM225 517q0 25 13 38t37 13q51 0 51 -51q0 -27 -13 -39t-38 -12q-24 0 -37 13
t-13 38zM165 627q0 28 13 39.5t38 11.5t38 -11.5t13 -39.5q0 -25 -13.5 -38t-37.5 -13t-37.5 13t-13.5 38z" />
    <glyph glyph-name="uniFBE9_uniFB8B.liga" unicode="&#xfbe9;&#xfb8b;" horiz-adv-x="582" 
d="M359 224q25 0 42 20.5t17 51.5v140h109v-247q0 -38 11.5 -58t43.5 -20v-111q-32 0 -59 5t-46.5 19t-32 36.5t-17.5 56.5l-3 23h-2q-12 -18 -27.5 -25.5t-31.5 -7.5t-33 8t-25 25h-2v-158q0 -62 -19 -111.5t-57 -84t-95 -52.5t-132 -18v95q50 0 86 12.5t60 35t36 54.5
t12 69v331h107v-27q0 -11 4.5 -22t12 -20.5t18.5 -14.5t23 -5zM106 517q0 51 51 51q24 0 37 -13t13 -38t-13 -38t-37 -13q-25 0 -38 12t-13 39zM225 517q0 25 13 38t37 13q51 0 51 -51q0 -27 -13 -39t-38 -12q-24 0 -37 13t-13 38zM165 627q0 28 13 39.5t38 11.5t38 -11.5
t13 -39.5q0 -25 -13.5 -38t-37.5 -13t-37.5 13t-13.5 38z" />
    <glyph glyph-name="uniFEF4_uniFB8B.liga" unicode="&#xfef4;&#xfb8b;" horiz-adv-x="582" 
d="M359 224q25 0 42 20.5t17 51.5v140h109v-247q0 -38 11.5 -58t43.5 -20v-111q-32 0 -59 5t-46.5 19t-32 36.5t-17.5 56.5l-3 23h-2q-12 -18 -27.5 -25.5t-31.5 -7.5t-33 8t-25 25h-2v-158q0 -62 -19 -111.5t-57 -84t-95 -52.5t-132 -18v95q50 0 86 12.5t60 35t36 54.5
t12 69v331h107v-27q0 -11 4.5 -22t12 -20.5t18.5 -14.5t23 -5zM355 -202q0 51 49 51q24 0 37.5 -13t13.5 -38t-13.5 -37.5t-37.5 -12.5q-23 0 -36 12t-13 38zM469 -202q0 25 13.5 38t37.5 13q49 0 49 -51q0 -26 -13 -38t-36 -12q-24 0 -37.5 12.5t-13.5 37.5zM106 517
q0 51 51 51q24 0 37 -13t13 -38t-13 -38t-37 -13q-25 0 -38 12t-13 39zM225 517q0 25 13 38t37 13q51 0 51 -51q0 -27 -13 -39t-38 -12q-24 0 -37 13t-13 38zM165 627q0 28 13 39.5t38 11.5t38 -11.5t13 -39.5q0 -25 -13.5 -38t-37.5 -13t-37.5 13t-13.5 38z" />
    <glyph glyph-name="uniFB69_uniFEAE.liga" unicode="&#xfb69;&#xfeae;" horiz-adv-x="582" 
d="M359 224q25 0 42 20.5t17 51.5v140h109v-247q0 -38 11.5 -58t43.5 -20v-111q-32 0 -59 5t-46.5 19t-32 36.5t-17.5 56.5l-3 23h-2q-12 -18 -27.5 -25.5t-31.5 -7.5t-33 8t-25 25h-2v-158q0 -62 -19 -111.5t-57 -84t-95 -52.5t-132 -18v95q50 0 86 12.5t60 35t36 54.5
t12 69v331h107v-27q0 -11 4.5 -22t12 -20.5t18.5 -14.5t23 -5zM372 533v38h34v123h37v-54q0 -5 -1 -12t-3 -14l2 -1l9 12q12 15 26 22.5t29 7.5q20 0 37.5 -14.5t17.5 -49.5v-58h-188zM524 587q0 13 -4.5 21t-15.5 8q-10 0 -17.5 -6t-16.5 -17l-20 -22h74v16z" />
    <glyph glyph-name="uniFB59_uniFEAE.liga" unicode="&#xfb59;&#xfeae;" horiz-adv-x="582" 
d="M359 224q25 0 42 20.5t17 51.5v140h109v-247q0 -38 11.5 -58t43.5 -20v-111q-32 0 -59 5t-46.5 19t-32 36.5t-17.5 56.5l-3 23h-2q-12 -18 -27.5 -25.5t-31.5 -7.5t-33 8t-25 25h-2v-158q0 -62 -19 -111.5t-57 -84t-95 -52.5t-132 -18v95q50 0 86 12.5t60 35t36 54.5
t12 69v331h107v-27q0 -11 4.5 -22t12 -20.5t18.5 -14.5t23 -5zM572 -201q0 -52 -51 -52q-24 0 -37 13.5t-13 38.5t13 37.5t37 12.5q25 0 38 -12t13 -38zM453 -201q0 -25 -13 -38.5t-37 -13.5q-51 0 -51 52q0 26 13 38t38 12q24 0 37 -12.5t13 -37.5zM513 -311
q0 -28 -13 -39.5t-38 -11.5t-38 11.5t-13 39.5q0 23 13.5 37t37.5 14t37.5 -14t13.5 -37z" />
    <glyph glyph-name="uniFBFF_uniFEAE.liga" unicode="&#xfbff;&#xfeae;" horiz-adv-x="582" 
d="M359 224q25 0 42 20.5t17 51.5v140h109v-247q0 -38 11.5 -58t43.5 -20v-111q-32 0 -59 5t-46.5 19t-32 36.5t-17.5 56.5l-3 23h-2q-12 -18 -27.5 -25.5t-31.5 -7.5t-33 8t-25 25h-2v-158q0 -62 -19 -111.5t-57 -84t-95 -52.5t-132 -18v95q50 0 86 12.5t60 35t36 54.5
t12 69v331h107v-27q0 -11 4.5 -22t12 -20.5t18.5 -14.5t23 -5zM355 -202q0 51 49 51q24 0 37.5 -13t13.5 -38t-13.5 -37.5t-37.5 -12.5q-23 0 -36 12t-13 38zM469 -202q0 25 13.5 38t37.5 13q49 0 49 -51q0 -26 -13 -38t-36 -12q-24 0 -37.5 12.5t-13.5 37.5z" />
    <glyph glyph-name="uniFB69_uniFEB0.liga" unicode="&#xfb69;&#xfeb0;" horiz-adv-x="612" 
d="M375 225q32 0 53 20t21 51v140h109v-247q0 -38 12 -58t42 -20v-111q-32 0 -58 5t-45.5 19t-33 36.5t-17.5 56.5l-4 23h-2q-13 -18 -33.5 -25.5t-43.5 -7.5q-19 0 -39 7.5t-31 25.5h-2v-158q0 -62 -19 -111.5t-57 -84t-95 -52.5t-132 -18v95q50 0 86 12.5t60 35t36 54.5
t12 69v331h107v-27q0 -11 5.5 -22t14.5 -19.5t23 -14t31 -5.5zM194 537q0 52 52 52t52 -52q0 -53 -52 -53t-52 53zM404 533v38h34v123h37v-54q0 -5 -1 -12t-3 -14l2 -1l9 12q12 15 26 22.5t29 7.5q20 0 37.5 -14.5t17.5 -49.5v-58h-188zM556 587q0 13 -4.5 21t-15.5 8
q-10 0 -17.5 -6t-16.5 -17l-20 -22h74v16z" />
    <glyph glyph-name="uniFB59_uniFEB0.liga" unicode="&#xfb59;&#xfeb0;" horiz-adv-x="582" 
d="M359 224q25 0 42 20.5t17 51.5v140h109v-247q0 -38 11.5 -58t43.5 -20v-111q-32 0 -59 5t-46.5 19t-32 36.5t-17.5 56.5l-3 23h-2q-12 -18 -27.5 -25.5t-31.5 -7.5t-33 8t-25 25h-2v-158q0 -62 -19 -111.5t-57 -84t-95 -52.5t-132 -18v95q50 0 86 12.5t60 35t36 54.5
t12 69v331h107v-27q0 -11 4.5 -22t12 -20.5t18.5 -14.5t23 -5zM196 537q0 52 52 52t52 -52q0 -53 -52 -53t-52 53zM572 -201q0 -52 -51 -52q-24 0 -37 13.5t-13 38.5t13 37.5t37 12.5q25 0 38 -12t13 -38zM453 -201q0 -25 -13 -38.5t-37 -13.5q-51 0 -51 52q0 26 13 38
t38 12q24 0 37 -12.5t13 -37.5zM513 -311q0 -28 -13 -39.5t-38 -11.5t-38 11.5t-13 39.5q0 23 13.5 37t37.5 14t37.5 -14t13.5 -37z" />
    <glyph glyph-name="uniFBFF_uniFEB0.liga" unicode="&#xfbff;&#xfeb0;" horiz-adv-x="582" 
d="M359 224q25 0 42 20.5t17 51.5v140h109v-247q0 -38 11.5 -58t43.5 -20v-111q-32 0 -59 5t-46.5 19t-32 36.5t-17.5 56.5l-3 23h-2q-12 -18 -27.5 -25.5t-31.5 -7.5t-33 8t-25 25h-2v-158q0 -62 -19 -111.5t-57 -84t-95 -52.5t-132 -18v95q50 0 86 12.5t60 35t36 54.5
t12 69v331h107v-27q0 -11 4.5 -22t12 -20.5t18.5 -14.5t23 -5zM196 537q0 52 52 52t52 -52q0 -53 -52 -53t-52 53zM355 -202q0 51 49 51q24 0 37.5 -13t13.5 -38t-13.5 -37.5t-37.5 -12.5q-23 0 -36 12t-13 38zM469 -202q0 25 13.5 38t37.5 13q49 0 49 -51q0 -26 -13 -38
t-36 -12q-24 0 -37.5 12.5t-13.5 37.5z" />
    <glyph glyph-name="uniFB69_uniFB8D.liga" unicode="&#xfb69;&#xfb8d;" horiz-adv-x="612" 
d="M375 225q32 0 53 20t21 51v140h109v-247q0 -38 12 -58t42 -20v-111q-32 0 -58 5t-45.5 19t-33 36.5t-17.5 56.5l-4 23h-2q-13 -18 -33.5 -25.5t-43.5 -7.5q-19 0 -39 7.5t-31 25.5h-2v-158q0 -62 -19 -111.5t-57 -84t-95 -52.5t-132 -18v95q50 0 86 12.5t60 35t36 54.5
t12 69v331h107v-27q0 -11 5.5 -22t14.5 -19.5t23 -14t31 -5.5zM404 533v38h34v123h37v-54q0 -5 -1 -12t-3 -14l2 -1l9 12q12 15 26 22.5t29 7.5q20 0 37.5 -14.5t17.5 -49.5v-58h-188zM556 587q0 13 -4.5 21t-15.5 8q-10 0 -17.5 -6t-16.5 -17l-20 -22h74v16zM127 475v38h34
v123h37v-54q0 -5 -1 -12t-3 -14l2 -1l9 12q12 15 26 22.5t29 7.5q20 0 37.5 -14.5t17.5 -49.5v-58h-188zM279 529q0 13 -4.5 21t-15.5 8q-10 0 -17.5 -6t-16.5 -17l-20 -22h74v16z" />
    <glyph glyph-name="uniFB59_uniFB8D.liga" unicode="&#xfb59;&#xfb8d;" horiz-adv-x="582" 
d="M359 224q25 0 42 20.5t17 51.5v140h109v-247q0 -38 11.5 -58t43.5 -20v-111q-32 0 -59 5t-46.5 19t-32 36.5t-17.5 56.5l-3 23h-2q-12 -18 -27.5 -25.5t-31.5 -7.5t-33 8t-25 25h-2v-158q0 -62 -19 -111.5t-57 -84t-95 -52.5t-132 -18v95q50 0 86 12.5t60 35t36 54.5
t12 69v331h107v-27q0 -11 4.5 -22t12 -20.5t18.5 -14.5t23 -5zM129 475v38h34v123h37v-54q0 -5 -1 -12t-3 -14l2 -1l9 12q12 15 26 22.5t29 7.5q20 0 37.5 -14.5t17.5 -49.5v-58h-188zM281 529q0 13 -4.5 21t-15.5 8q-10 0 -17.5 -6t-16.5 -17l-20 -22h74v16zM572 -201
q0 -52 -51 -52q-24 0 -37 13.5t-13 38.5t13 37.5t37 12.5q25 0 38 -12t13 -38zM453 -201q0 -25 -13 -38.5t-37 -13.5q-51 0 -51 52q0 26 13 38t38 12q24 0 37 -12.5t13 -37.5zM513 -311q0 -28 -13 -39.5t-38 -11.5t-38 11.5t-13 39.5q0 23 13.5 37t37.5 14t37.5 -14
t13.5 -37z" />
    <glyph glyph-name="uniFBFF_uniFB8D.liga" unicode="&#xfbff;&#xfb8d;" horiz-adv-x="582" 
d="M359 224q25 0 42 20.5t17 51.5v140h109v-247q0 -38 11.5 -58t43.5 -20v-111q-32 0 -59 5t-46.5 19t-32 36.5t-17.5 56.5l-3 23h-2q-12 -18 -27.5 -25.5t-31.5 -7.5t-33 8t-25 25h-2v-158q0 -62 -19 -111.5t-57 -84t-95 -52.5t-132 -18v95q50 0 86 12.5t60 35t36 54.5
t12 69v331h107v-27q0 -11 4.5 -22t12 -20.5t18.5 -14.5t23 -5zM129 475v38h34v123h37v-54q0 -5 -1 -12t-3 -14l2 -1l9 12q12 15 26 22.5t29 7.5q20 0 37.5 -14.5t17.5 -49.5v-58h-188zM281 529q0 13 -4.5 21t-15.5 8q-10 0 -17.5 -6t-16.5 -17l-20 -22h74v16zM355 -202
q0 51 49 51q24 0 37.5 -13t13.5 -38t-13.5 -37.5t-37.5 -12.5q-23 0 -36 12t-13 38zM469 -202q0 25 13.5 38t37.5 13q49 0 49 -51q0 -26 -13 -38t-36 -12q-24 0 -37.5 12.5t-13.5 37.5z" />
    <glyph glyph-name="uniFB69_uniFB8B.liga" unicode="&#xfb69;&#xfb8b;" horiz-adv-x="612" 
d="M375 225q32 0 53 20t21 51v140h109v-247q0 -38 12 -58t42 -20v-111q-32 0 -58 5t-45.5 19t-33 36.5t-17.5 56.5l-4 23h-2q-13 -18 -33.5 -25.5t-43.5 -7.5q-19 0 -39 7.5t-31 25.5h-2v-158q0 -62 -19 -111.5t-57 -84t-95 -52.5t-132 -18v95q50 0 86 12.5t60 35t36 54.5
t12 69v331h107v-27q0 -11 5.5 -22t14.5 -19.5t23 -14t31 -5.5zM404 533v38h34v123h37v-54q0 -5 -1 -12t-3 -14l2 -1l9 12q12 15 26 22.5t29 7.5q20 0 37.5 -14.5t17.5 -49.5v-58h-188zM556 587q0 13 -4.5 21t-15.5 8q-10 0 -17.5 -6t-16.5 -17l-20 -22h74v16zM106 517
q0 51 51 51q24 0 37 -13t13 -38t-13 -38t-37 -13q-25 0 -38 12t-13 39zM225 517q0 25 13 38t37 13q51 0 51 -51q0 -27 -13 -39t-38 -12q-24 0 -37 13t-13 38zM165 627q0 28 13 39.5t38 11.5t38 -11.5t13 -39.5q0 -25 -13.5 -38t-37.5 -13t-37.5 13t-13.5 38z" />
    <glyph glyph-name="uniFB59_uniFB8B.liga" unicode="&#xfb59;&#xfb8b;" horiz-adv-x="582" 
d="M359 224q25 0 42 20.5t17 51.5v140h109v-247q0 -38 11.5 -58t43.5 -20v-111q-32 0 -59 5t-46.5 19t-32 36.5t-17.5 56.5l-3 23h-2q-12 -18 -27.5 -25.5t-31.5 -7.5t-33 8t-25 25h-2v-158q0 -62 -19 -111.5t-57 -84t-95 -52.5t-132 -18v95q50 0 86 12.5t60 35t36 54.5
t12 69v331h107v-27q0 -11 4.5 -22t12 -20.5t18.5 -14.5t23 -5zM106 517q0 51 51 51q24 0 37 -13t13 -38t-13 -38t-37 -13q-25 0 -38 12t-13 39zM225 517q0 25 13 38t37 13q51 0 51 -51q0 -27 -13 -39t-38 -12q-24 0 -37 13t-13 38zM165 627q0 28 13 39.5t38 11.5t38 -11.5
t13 -39.5q0 -25 -13.5 -38t-37.5 -13t-37.5 13t-13.5 38zM572 -201q0 -52 -51 -52q-24 0 -37 13.5t-13 38.5t13 37.5t37 12.5q25 0 38 -12t13 -38zM453 -201q0 -25 -13 -38.5t-37 -13.5q-51 0 -51 52q0 26 13 38t38 12q24 0 37 -12.5t13 -37.5zM513 -311q0 -28 -13 -39.5
t-38 -11.5t-38 11.5t-13 39.5q0 23 13.5 37t37.5 14t37.5 -14t13.5 -37z" />
    <glyph glyph-name="uniFBFF_uniFB8B.liga" unicode="&#xfbff;&#xfb8b;" horiz-adv-x="582" 
d="M359 224q25 0 42 20.5t17 51.5v140h109v-247q0 -38 11.5 -58t43.5 -20v-111q-32 0 -59 5t-46.5 19t-32 36.5t-17.5 56.5l-3 23h-2q-12 -18 -27.5 -25.5t-31.5 -7.5t-33 8t-25 25h-2v-158q0 -62 -19 -111.5t-57 -84t-95 -52.5t-132 -18v95q50 0 86 12.5t60 35t36 54.5
t12 69v331h107v-27q0 -11 4.5 -22t12 -20.5t18.5 -14.5t23 -5zM355 -202q0 51 49 51q24 0 37.5 -13t13.5 -38t-13.5 -37.5t-37.5 -12.5q-23 0 -36 12t-13 38zM469 -202q0 25 13.5 38t37.5 13q49 0 49 -51q0 -26 -13 -38t-36 -12q-24 0 -37.5 12.5t-13.5 37.5zM106 517
q0 51 51 51q24 0 37 -13t13 -38t-13 -38t-37 -13q-25 0 -38 12t-13 39zM225 517q0 25 13 38t37 13q51 0 51 -51q0 -27 -13 -39t-38 -12q-24 0 -37 13t-13 38zM165 627q0 28 13 39.5t38 11.5t38 -11.5t13 -39.5q0 -25 -13.5 -38t-37.5 -13t-37.5 13t-13.5 38z" />
    <glyph glyph-name="uniFE8C_uniFEE6.liga" unicode="&#xfe8c;&#xfee6;" horiz-adv-x="880" 
d="M659 224q25 0 42 20.5t17 51.5v140h108v-254q0 -33 11.5 -52t42.5 -19v-111q-31 0 -57.5 5t-46 19t-32.5 36.5t-17 56.5l-4 23h-3q-10 -17 -26.5 -25t-32.5 -8q-15 0 -31.5 8t-24.5 25h-3v-131q0 -68 -22 -124.5t-60 -96t-89.5 -61.5t-112.5 -22q-135 0 -207.5 91
t-72.5 256v104h102v-100q0 -116 46.5 -177.5t131.5 -61.5q37 0 68.5 13.5t55.5 39t37 63t13 85.5v295h108v-27q0 -11 4.5 -22t11.5 -20.5t18.5 -14.5t24.5 -5zM698 533v72q0 47 29 77t75 30h44v-49h-44q-24 0 -40.5 -16t-16.5 -42v-22h101v-50h-148zM269 443q0 52 52 52
t52 -52q0 -53 -52 -53t-52 53z" />
    <glyph glyph-name="uniFE92_uniFEE6.liga" unicode="&#xfe92;&#xfee6;" horiz-adv-x="880" 
d="M659 224q25 0 42 20.5t17 51.5v140h108v-254q0 -33 11.5 -52t42.5 -19v-111q-31 0 -57.5 5t-46 19t-32.5 36.5t-17 56.5l-4 23h-3q-10 -17 -26.5 -25t-32.5 -8q-15 0 -31.5 8t-24.5 25h-3v-131q0 -68 -22 -124.5t-60 -96t-89.5 -61.5t-112.5 -22q-135 0 -207.5 91
t-72.5 256v104h102v-100q0 -116 46.5 -177.5t131.5 -61.5q37 0 68.5 13.5t55.5 39t37 63t13 85.5v295h108v-27q0 -11 4.5 -22t11.5 -20.5t18.5 -14.5t24.5 -5zM721 -149q0 52 52 52t52 -52q0 -53 -52 -53t-52 53zM269 443q0 52 52 52t52 -52q0 -53 -52 -53t-52 53z" />
    <glyph glyph-name="uniFE98_uniFEE6.liga" unicode="&#xfe98;&#xfee6;" horiz-adv-x="880" 
d="M659 224q25 0 42 20.5t17 51.5v140h108v-254q0 -33 11.5 -52t42.5 -19v-111q-31 0 -57.5 5t-46 19t-32.5 36.5t-17 56.5l-4 23h-3q-10 -17 -26.5 -25t-32.5 -8q-15 0 -31.5 8t-24.5 25h-3v-131q0 -68 -22 -124.5t-60 -96t-89.5 -61.5t-112.5 -22q-135 0 -207.5 91
t-72.5 256v104h102v-100q0 -116 46.5 -177.5t131.5 -61.5q37 0 68.5 13.5t55.5 39t37 63t13 85.5v295h108v-27q0 -11 4.5 -22t11.5 -20.5t18.5 -14.5t24.5 -5zM658 620q0 51 49 51q24 0 37.5 -13t13.5 -38t-13.5 -37.5t-37.5 -12.5q-23 0 -36 12t-13 38zM772 620
q0 25 13.5 38t37.5 13q49 0 49 -51q0 -26 -13 -38t-36 -12q-24 0 -37.5 12.5t-13.5 37.5zM269 443q0 52 52 52t52 -52q0 -53 -52 -53t-52 53z" />
    <glyph glyph-name="uniFE9C_uniFEE6.liga" unicode="&#xfe9c;&#xfee6;" horiz-adv-x="880" 
d="M659 224q25 0 42 20.5t17 51.5v140h108v-254q0 -33 11.5 -52t42.5 -19v-111q-31 0 -57.5 5t-46 19t-32.5 36.5t-17 56.5l-4 23h-3q-10 -17 -26.5 -25t-32.5 -8q-15 0 -31.5 8t-24.5 25h-3v-131q0 -68 -22 -124.5t-60 -96t-89.5 -61.5t-112.5 -22q-135 0 -207.5 91
t-72.5 256v104h102v-100q0 -116 46.5 -177.5t131.5 -61.5q37 0 68.5 13.5t55.5 39t37 63t13 85.5v295h108v-27q0 -11 4.5 -22t11.5 -20.5t18.5 -14.5t24.5 -5zM655 571q0 51 51 51q24 0 37 -13t13 -38t-13 -38t-37 -13q-25 0 -38 12t-13 39zM774 571q0 25 13 38t37 13
q51 0 51 -51q0 -27 -13 -39t-38 -12q-24 0 -37 13t-13 38zM714 681q0 28 13 39.5t38 11.5t38 -11.5t13 -39.5q0 -25 -13.5 -38t-37.5 -13t-37.5 13t-13.5 38zM269 443q0 52 52 52t52 -52q0 -53 -52 -53t-52 53z" />
    <glyph glyph-name="uniFEE8_uniFEE6.liga" unicode="&#xfee8;&#xfee6;" horiz-adv-x="880" 
d="M659 224q25 0 42 20.5t17 51.5v140h108v-254q0 -33 11.5 -52t42.5 -19v-111q-31 0 -57.5 5t-46 19t-32.5 36.5t-17 56.5l-4 23h-3q-10 -17 -26.5 -25t-32.5 -8q-15 0 -31.5 8t-24.5 25h-3v-131q0 -68 -22 -124.5t-60 -96t-89.5 -61.5t-112.5 -22q-135 0 -207.5 91
t-72.5 256v104h102v-100q0 -116 46.5 -177.5t131.5 -61.5q37 0 68.5 13.5t55.5 39t37 63t13 85.5v295h108v-27q0 -11 4.5 -22t11.5 -20.5t18.5 -14.5t24.5 -5zM719 620q0 52 52 52t52 -52q0 -53 -52 -53t-52 53zM269 443q0 52 52 52t52 -52q0 -53 -52 -53t-52 53z" />
    <glyph glyph-name="uniFBE9_uniFEE6.liga" unicode="&#xfbe9;&#xfee6;" horiz-adv-x="880" 
d="M659 224q25 0 42 20.5t17 51.5v140h108v-254q0 -33 11.5 -52t42.5 -19v-111q-31 0 -57.5 5t-46 19t-32.5 36.5t-17 56.5l-4 23h-3q-10 -17 -26.5 -25t-32.5 -8q-15 0 -31.5 8t-24.5 25h-3v-131q0 -68 -22 -124.5t-60 -96t-89.5 -61.5t-112.5 -22q-135 0 -207.5 91
t-72.5 256v104h102v-100q0 -116 46.5 -177.5t131.5 -61.5q37 0 68.5 13.5t55.5 39t37 63t13 85.5v295h108v-27q0 -11 4.5 -22t11.5 -20.5t18.5 -14.5t24.5 -5zM269 443q0 52 52 52t52 -52q0 -53 -52 -53t-52 53z" />
    <glyph glyph-name="uniFEF4_uniFEE6.liga" unicode="&#xfef4;&#xfee6;" horiz-adv-x="880" 
d="M659 224q25 0 42 20.5t17 51.5v140h108v-254q0 -33 11.5 -52t42.5 -19v-111q-31 0 -57.5 5t-46 19t-32.5 36.5t-17 56.5l-4 23h-3q-10 -17 -26.5 -25t-32.5 -8q-15 0 -31.5 8t-24.5 25h-3v-131q0 -68 -22 -124.5t-60 -96t-89.5 -61.5t-112.5 -22q-135 0 -207.5 91
t-72.5 256v104h102v-100q0 -116 46.5 -177.5t131.5 -61.5q37 0 68.5 13.5t55.5 39t37 63t13 85.5v295h108v-27q0 -11 4.5 -22t11.5 -20.5t18.5 -14.5t24.5 -5zM654 -202q0 51 49 51q24 0 37.5 -13t13.5 -38t-13.5 -37.5t-37.5 -12.5q-23 0 -36 12t-13 38zM768 -202
q0 25 13.5 38t37.5 13q49 0 49 -51q0 -26 -13 -38t-36 -12q-24 0 -37.5 12.5t-13.5 37.5zM269 443q0 52 52 52t52 -52q0 -53 -52 -53t-52 53z" />
    <glyph glyph-name="uniFBE9_uniFB9F.liga" unicode="&#xfbe9;&#xfb9f;" horiz-adv-x="880" 
d="M659 224q25 0 42 20.5t17 51.5v140h108v-254q0 -33 11.5 -52t42.5 -19v-111q-31 0 -57.5 5t-46 19t-32.5 36.5t-17 56.5l-4 23h-3q-10 -17 -26.5 -25t-32.5 -8q-15 0 -31.5 8t-24.5 25h-3v-131q0 -68 -22 -124.5t-60 -96t-89.5 -61.5t-112.5 -22q-135 0 -207.5 91
t-72.5 256v104h102v-100q0 -116 46.5 -177.5t131.5 -61.5q37 0 68.5 13.5t55.5 39t37 63t13 85.5v295h108v-27q0 -11 4.5 -22t11.5 -20.5t18.5 -14.5t24.5 -5z" />
    <glyph glyph-name="uniFB69_uniFEE6.liga" unicode="&#xfb69;&#xfee6;" horiz-adv-x="880" 
d="M659 224q25 0 42 20.5t17 51.5v140h108v-254q0 -33 11.5 -52t42.5 -19v-111q-31 0 -57.5 5t-46 19t-32.5 36.5t-17 56.5l-4 23h-3q-10 -17 -26.5 -25t-32.5 -8q-15 0 -31.5 8t-24.5 25h-3v-131q0 -68 -22 -124.5t-60 -96t-89.5 -61.5t-112.5 -22q-135 0 -207.5 91
t-72.5 256v104h102v-100q0 -116 46.5 -177.5t131.5 -61.5q37 0 68.5 13.5t55.5 39t37 63t13 85.5v295h108v-27q0 -11 4.5 -22t11.5 -20.5t18.5 -14.5t24.5 -5zM269 443q0 52 52 52t52 -52q0 -53 -52 -53t-52 53zM672 533v38h34v123h37v-54q0 -5 -1 -12t-3 -14l2 -1l9 12
q12 15 26 22.5t29 7.5q20 0 37.5 -14.5t17.5 -49.5v-58h-188zM824 587q0 13 -4.5 21t-15.5 8q-10 0 -17.5 -6t-16.5 -17l-20 -22h74v16z" />
    <glyph glyph-name="uniFB59_uniFEE6.liga" unicode="&#xfb59;&#xfee6;" horiz-adv-x="880" 
d="M659 224q25 0 42 20.5t17 51.5v140h108v-254q0 -33 11.5 -52t42.5 -19v-111q-31 0 -57.5 5t-46 19t-32.5 36.5t-17 56.5l-4 23h-3q-10 -17 -26.5 -25t-32.5 -8q-15 0 -31.5 8t-24.5 25h-3v-131q0 -68 -22 -124.5t-60 -96t-89.5 -61.5t-112.5 -22q-135 0 -207.5 91
t-72.5 256v104h102v-100q0 -116 46.5 -177.5t131.5 -61.5q37 0 68.5 13.5t55.5 39t37 63t13 85.5v295h108v-27q0 -11 4.5 -22t11.5 -20.5t18.5 -14.5t24.5 -5zM269 443q0 52 52 52t52 -52q0 -53 -52 -53t-52 53zM872 -201q0 -52 -51 -52q-24 0 -37 13.5t-13 38.5t13 37.5
t37 12.5q25 0 38 -12t13 -38zM753 -201q0 -25 -13 -38.5t-37 -13.5q-51 0 -51 52q0 26 13 38t38 12q24 0 37 -12.5t13 -37.5zM813 -311q0 -28 -13 -39.5t-38 -11.5t-38 11.5t-13 39.5q0 23 13.5 37t37.5 14t37.5 -14t13.5 -37z" />
    <glyph glyph-name="uniFBFF_uniFEE6.liga" unicode="&#xfbff;&#xfee6;" horiz-adv-x="880" 
d="M659 224q25 0 42 20.5t17 51.5v140h108v-254q0 -33 11.5 -52t42.5 -19v-111q-31 0 -57.5 5t-46 19t-32.5 36.5t-17 56.5l-4 23h-3q-10 -17 -26.5 -25t-32.5 -8q-15 0 -31.5 8t-24.5 25h-3v-131q0 -68 -22 -124.5t-60 -96t-89.5 -61.5t-112.5 -22q-135 0 -207.5 91
t-72.5 256v104h102v-100q0 -116 46.5 -177.5t131.5 -61.5q37 0 68.5 13.5t55.5 39t37 63t13 85.5v295h108v-27q0 -11 4.5 -22t11.5 -20.5t18.5 -14.5t24.5 -5zM269 443q0 52 52 52t52 -52q0 -53 -52 -53t-52 53zM654 -202q0 51 49 51q24 0 37.5 -13t13.5 -38t-13.5 -37.5
t-37.5 -12.5q-23 0 -36 12t-13 38zM768 -202q0 25 13.5 38t37.5 13q49 0 49 -51q0 -26 -13 -38t-36 -12q-24 0 -37.5 12.5t-13.5 37.5z" />
    <glyph glyph-name="uniFE8C_uniFB9F.liga" unicode="&#xfe8c;&#xfb9f;" horiz-adv-x="880" 
d="M659 224q25 0 42 20.5t17 51.5v140h108v-254q0 -33 11.5 -52t42.5 -19v-111q-31 0 -57.5 5t-46 19t-32.5 36.5t-17 56.5l-4 23h-3q-10 -17 -26.5 -25t-32.5 -8q-15 0 -31.5 8t-24.5 25h-3v-131q0 -68 -22 -124.5t-60 -96t-89.5 -61.5t-112.5 -22q-135 0 -207.5 91
t-72.5 256v104h102v-100q0 -116 46.5 -177.5t131.5 -61.5q37 0 68.5 13.5t55.5 39t37 63t13 85.5v295h108v-27q0 -11 4.5 -22t11.5 -20.5t18.5 -14.5t24.5 -5zM698 533v72q0 47 29 77t75 30h44v-49h-44q-24 0 -40.5 -16t-16.5 -42v-22h101v-50h-148z" />
    <glyph glyph-name="uniFE92_uniFB9F.liga" unicode="&#xfe92;&#xfb9f;" horiz-adv-x="880" 
d="M659 224q25 0 42 20.5t17 51.5v140h108v-254q0 -33 11.5 -52t42.5 -19v-111q-31 0 -57.5 5t-46 19t-32.5 36.5t-17 56.5l-4 23h-3q-10 -17 -26.5 -25t-32.5 -8q-15 0 -31.5 8t-24.5 25h-3v-131q0 -68 -22 -124.5t-60 -96t-89.5 -61.5t-112.5 -22q-135 0 -207.5 91
t-72.5 256v104h102v-100q0 -116 46.5 -177.5t131.5 -61.5q37 0 68.5 13.5t55.5 39t37 63t13 85.5v295h108v-27q0 -11 4.5 -22t11.5 -20.5t18.5 -14.5t24.5 -5zM721 -149q0 52 52 52t52 -52q0 -53 -52 -53t-52 53z" />
    <glyph glyph-name="uniFE98_uniFB9F.liga" unicode="&#xfe98;&#xfb9f;" horiz-adv-x="880" 
d="M659 224q25 0 42 20.5t17 51.5v140h108v-254q0 -33 11.5 -52t42.5 -19v-111q-31 0 -57.5 5t-46 19t-32.5 36.5t-17 56.5l-4 23h-3q-10 -17 -26.5 -25t-32.5 -8q-15 0 -31.5 8t-24.5 25h-3v-131q0 -68 -22 -124.5t-60 -96t-89.5 -61.5t-112.5 -22q-135 0 -207.5 91
t-72.5 256v104h102v-100q0 -116 46.5 -177.5t131.5 -61.5q37 0 68.5 13.5t55.5 39t37 63t13 85.5v295h108v-27q0 -11 4.5 -22t11.5 -20.5t18.5 -14.5t24.5 -5zM658 620q0 51 49 51q24 0 37.5 -13t13.5 -38t-13.5 -37.5t-37.5 -12.5q-23 0 -36 12t-13 38zM772 620
q0 25 13.5 38t37.5 13q49 0 49 -51q0 -26 -13 -38t-36 -12q-24 0 -37.5 12.5t-13.5 37.5z" />
    <glyph glyph-name="uniFE9C_uniFB9F.liga" unicode="&#xfe9c;&#xfb9f;" horiz-adv-x="880" 
d="M659 224q25 0 42 20.5t17 51.5v140h108v-254q0 -33 11.5 -52t42.5 -19v-111q-31 0 -57.5 5t-46 19t-32.5 36.5t-17 56.5l-4 23h-3q-10 -17 -26.5 -25t-32.5 -8q-15 0 -31.5 8t-24.5 25h-3v-131q0 -68 -22 -124.5t-60 -96t-89.5 -61.5t-112.5 -22q-135 0 -207.5 91
t-72.5 256v104h102v-100q0 -116 46.5 -177.5t131.5 -61.5q37 0 68.5 13.5t55.5 39t37 63t13 85.5v295h108v-27q0 -11 4.5 -22t11.5 -20.5t18.5 -14.5t24.5 -5zM655 571q0 51 51 51q24 0 37 -13t13 -38t-13 -38t-37 -13q-25 0 -38 12t-13 39zM774 571q0 25 13 38t37 13
q51 0 51 -51q0 -27 -13 -39t-38 -12q-24 0 -37 13t-13 38zM714 681q0 28 13 39.5t38 11.5t38 -11.5t13 -39.5q0 -25 -13.5 -38t-37.5 -13t-37.5 13t-13.5 38z" />
    <glyph glyph-name="uniFEE8_uniFB9F.liga" unicode="&#xfee8;&#xfb9f;" horiz-adv-x="880" 
d="M659 224q25 0 42 20.5t17 51.5v140h108v-254q0 -33 11.5 -52t42.5 -19v-111q-31 0 -57.5 5t-46 19t-32.5 36.5t-17 56.5l-4 23h-3q-10 -17 -26.5 -25t-32.5 -8q-15 0 -31.5 8t-24.5 25h-3v-131q0 -68 -22 -124.5t-60 -96t-89.5 -61.5t-112.5 -22q-135 0 -207.5 91
t-72.5 256v104h102v-100q0 -116 46.5 -177.5t131.5 -61.5q37 0 68.5 13.5t55.5 39t37 63t13 85.5v295h108v-27q0 -11 4.5 -22t11.5 -20.5t18.5 -14.5t24.5 -5zM719 620q0 52 52 52t52 -52q0 -53 -52 -53t-52 53z" />
    <glyph glyph-name="uniFEF4_uniFB9F.liga" unicode="&#xfef4;&#xfb9f;" horiz-adv-x="880" 
d="M659 224q25 0 42 20.5t17 51.5v140h108v-254q0 -33 11.5 -52t42.5 -19v-111q-31 0 -57.5 5t-46 19t-32.5 36.5t-17 56.5l-4 23h-3q-10 -17 -26.5 -25t-32.5 -8q-15 0 -31.5 8t-24.5 25h-3v-131q0 -68 -22 -124.5t-60 -96t-89.5 -61.5t-112.5 -22q-135 0 -207.5 91
t-72.5 256v104h102v-100q0 -116 46.5 -177.5t131.5 -61.5q37 0 68.5 13.5t55.5 39t37 63t13 85.5v295h108v-27q0 -11 4.5 -22t11.5 -20.5t18.5 -14.5t24.5 -5zM654 -202q0 51 49 51q24 0 37.5 -13t13.5 -38t-13.5 -37.5t-37.5 -12.5q-23 0 -36 12t-13 38zM768 -202
q0 25 13.5 38t37.5 13q49 0 49 -51q0 -26 -13 -38t-36 -12q-24 0 -37.5 12.5t-13.5 37.5z" />
    <glyph glyph-name="uniFB69_uniFB9F.liga" unicode="&#xfb69;&#xfb9f;" horiz-adv-x="880" 
d="M659 224q25 0 42 20.5t17 51.5v140h108v-254q0 -33 11.5 -52t42.5 -19v-111q-31 0 -57.5 5t-46 19t-32.5 36.5t-17 56.5l-4 23h-3q-10 -17 -26.5 -25t-32.5 -8q-15 0 -31.5 8t-24.5 25h-3v-131q0 -68 -22 -124.5t-60 -96t-89.5 -61.5t-112.5 -22q-135 0 -207.5 91
t-72.5 256v104h102v-100q0 -116 46.5 -177.5t131.5 -61.5q37 0 68.5 13.5t55.5 39t37 63t13 85.5v295h108v-27q0 -11 4.5 -22t11.5 -20.5t18.5 -14.5t24.5 -5zM672 533v38h34v123h37v-54q0 -5 -1 -12t-3 -14l2 -1l9 12q12 15 26 22.5t29 7.5q20 0 37.5 -14.5t17.5 -49.5v-58
h-188zM824 587q0 13 -4.5 21t-15.5 8q-10 0 -17.5 -6t-16.5 -17l-20 -22h74v16z" />
    <glyph glyph-name="uniFB59_uniFB9F.liga" unicode="&#xfb59;&#xfb9f;" horiz-adv-x="880" 
d="M659 224q25 0 42 20.5t17 51.5v140h108v-254q0 -33 11.5 -52t42.5 -19v-111q-31 0 -57.5 5t-46 19t-32.5 36.5t-17 56.5l-4 23h-3q-10 -17 -26.5 -25t-32.5 -8q-15 0 -31.5 8t-24.5 25h-3v-131q0 -68 -22 -124.5t-60 -96t-89.5 -61.5t-112.5 -22q-135 0 -207.5 91
t-72.5 256v104h102v-100q0 -116 46.5 -177.5t131.5 -61.5q37 0 68.5 13.5t55.5 39t37 63t13 85.5v295h108v-27q0 -11 4.5 -22t11.5 -20.5t18.5 -14.5t24.5 -5zM872 -201q0 -52 -51 -52q-24 0 -37 13.5t-13 38.5t13 37.5t37 12.5q25 0 38 -12t13 -38zM753 -201
q0 -25 -13 -38.5t-37 -13.5q-51 0 -51 52q0 26 13 38t38 12q24 0 37 -12.5t13 -37.5zM813 -311q0 -28 -13 -39.5t-38 -11.5t-38 11.5t-13 39.5q0 23 13.5 37t37.5 14t37.5 -14t13.5 -37z" />
    <glyph glyph-name="uniFBFF_uniFB9F.liga" unicode="&#xfbff;&#xfb9f;" horiz-adv-x="880" 
d="M659 224q25 0 42 20.5t17 51.5v140h108v-254q0 -33 11.5 -52t42.5 -19v-111q-31 0 -57.5 5t-46 19t-32.5 36.5t-17 56.5l-4 23h-3q-10 -17 -26.5 -25t-32.5 -8q-15 0 -31.5 8t-24.5 25h-3v-131q0 -68 -22 -124.5t-60 -96t-89.5 -61.5t-112.5 -22q-135 0 -207.5 91
t-72.5 256v104h102v-100q0 -116 46.5 -177.5t131.5 -61.5q37 0 68.5 13.5t55.5 39t37 63t13 85.5v295h108v-27q0 -11 4.5 -22t11.5 -20.5t18.5 -14.5t24.5 -5zM654 -202q0 51 49 51q24 0 37.5 -13t13.5 -38t-13.5 -37.5t-37.5 -12.5q-23 0 -36 12t-13 38zM768 -202
q0 25 13.5 38t37.5 13q49 0 49 -51q0 -26 -13 -38t-36 -12q-24 0 -37.5 12.5t-13.5 37.5z" />
    <glyph glyph-name="uniFE8C_uniFE8A.liga" unicode="&#xfe8c;&#xfe8a;" horiz-adv-x="879" 
d="M715 0v310h-18q-24 0 -41.5 -8.5t-29.5 -22.5t-18 -33t-6 -40v-196q0 -69 -22 -125.5t-60 -96t-89.5 -61.5t-112.5 -22q-135 0 -207.5 91t-72.5 256v104h102v-100q0 -116 46.5 -177.5t131.5 -61.5q37 0 68.5 13.5t55.5 39t37 63t13 85.5v186q0 47 16 87t43.5 69.5
t65 45.5t81.5 16h127v-311h54v-111h-164zM39 207v72q0 47 29 77t75 30h44v-49h-44q-24 0 -40.5 -16t-16.5 -42v-22h101v-50h-148zM677 527v72q0 47 29 77t75 30h44v-49h-44q-24 0 -40.5 -16t-16.5 -42v-22h101v-50h-148z" />
    <glyph glyph-name="uniFE92_uniFE8A.liga" unicode="&#xfe92;&#xfe8a;" horiz-adv-x="879" 
d="M715 0v310h-18q-24 0 -41.5 -8.5t-29.5 -22.5t-18 -33t-6 -40v-196q0 -69 -22 -125.5t-60 -96t-89.5 -61.5t-112.5 -22q-135 0 -207.5 91t-72.5 256v104h102v-100q0 -116 46.5 -177.5t131.5 -61.5q37 0 68.5 13.5t55.5 39t37 63t13 85.5v186q0 47 16 87t43.5 69.5
t65 45.5t81.5 16h127v-311h54v-111h-164zM697 -149q0 52 52 52t52 -52q0 -53 -52 -53t-52 53zM39 207v72q0 47 29 77t75 30h44v-49h-44q-24 0 -40.5 -16t-16.5 -42v-22h101v-50h-148z" />
    <glyph glyph-name="uniFE98_uniFE8A.liga" unicode="&#xfe98;&#xfe8a;" horiz-adv-x="879" 
d="M715 0v310h-18q-24 0 -41.5 -8.5t-29.5 -22.5t-18 -33t-6 -40v-196q0 -69 -22 -125.5t-60 -96t-89.5 -61.5t-112.5 -22q-135 0 -207.5 91t-72.5 256v104h102v-100q0 -116 46.5 -177.5t131.5 -61.5q37 0 68.5 13.5t55.5 39t37 63t13 85.5v186q0 47 16 87t43.5 69.5
t65 45.5t81.5 16h127v-311h54v-111h-164zM615 620q0 51 49 51q24 0 37.5 -13t13.5 -38t-13.5 -37.5t-37.5 -12.5q-23 0 -36 12t-13 38zM729 620q0 25 13.5 38t37.5 13q49 0 49 -51q0 -26 -13 -38t-36 -12q-24 0 -37.5 12.5t-13.5 37.5zM39 207v72q0 47 29 77t75 30h44v-49
h-44q-24 0 -40.5 -16t-16.5 -42v-22h101v-50h-148z" />
    <glyph glyph-name="uniFE9C_uniFE8A.liga" unicode="&#xfe9c;&#xfe8a;" horiz-adv-x="879" 
d="M715 0v310h-18q-24 0 -41.5 -8.5t-29.5 -22.5t-18 -33t-6 -40v-196q0 -69 -22 -125.5t-60 -96t-89.5 -61.5t-112.5 -22q-135 0 -207.5 91t-72.5 256v104h102v-100q0 -116 46.5 -177.5t131.5 -61.5q37 0 68.5 13.5t55.5 39t37 63t13 85.5v186q0 47 16 87t43.5 69.5
t65 45.5t81.5 16h127v-311h54v-111h-164zM610 571q0 51 51 51q24 0 37 -13t13 -38t-13 -38t-37 -13q-25 0 -38 12t-13 39zM729 571q0 25 13 38t37 13q51 0 51 -51q0 -27 -13 -39t-38 -12q-24 0 -37 13t-13 38zM669 681q0 28 13 39.5t38 11.5t38 -11.5t13 -39.5
q0 -25 -13.5 -38t-37.5 -13t-37.5 13t-13.5 38zM39 207v72q0 47 29 77t75 30h44v-49h-44q-24 0 -40.5 -16t-16.5 -42v-22h101v-50h-148z" />
    <glyph glyph-name="uniFEE8_uniFE8A.liga" unicode="&#xfee8;&#xfe8a;" horiz-adv-x="879" 
d="M715 0v310h-18q-24 0 -41.5 -8.5t-29.5 -22.5t-18 -33t-6 -40v-196q0 -69 -22 -125.5t-60 -96t-89.5 -61.5t-112.5 -22q-135 0 -207.5 91t-72.5 256v104h102v-100q0 -116 46.5 -177.5t131.5 -61.5q37 0 68.5 13.5t55.5 39t37 63t13 85.5v186q0 47 16 87t43.5 69.5
t65 45.5t81.5 16h127v-311h54v-111h-164zM709 620q0 52 52 52t52 -52q0 -53 -52 -53t-52 53zM39 207v72q0 47 29 77t75 30h44v-49h-44q-24 0 -40.5 -16t-16.5 -42v-22h101v-50h-148z" />
    <glyph glyph-name="uniFBE9_uniFE8A.liga" unicode="&#xfbe9;&#xfe8a;" horiz-adv-x="879" 
d="M715 0v310h-18q-24 0 -41.5 -8.5t-29.5 -22.5t-18 -33t-6 -40v-196q0 -69 -22 -125.5t-60 -96t-89.5 -61.5t-112.5 -22q-135 0 -207.5 91t-72.5 256v104h102v-100q0 -116 46.5 -177.5t131.5 -61.5q37 0 68.5 13.5t55.5 39t37 63t13 85.5v186q0 47 16 87t43.5 69.5
t65 45.5t81.5 16h127v-311h54v-111h-164zM39 207v72q0 47 29 77t75 30h44v-49h-44q-24 0 -40.5 -16t-16.5 -42v-22h101v-50h-148z" />
    <glyph glyph-name="uniFEF4_uniFE8A.liga" unicode="&#xfef4;&#xfe8a;" horiz-adv-x="917" 
d="M715 0v310h-18q-24 0 -41.5 -8.5t-29.5 -22.5t-18 -33t-6 -40v-196q0 -69 -22 -125.5t-60 -96t-89.5 -61.5t-112.5 -22q-135 0 -207.5 91t-72.5 256v104h102v-100q0 -116 46.5 -177.5t131.5 -61.5q37 0 68.5 13.5t55.5 39t37 63t13 85.5v186q0 47 16 87t43.5 69.5
t65 45.5t81.5 16h127v-311h92v-111h-202zM666 -151q0 51 49 51q24 0 37.5 -13t13.5 -38t-13.5 -37.5t-37.5 -12.5q-23 0 -36 12t-13 38zM780 -151q0 25 13.5 38t37.5 13q49 0 49 -51q0 -26 -13 -38t-36 -12q-24 0 -37.5 12.5t-13.5 37.5zM39 207v72q0 47 29 77t75 30h44v-49
h-44q-24 0 -40.5 -16t-16.5 -42v-22h101v-50h-148z" />
    <glyph glyph-name="uniFB69_uniFE8A.liga" unicode="&#xfb69;&#xfe8a;" horiz-adv-x="879" 
d="M715 0v310h-18q-24 0 -41.5 -8.5t-29.5 -22.5t-18 -33t-6 -40v-196q0 -69 -22 -125.5t-60 -96t-89.5 -61.5t-112.5 -22q-135 0 -207.5 91t-72.5 256v104h102v-100q0 -116 46.5 -177.5t131.5 -61.5q37 0 68.5 13.5t55.5 39t37 63t13 85.5v186q0 47 16 87t43.5 69.5
t65 45.5t81.5 16h127v-311h54v-111h-164zM635 533v38h34v123h37v-54q0 -5 -1 -12t-3 -14l2 -1l9 12q12 15 26 22.5t29 7.5q20 0 37.5 -14.5t17.5 -49.5v-58h-188zM787 587q0 13 -4.5 21t-15.5 8q-10 0 -17.5 -6t-16.5 -17l-20 -22h74v16zM39 207v72q0 47 29 77t75 30h44v-49
h-44q-24 0 -40.5 -16t-16.5 -42v-22h101v-50h-148z" />
    <glyph glyph-name="uniFB59_uniFE8A.liga" unicode="&#xfb59;&#xfe8a;" horiz-adv-x="917" 
d="M715 0v310h-18q-24 0 -41.5 -8.5t-29.5 -22.5t-18 -33t-6 -40v-196q0 -69 -22 -125.5t-60 -96t-89.5 -61.5t-112.5 -22q-135 0 -207.5 91t-72.5 256v104h102v-100q0 -116 46.5 -177.5t131.5 -61.5q37 0 68.5 13.5t55.5 39t37 63t13 85.5v186q0 47 16 87t43.5 69.5
t65 45.5t81.5 16h127v-311h92v-111h-202zM881 -139q0 -52 -51 -52q-24 0 -37 13.5t-13 38.5t13 37.5t37 12.5q25 0 38 -12t13 -38zM762 -139q0 -25 -13 -38.5t-37 -13.5q-51 0 -51 52q0 26 13 38t38 12q24 0 37 -12.5t13 -37.5zM822 -249q0 -28 -13 -39.5t-38 -11.5
t-38 11.5t-13 39.5q0 23 13.5 37t37.5 14t37.5 -14t13.5 -37zM39 207v72q0 47 29 77t75 30h44v-49h-44q-24 0 -40.5 -16t-16.5 -42v-22h101v-50h-148z" />
    <glyph glyph-name="uniFBFF_uniFE8A.liga" unicode="&#xfbff;&#xfe8a;" horiz-adv-x="917" 
d="M715 0v310h-18q-24 0 -41.5 -8.5t-29.5 -22.5t-18 -33t-6 -40v-196q0 -69 -22 -125.5t-60 -96t-89.5 -61.5t-112.5 -22q-135 0 -207.5 91t-72.5 256v104h102v-100q0 -116 46.5 -177.5t131.5 -61.5q37 0 68.5 13.5t55.5 39t37 63t13 85.5v186q0 47 16 87t43.5 69.5
t65 45.5t81.5 16h127v-311h92v-111h-202zM39 207v72q0 47 29 77t75 30h44v-49h-44q-24 0 -40.5 -16t-16.5 -42v-22h101v-50h-148zM666 -151q0 51 49 51q24 0 37.5 -13t13.5 -38t-13.5 -37.5t-37.5 -12.5q-23 0 -36 12t-13 38zM780 -151q0 25 13.5 38t37.5 13q49 0 49 -51
q0 -26 -13 -38t-36 -12q-24 0 -37.5 12.5t-13.5 37.5z" />
    <glyph glyph-name="uniFE8C_uniFEF0.liga" unicode="&#xfe8c;&#xfef0;" horiz-adv-x="879" 
d="M715 0v310h-18q-24 0 -41.5 -8.5t-29.5 -22.5t-18 -33t-6 -40v-196q0 -69 -22 -125.5t-60 -96t-89.5 -61.5t-112.5 -22q-135 0 -207.5 91t-72.5 256v104h102v-100q0 -116 46.5 -177.5t131.5 -61.5q37 0 68.5 13.5t55.5 39t37 63t13 85.5v186q0 47 16 87t43.5 69.5
t65 45.5t81.5 16h127v-311h54v-111h-164zM677 527v72q0 47 29 77t75 30h44v-49h-44q-24 0 -40.5 -16t-16.5 -42v-22h101v-50h-148z" />
    <glyph glyph-name="uniFE92_uniFEF0.liga" unicode="&#xfe92;&#xfef0;" horiz-adv-x="879" 
d="M715 0v310h-18q-24 0 -41.5 -8.5t-29.5 -22.5t-18 -33t-6 -40v-196q0 -69 -22 -125.5t-60 -96t-89.5 -61.5t-112.5 -22q-135 0 -207.5 91t-72.5 256v104h102v-100q0 -116 46.5 -177.5t131.5 -61.5q37 0 68.5 13.5t55.5 39t37 63t13 85.5v186q0 47 16 87t43.5 69.5
t65 45.5t81.5 16h127v-311h54v-111h-164zM697 -149q0 52 52 52t52 -52q0 -53 -52 -53t-52 53z" />
    <glyph glyph-name="uniFE98_uniFEF0.liga" unicode="&#xfe98;&#xfef0;" horiz-adv-x="879" 
d="M715 0v310h-18q-24 0 -41.5 -8.5t-29.5 -22.5t-18 -33t-6 -40v-196q0 -69 -22 -125.5t-60 -96t-89.5 -61.5t-112.5 -22q-135 0 -207.5 91t-72.5 256v104h102v-100q0 -116 46.5 -177.5t131.5 -61.5q37 0 68.5 13.5t55.5 39t37 63t13 85.5v186q0 47 16 87t43.5 69.5
t65 45.5t81.5 16h127v-311h54v-111h-164zM615 620q0 51 49 51q24 0 37.5 -13t13.5 -38t-13.5 -37.5t-37.5 -12.5q-23 0 -36 12t-13 38zM729 620q0 25 13.5 38t37.5 13q49 0 49 -51q0 -26 -13 -38t-36 -12q-24 0 -37.5 12.5t-13.5 37.5z" />
    <glyph glyph-name="uniFE9C_uniFEF0.liga" unicode="&#xfe9c;&#xfef0;" horiz-adv-x="879" 
d="M715 0v310h-18q-24 0 -41.5 -8.5t-29.5 -22.5t-18 -33t-6 -40v-196q0 -69 -22 -125.5t-60 -96t-89.5 -61.5t-112.5 -22q-135 0 -207.5 91t-72.5 256v104h102v-100q0 -116 46.5 -177.5t131.5 -61.5q37 0 68.5 13.5t55.5 39t37 63t13 85.5v186q0 47 16 87t43.5 69.5
t65 45.5t81.5 16h127v-311h54v-111h-164zM610 571q0 51 51 51q24 0 37 -13t13 -38t-13 -38t-37 -13q-25 0 -38 12t-13 39zM729 571q0 25 13 38t37 13q51 0 51 -51q0 -27 -13 -39t-38 -12q-24 0 -37 13t-13 38zM669 681q0 28 13 39.5t38 11.5t38 -11.5t13 -39.5
q0 -25 -13.5 -38t-37.5 -13t-37.5 13t-13.5 38z" />
    <glyph glyph-name="uniFEE8_uniFEF0.liga" unicode="&#xfee8;&#xfef0;" horiz-adv-x="879" 
d="M715 0v310h-18q-24 0 -41.5 -8.5t-29.5 -22.5t-18 -33t-6 -40v-196q0 -69 -22 -125.5t-60 -96t-89.5 -61.5t-112.5 -22q-135 0 -207.5 91t-72.5 256v104h102v-100q0 -116 46.5 -177.5t131.5 -61.5q37 0 68.5 13.5t55.5 39t37 63t13 85.5v186q0 47 16 87t43.5 69.5
t65 45.5t81.5 16h127v-311h54v-111h-164zM709 620q0 52 52 52t52 -52q0 -53 -52 -53t-52 53z" />
    <glyph glyph-name="uniFBE9_uniFEF0.liga" unicode="&#xfbe9;&#xfef0;" horiz-adv-x="879" 
d="M715 0v310h-18q-24 0 -41.5 -8.5t-29.5 -22.5t-18 -33t-6 -40v-196q0 -69 -22 -125.5t-60 -96t-89.5 -61.5t-112.5 -22q-135 0 -207.5 91t-72.5 256v104h102v-100q0 -116 46.5 -177.5t131.5 -61.5q37 0 68.5 13.5t55.5 39t37 63t13 85.5v186q0 47 16 87t43.5 69.5
t65 45.5t81.5 16h127v-311h54v-111h-164z" />
    <glyph glyph-name="uniFEF4_uniFEF0.liga" unicode="&#xfef4;&#xfef0;" horiz-adv-x="917" 
d="M715 0v310h-18q-24 0 -41.5 -8.5t-29.5 -22.5t-18 -33t-6 -40v-196q0 -69 -22 -125.5t-60 -96t-89.5 -61.5t-112.5 -22q-135 0 -207.5 91t-72.5 256v104h102v-100q0 -116 46.5 -177.5t131.5 -61.5q37 0 68.5 13.5t55.5 39t37 63t13 85.5v186q0 47 16 87t43.5 69.5
t65 45.5t81.5 16h127v-311h92v-111h-202zM666 -151q0 51 49 51q24 0 37.5 -13t13.5 -38t-13.5 -37.5t-37.5 -12.5q-23 0 -36 12t-13 38zM780 -151q0 25 13.5 38t37.5 13q49 0 49 -51q0 -26 -13 -38t-36 -12q-24 0 -37.5 12.5t-13.5 37.5z" />
    <glyph glyph-name="uniFB69_uniFEF0.liga" unicode="&#xfb69;&#xfef0;" horiz-adv-x="879" 
d="M715 0v310h-18q-24 0 -41.5 -8.5t-29.5 -22.5t-18 -33t-6 -40v-196q0 -69 -22 -125.5t-60 -96t-89.5 -61.5t-112.5 -22q-135 0 -207.5 91t-72.5 256v104h102v-100q0 -116 46.5 -177.5t131.5 -61.5q37 0 68.5 13.5t55.5 39t37 63t13 85.5v186q0 47 16 87t43.5 69.5
t65 45.5t81.5 16h127v-311h54v-111h-164zM635 533v38h34v123h37v-54q0 -5 -1 -12t-3 -14l2 -1l9 12q12 15 26 22.5t29 7.5q20 0 37.5 -14.5t17.5 -49.5v-58h-188zM787 587q0 13 -4.5 21t-15.5 8q-10 0 -17.5 -6t-16.5 -17l-20 -22h74v16z" />
    <glyph glyph-name="uniFB59_uniFEF0.liga" unicode="&#xfb59;&#xfef0;" horiz-adv-x="917" 
d="M715 0v310h-18q-24 0 -41.5 -8.5t-29.5 -22.5t-18 -33t-6 -40v-196q0 -69 -22 -125.5t-60 -96t-89.5 -61.5t-112.5 -22q-135 0 -207.5 91t-72.5 256v104h102v-100q0 -116 46.5 -177.5t131.5 -61.5q37 0 68.5 13.5t55.5 39t37 63t13 85.5v186q0 47 16 87t43.5 69.5
t65 45.5t81.5 16h127v-311h92v-111h-202zM881 -139q0 -52 -51 -52q-24 0 -37 13.5t-13 38.5t13 37.5t37 12.5q25 0 38 -12t13 -38zM762 -139q0 -25 -13 -38.5t-37 -13.5q-51 0 -51 52q0 26 13 38t38 12q24 0 37 -12.5t13 -37.5zM822 -249q0 -28 -13 -39.5t-38 -11.5
t-38 11.5t-13 39.5q0 23 13.5 37t37.5 14t37.5 -14t13.5 -37z" />
    <glyph glyph-name="uniFBFF_uniFEF0.liga" unicode="&#xfbff;&#xfef0;" horiz-adv-x="917" 
d="M715 0v310h-18q-24 0 -41.5 -8.5t-29.5 -22.5t-18 -33t-6 -40v-196q0 -69 -22 -125.5t-60 -96t-89.5 -61.5t-112.5 -22q-135 0 -207.5 91t-72.5 256v104h102v-100q0 -116 46.5 -177.5t131.5 -61.5q37 0 68.5 13.5t55.5 39t37 63t13 85.5v186q0 47 16 87t43.5 69.5
t65 45.5t81.5 16h127v-311h92v-111h-202zM666 -151q0 51 49 51q24 0 37.5 -13t13.5 -38t-13.5 -37.5t-37.5 -12.5q-23 0 -36 12t-13 38zM780 -151q0 25 13.5 38t37.5 13q49 0 49 -51q0 -26 -13 -38t-36 -12q-24 0 -37.5 12.5t-13.5 37.5z" />
    <glyph glyph-name="uniFE8C_uniFEF2.liga" unicode="&#xfe8c;&#xfef2;" horiz-adv-x="879" 
d="M715 0v310h-18q-24 0 -41.5 -8.5t-29.5 -22.5t-18 -33t-6 -40v-196q0 -69 -22 -125.5t-60 -96t-89.5 -61.5t-112.5 -22q-135 0 -207.5 91t-72.5 256v104h102v-100q0 -116 46.5 -177.5t131.5 -61.5q37 0 68.5 13.5t55.5 39t37 63t13 85.5v186q0 47 16 87t43.5 69.5
t65 45.5t81.5 16h127v-311h54v-111h-164zM677 527v72q0 47 29 77t75 30h44v-49h-44q-24 0 -40.5 -16t-16.5 -42v-22h101v-50h-148zM223 -394q0 51 49 51q24 0 37.5 -13t13.5 -38t-13.5 -37.5t-37.5 -12.5q-23 0 -36 12t-13 38zM337 -394q0 25 13.5 38t37.5 13q49 0 49 -51
q0 -26 -13 -38t-36 -12q-24 0 -37.5 12.5t-13.5 37.5z" />
    <glyph glyph-name="uniFE92_uniFEF2.liga" unicode="&#xfe92;&#xfef2;" horiz-adv-x="879" 
d="M715 0v310h-18q-24 0 -41.5 -8.5t-29.5 -22.5t-18 -33t-6 -40v-196q0 -69 -22 -125.5t-60 -96t-89.5 -61.5t-112.5 -22q-135 0 -207.5 91t-72.5 256v104h102v-100q0 -116 46.5 -177.5t131.5 -61.5q37 0 68.5 13.5t55.5 39t37 63t13 85.5v186q0 47 16 87t43.5 69.5
t65 45.5t81.5 16h127v-311h54v-111h-164zM697 -149q0 52 52 52t52 -52q0 -53 -52 -53t-52 53zM223 -394q0 51 49 51q24 0 37.5 -13t13.5 -38t-13.5 -37.5t-37.5 -12.5q-23 0 -36 12t-13 38zM337 -394q0 25 13.5 38t37.5 13q49 0 49 -51q0 -26 -13 -38t-36 -12
q-24 0 -37.5 12.5t-13.5 37.5z" />
    <glyph glyph-name="uniFE98_uniFEF2.liga" unicode="&#xfe98;&#xfef2;" horiz-adv-x="879" 
d="M715 0v310h-18q-24 0 -41.5 -8.5t-29.5 -22.5t-18 -33t-6 -40v-196q0 -69 -22 -125.5t-60 -96t-89.5 -61.5t-112.5 -22q-135 0 -207.5 91t-72.5 256v104h102v-100q0 -116 46.5 -177.5t131.5 -61.5q37 0 68.5 13.5t55.5 39t37 63t13 85.5v186q0 47 16 87t43.5 69.5
t65 45.5t81.5 16h127v-311h54v-111h-164zM615 620q0 51 49 51q24 0 37.5 -13t13.5 -38t-13.5 -37.5t-37.5 -12.5q-23 0 -36 12t-13 38zM729 620q0 25 13.5 38t37.5 13q49 0 49 -51q0 -26 -13 -38t-36 -12q-24 0 -37.5 12.5t-13.5 37.5zM223 -394q0 51 49 51q24 0 37.5 -13
t13.5 -38t-13.5 -37.5t-37.5 -12.5q-23 0 -36 12t-13 38zM337 -394q0 25 13.5 38t37.5 13q49 0 49 -51q0 -26 -13 -38t-36 -12q-24 0 -37.5 12.5t-13.5 37.5z" />
    <glyph glyph-name="uniFE9C_uniFEF2.liga" unicode="&#xfe9c;&#xfef2;" horiz-adv-x="879" 
d="M715 0v310h-18q-24 0 -41.5 -8.5t-29.5 -22.5t-18 -33t-6 -40v-196q0 -69 -22 -125.5t-60 -96t-89.5 -61.5t-112.5 -22q-135 0 -207.5 91t-72.5 256v104h102v-100q0 -116 46.5 -177.5t131.5 -61.5q37 0 68.5 13.5t55.5 39t37 63t13 85.5v186q0 47 16 87t43.5 69.5
t65 45.5t81.5 16h127v-311h54v-111h-164zM610 571q0 51 51 51q24 0 37 -13t13 -38t-13 -38t-37 -13q-25 0 -38 12t-13 39zM729 571q0 25 13 38t37 13q51 0 51 -51q0 -27 -13 -39t-38 -12q-24 0 -37 13t-13 38zM669 681q0 28 13 39.5t38 11.5t38 -11.5t13 -39.5
q0 -25 -13.5 -38t-37.5 -13t-37.5 13t-13.5 38zM223 -394q0 51 49 51q24 0 37.5 -13t13.5 -38t-13.5 -37.5t-37.5 -12.5q-23 0 -36 12t-13 38zM337 -394q0 25 13.5 38t37.5 13q49 0 49 -51q0 -26 -13 -38t-36 -12q-24 0 -37.5 12.5t-13.5 37.5z" />
    <glyph glyph-name="uniFEE8_uniFEF2.liga" unicode="&#xfee8;&#xfef2;" horiz-adv-x="879" 
d="M715 0v310h-18q-24 0 -41.5 -8.5t-29.5 -22.5t-18 -33t-6 -40v-196q0 -69 -22 -125.5t-60 -96t-89.5 -61.5t-112.5 -22q-135 0 -207.5 91t-72.5 256v104h102v-100q0 -116 46.5 -177.5t131.5 -61.5q37 0 68.5 13.5t55.5 39t37 63t13 85.5v186q0 47 16 87t43.5 69.5
t65 45.5t81.5 16h127v-311h54v-111h-164zM709 620q0 52 52 52t52 -52q0 -53 -52 -53t-52 53zM223 -394q0 51 49 51q24 0 37.5 -13t13.5 -38t-13.5 -37.5t-37.5 -12.5q-23 0 -36 12t-13 38zM337 -394q0 25 13.5 38t37.5 13q49 0 49 -51q0 -26 -13 -38t-36 -12
q-24 0 -37.5 12.5t-13.5 37.5z" />
    <glyph glyph-name="uniFBE9_uniFEF2.liga" unicode="&#xfbe9;&#xfef2;" horiz-adv-x="879" 
d="M715 0v310h-18q-24 0 -41.5 -8.5t-29.5 -22.5t-18 -33t-6 -40v-196q0 -69 -22 -125.5t-60 -96t-89.5 -61.5t-112.5 -22q-135 0 -207.5 91t-72.5 256v104h102v-100q0 -116 46.5 -177.5t131.5 -61.5q37 0 68.5 13.5t55.5 39t37 63t13 85.5v186q0 47 16 87t43.5 69.5
t65 45.5t81.5 16h127v-311h54v-111h-164zM223 -394q0 51 49 51q24 0 37.5 -13t13.5 -38t-13.5 -37.5t-37.5 -12.5q-23 0 -36 12t-13 38zM337 -394q0 25 13.5 38t37.5 13q49 0 49 -51q0 -26 -13 -38t-36 -12q-24 0 -37.5 12.5t-13.5 37.5z" />
    <glyph glyph-name="uniFEF4_uniFEF2.liga" unicode="&#xfef4;&#xfef2;" horiz-adv-x="917" 
d="M715 0v310h-18q-24 0 -41.5 -8.5t-29.5 -22.5t-18 -33t-6 -40v-196q0 -69 -22 -125.5t-60 -96t-89.5 -61.5t-112.5 -22q-135 0 -207.5 91t-72.5 256v104h102v-100q0 -116 46.5 -177.5t131.5 -61.5q37 0 68.5 13.5t55.5 39t37 63t13 85.5v186q0 47 16 87t43.5 69.5
t65 45.5t81.5 16h127v-311h92v-111h-202zM223 -394q0 51 49 51q24 0 37.5 -13t13.5 -38t-13.5 -37.5t-37.5 -12.5q-23 0 -36 12t-13 38zM337 -394q0 25 13.5 38t37.5 13q49 0 49 -51q0 -26 -13 -38t-36 -12q-24 0 -37.5 12.5t-13.5 37.5zM666 -151q0 51 49 51q24 0 37.5 -13
t13.5 -38t-13.5 -37.5t-37.5 -12.5q-23 0 -36 12t-13 38zM780 -151q0 25 13.5 38t37.5 13q49 0 49 -51q0 -26 -13 -38t-36 -12q-24 0 -37.5 12.5t-13.5 37.5z" />
    <glyph glyph-name="uniFB69_uniFEF2.liga" unicode="&#xfb69;&#xfef2;" horiz-adv-x="879" 
d="M715 0v310h-18q-24 0 -41.5 -8.5t-29.5 -22.5t-18 -33t-6 -40v-196q0 -69 -22 -125.5t-60 -96t-89.5 -61.5t-112.5 -22q-135 0 -207.5 91t-72.5 256v104h102v-100q0 -116 46.5 -177.5t131.5 -61.5q37 0 68.5 13.5t55.5 39t37 63t13 85.5v186q0 47 16 87t43.5 69.5
t65 45.5t81.5 16h127v-311h54v-111h-164zM223 -394q0 51 49 51q24 0 37.5 -13t13.5 -38t-13.5 -37.5t-37.5 -12.5q-23 0 -36 12t-13 38zM337 -394q0 25 13.5 38t37.5 13q49 0 49 -51q0 -26 -13 -38t-36 -12q-24 0 -37.5 12.5t-13.5 37.5zM635 533v38h34v123h37v-54
q0 -5 -1 -12t-3 -14l2 -1l9 12q12 15 26 22.5t29 7.5q20 0 37.5 -14.5t17.5 -49.5v-58h-188zM787 587q0 13 -4.5 21t-15.5 8q-10 0 -17.5 -6t-16.5 -17l-20 -22h74v16z" />
    <glyph glyph-name="uniFB59_uniFEF2.liga" unicode="&#xfb59;&#xfef2;" horiz-adv-x="917" 
d="M715 0v310h-18q-24 0 -41.5 -8.5t-29.5 -22.5t-18 -33t-6 -40v-196q0 -69 -22 -125.5t-60 -96t-89.5 -61.5t-112.5 -22q-135 0 -207.5 91t-72.5 256v104h102v-100q0 -116 46.5 -177.5t131.5 -61.5q37 0 68.5 13.5t55.5 39t37 63t13 85.5v186q0 47 16 87t43.5 69.5
t65 45.5t81.5 16h127v-311h92v-111h-202zM881 -139q0 -52 -51 -52q-24 0 -37 13.5t-13 38.5t13 37.5t37 12.5q25 0 38 -12t13 -38zM762 -139q0 -25 -13 -38.5t-37 -13.5q-51 0 -51 52q0 26 13 38t38 12q24 0 37 -12.5t13 -37.5zM822 -249q0 -28 -13 -39.5t-38 -11.5
t-38 11.5t-13 39.5q0 23 13.5 37t37.5 14t37.5 -14t13.5 -37zM223 -394q0 51 49 51q24 0 37.5 -13t13.5 -38t-13.5 -37.5t-37.5 -12.5q-23 0 -36 12t-13 38zM337 -394q0 25 13.5 38t37.5 13q49 0 49 -51q0 -26 -13 -38t-36 -12q-24 0 -37.5 12.5t-13.5 37.5z" />
    <glyph glyph-name="uniFBFF_uniFEF2.liga" unicode="&#xfbff;&#xfef2;" horiz-adv-x="917" 
d="M715 0v310h-18q-24 0 -41.5 -8.5t-29.5 -22.5t-18 -33t-6 -40v-196q0 -69 -22 -125.5t-60 -96t-89.5 -61.5t-112.5 -22q-135 0 -207.5 91t-72.5 256v104h102v-100q0 -116 46.5 -177.5t131.5 -61.5q37 0 68.5 13.5t55.5 39t37 63t13 85.5v186q0 47 16 87t43.5 69.5
t65 45.5t81.5 16h127v-311h92v-111h-202zM223 -394q0 51 49 51q24 0 37.5 -13t13.5 -38t-13.5 -37.5t-37.5 -12.5q-23 0 -36 12t-13 38zM337 -394q0 25 13.5 38t37.5 13q49 0 49 -51q0 -26 -13 -38t-36 -12q-24 0 -37.5 12.5t-13.5 37.5zM666 -151q0 51 49 51q24 0 37.5 -13
t13.5 -38t-13.5 -37.5t-37.5 -12.5q-23 0 -36 12t-13 38zM780 -151q0 25 13.5 38t37.5 13q49 0 49 -51q0 -26 -13 -38t-36 -12q-24 0 -37.5 12.5t-13.5 37.5z" />
    <glyph glyph-name="uniFE8C_uniFBFD.liga" unicode="&#xfe8c;&#xfbfd;" horiz-adv-x="879" 
d="M715 0v310h-18q-24 0 -41.5 -8.5t-29.5 -22.5t-18 -33t-6 -40v-196q0 -69 -22 -125.5t-60 -96t-89.5 -61.5t-112.5 -22q-135 0 -207.5 91t-72.5 256v104h102v-100q0 -116 46.5 -177.5t131.5 -61.5q37 0 68.5 13.5t55.5 39t37 63t13 85.5v186q0 47 16 87t43.5 69.5
t65 45.5t81.5 16h127v-311h54v-111h-164zM677 527v72q0 47 29 77t75 30h44v-49h-44q-24 0 -40.5 -16t-16.5 -42v-22h101v-50h-148z" />
    <glyph glyph-name="uniFE92_uniFBFD.liga" unicode="&#xfe92;&#xfbfd;" horiz-adv-x="879" 
d="M715 0v310h-18q-24 0 -41.5 -8.5t-29.5 -22.5t-18 -33t-6 -40v-196q0 -69 -22 -125.5t-60 -96t-89.5 -61.5t-112.5 -22q-135 0 -207.5 91t-72.5 256v104h102v-100q0 -116 46.5 -177.5t131.5 -61.5q37 0 68.5 13.5t55.5 39t37 63t13 85.5v186q0 47 16 87t43.5 69.5
t65 45.5t81.5 16h127v-311h54v-111h-164zM697 -149q0 52 52 52t52 -52q0 -53 -52 -53t-52 53z" />
    <glyph glyph-name="uniFE98_uniFBFD.liga" unicode="&#xfe98;&#xfbfd;" horiz-adv-x="879" 
d="M715 0v310h-18q-24 0 -41.5 -8.5t-29.5 -22.5t-18 -33t-6 -40v-196q0 -69 -22 -125.5t-60 -96t-89.5 -61.5t-112.5 -22q-135 0 -207.5 91t-72.5 256v104h102v-100q0 -116 46.5 -177.5t131.5 -61.5q37 0 68.5 13.5t55.5 39t37 63t13 85.5v186q0 47 16 87t43.5 69.5
t65 45.5t81.5 16h127v-311h54v-111h-164zM615 620q0 51 49 51q24 0 37.5 -13t13.5 -38t-13.5 -37.5t-37.5 -12.5q-23 0 -36 12t-13 38zM729 620q0 25 13.5 38t37.5 13q49 0 49 -51q0 -26 -13 -38t-36 -12q-24 0 -37.5 12.5t-13.5 37.5z" />
    <glyph glyph-name="uniFE9C_uniFBFD.liga" unicode="&#xfe9c;&#xfbfd;" horiz-adv-x="879" 
d="M715 0v310h-18q-24 0 -41.5 -8.5t-29.5 -22.5t-18 -33t-6 -40v-196q0 -69 -22 -125.5t-60 -96t-89.5 -61.5t-112.5 -22q-135 0 -207.5 91t-72.5 256v104h102v-100q0 -116 46.5 -177.5t131.5 -61.5q37 0 68.5 13.5t55.5 39t37 63t13 85.5v186q0 47 16 87t43.5 69.5
t65 45.5t81.5 16h127v-311h54v-111h-164zM610 571q0 51 51 51q24 0 37 -13t13 -38t-13 -38t-37 -13q-25 0 -38 12t-13 39zM729 571q0 25 13 38t37 13q51 0 51 -51q0 -27 -13 -39t-38 -12q-24 0 -37 13t-13 38zM669 681q0 28 13 39.5t38 11.5t38 -11.5t13 -39.5
q0 -25 -13.5 -38t-37.5 -13t-37.5 13t-13.5 38z" />
    <glyph glyph-name="uniFEE8_uniFBFD.liga" unicode="&#xfee8;&#xfbfd;" horiz-adv-x="879" 
d="M715 0v310h-18q-24 0 -41.5 -8.5t-29.5 -22.5t-18 -33t-6 -40v-196q0 -69 -22 -125.5t-60 -96t-89.5 -61.5t-112.5 -22q-135 0 -207.5 91t-72.5 256v104h102v-100q0 -116 46.5 -177.5t131.5 -61.5q37 0 68.5 13.5t55.5 39t37 63t13 85.5v186q0 47 16 87t43.5 69.5
t65 45.5t81.5 16h127v-311h54v-111h-164zM709 620q0 52 52 52t52 -52q0 -53 -52 -53t-52 53z" />
    <glyph glyph-name="uniFBE9_uniFBFD.liga" unicode="&#xfbe9;&#xfbfd;" horiz-adv-x="879" 
d="M715 0v310h-18q-24 0 -41.5 -8.5t-29.5 -22.5t-18 -33t-6 -40v-196q0 -69 -22 -125.5t-60 -96t-89.5 -61.5t-112.5 -22q-135 0 -207.5 91t-72.5 256v104h102v-100q0 -116 46.5 -177.5t131.5 -61.5q37 0 68.5 13.5t55.5 39t37 63t13 85.5v186q0 47 16 87t43.5 69.5
t65 45.5t81.5 16h127v-311h54v-111h-164z" />
    <glyph glyph-name="uniFEF4_uniFBFD.liga" unicode="&#xfef4;&#xfbfd;" horiz-adv-x="917" 
d="M715 0v310h-18q-24 0 -41.5 -8.5t-29.5 -22.5t-18 -33t-6 -40v-196q0 -69 -22 -125.5t-60 -96t-89.5 -61.5t-112.5 -22q-135 0 -207.5 91t-72.5 256v104h102v-100q0 -116 46.5 -177.5t131.5 -61.5q37 0 68.5 13.5t55.5 39t37 63t13 85.5v186q0 47 16 87t43.5 69.5
t65 45.5t81.5 16h127v-311h92v-111h-202zM666 -151q0 51 49 51q24 0 37.5 -13t13.5 -38t-13.5 -37.5t-37.5 -12.5q-23 0 -36 12t-13 38zM780 -151q0 25 13.5 38t37.5 13q49 0 49 -51q0 -26 -13 -38t-36 -12q-24 0 -37.5 12.5t-13.5 37.5z" />
    <glyph glyph-name="uniFB69_uniFBFD.liga" unicode="&#xfb69;&#xfbfd;" horiz-adv-x="879" 
d="M715 0v310h-18q-24 0 -41.5 -8.5t-29.5 -22.5t-18 -33t-6 -40v-196q0 -69 -22 -125.5t-60 -96t-89.5 -61.5t-112.5 -22q-135 0 -207.5 91t-72.5 256v104h102v-100q0 -116 46.5 -177.5t131.5 -61.5q37 0 68.5 13.5t55.5 39t37 63t13 85.5v186q0 47 16 87t43.5 69.5
t65 45.5t81.5 16h127v-311h54v-111h-164zM635 533v38h34v123h37v-54q0 -5 -1 -12t-3 -14l2 -1l9 12q12 15 26 22.5t29 7.5q20 0 37.5 -14.5t17.5 -49.5v-58h-188zM787 587q0 13 -4.5 21t-15.5 8q-10 0 -17.5 -6t-16.5 -17l-20 -22h74v16z" />
    <glyph glyph-name="uniFB59_uniFBFD.liga" unicode="&#xfb59;&#xfbfd;" horiz-adv-x="917" 
d="M715 0v310h-18q-24 0 -41.5 -8.5t-29.5 -22.5t-18 -33t-6 -40v-196q0 -69 -22 -125.5t-60 -96t-89.5 -61.5t-112.5 -22q-135 0 -207.5 91t-72.5 256v104h102v-100q0 -116 46.5 -177.5t131.5 -61.5q37 0 68.5 13.5t55.5 39t37 63t13 85.5v186q0 47 16 87t43.5 69.5
t65 45.5t81.5 16h127v-311h92v-111h-202zM881 -139q0 -52 -51 -52q-24 0 -37 13.5t-13 38.5t13 37.5t37 12.5q25 0 38 -12t13 -38zM762 -139q0 -25 -13 -38.5t-37 -13.5q-51 0 -51 52q0 26 13 38t38 12q24 0 37 -12.5t13 -37.5zM822 -249q0 -28 -13 -39.5t-38 -11.5
t-38 11.5t-13 39.5q0 23 13.5 37t37.5 14t37.5 -14t13.5 -37z" />
    <glyph glyph-name="uniFBFF_uniFBFD.liga" unicode="&#xfbff;&#xfbfd;" horiz-adv-x="917" 
d="M715 0v310h-18q-24 0 -41.5 -8.5t-29.5 -22.5t-18 -33t-6 -40v-196q0 -69 -22 -125.5t-60 -96t-89.5 -61.5t-112.5 -22q-135 0 -207.5 91t-72.5 256v104h102v-100q0 -116 46.5 -177.5t131.5 -61.5q37 0 68.5 13.5t55.5 39t37 63t13 85.5v186q0 47 16 87t43.5 69.5
t65 45.5t81.5 16h127v-311h92v-111h-202zM666 -151q0 51 49 51q24 0 37.5 -13t13.5 -38t-13.5 -37.5t-37.5 -12.5q-23 0 -36 12t-13 38zM780 -151q0 25 13.5 38t37.5 13q49 0 49 -51q0 -26 -13 -38t-36 -12q-24 0 -37.5 12.5t-13.5 37.5z" />
    <glyph glyph-name="uniFEEC_uniFE8A.liga" unicode="&#xfeec;&#xfe8a;" 
d="M1075 0q-47 0 -73 -22.5t-26 -60.5q0 -27 10.5 -58t39.5 -61l-67 -86q-50 17 -94.5 45t-77.5 66t-52.5 87t-19.5 111v289h-18q-24 0 -41.5 -8.5t-29.5 -22.5t-18 -33t-6 -40v-197q0 -68 -22 -124.5t-60 -96t-89.5 -61.5t-112.5 -22q-135 0 -207.5 91t-72.5 256v104h102
v-98q0 -118 46.5 -179.5t131.5 -61.5q37 0 68.5 13.5t55.5 39t37 63t13 85.5v186q0 47 16 87t43.5 69.5t65 45.5t81.5 16h127v-393q0 -30 5.5 -54.5t14.5 -44t21.5 -35t28.5 -29.5l5 6q-9 15 -14.5 39t-5.5 47q0 41 17 70.5t44.5 47.5t62.5 26.5t71 8.5v-111zM39 207v72
q0 47 29 77t75 30h44v-49h-44q-24 0 -40.5 -16t-16.5 -42v-22h101v-50h-148z" />
    <glyph glyph-name="uniFEEC_uniFEF0.liga" unicode="&#xfeec;&#xfef0;" 
d="M1075 0q-47 0 -73 -22.5t-26 -60.5q0 -27 10.5 -58t39.5 -61l-67 -86q-50 17 -94.5 45t-77.5 66t-52.5 87t-19.5 111v289h-18q-24 0 -41.5 -8.5t-29.5 -22.5t-18 -33t-6 -40v-197q0 -68 -22 -124.5t-60 -96t-89.5 -61.5t-112.5 -22q-135 0 -207.5 91t-72.5 256v104h102
v-98q0 -118 46.5 -179.5t131.5 -61.5q37 0 68.5 13.5t55.5 39t37 63t13 85.5v186q0 47 16 87t43.5 69.5t65 45.5t81.5 16h127v-393q0 -30 5.5 -54.5t14.5 -44t21.5 -35t28.5 -29.5l5 6q-9 15 -14.5 39t-5.5 47q0 41 17 70.5t44.5 47.5t62.5 26.5t71 8.5v-111z" />
    <glyph glyph-name="uniFEEC_uniFEF2.liga" unicode="&#xfeec;&#xfef2;" 
d="M1075 0q-47 0 -73 -22.5t-26 -60.5q0 -27 10.5 -58t39.5 -61l-67 -86q-50 17 -94.5 45t-77.5 66t-52.5 87t-19.5 111v289h-18q-24 0 -41.5 -8.5t-29.5 -22.5t-18 -33t-6 -40v-197q0 -68 -22 -124.5t-60 -96t-89.5 -61.5t-112.5 -22q-135 0 -207.5 91t-72.5 256v104h102
v-98q0 -118 46.5 -179.5t131.5 -61.5q37 0 68.5 13.5t55.5 39t37 63t13 85.5v186q0 47 16 87t43.5 69.5t65 45.5t81.5 16h127v-393q0 -30 5.5 -54.5t14.5 -44t21.5 -35t28.5 -29.5l5 6q-9 15 -14.5 39t-5.5 47q0 41 17 70.5t44.5 47.5t62.5 26.5t71 8.5v-111zM223 -394
q0 51 49 51q24 0 37.5 -13t13.5 -38t-13.5 -37.5t-37.5 -12.5q-23 0 -36 12t-13 38zM337 -394q0 25 13.5 38t37.5 13q49 0 49 -51q0 -26 -13 -38t-36 -12q-24 0 -37.5 12.5t-13.5 37.5z" />
    <glyph glyph-name="uniFEEC_uniFBFD.liga" unicode="&#xfeec;&#xfbfd;" 
d="M1075 0q-47 0 -73 -22.5t-26 -60.5q0 -27 10.5 -58t39.5 -61l-67 -86q-50 17 -94.5 45t-77.5 66t-52.5 87t-19.5 111v289h-18q-24 0 -41.5 -8.5t-29.5 -22.5t-18 -33t-6 -40v-197q0 -68 -22 -124.5t-60 -96t-89.5 -61.5t-112.5 -22q-135 0 -207.5 91t-72.5 256v104h102
v-98q0 -118 46.5 -179.5t131.5 -61.5q37 0 68.5 13.5t55.5 39t37 63t13 85.5v186q0 47 16 87t43.5 69.5t65 45.5t81.5 16h127v-393q0 -30 5.5 -54.5t14.5 -44t21.5 -35t28.5 -29.5l5 6q-9 15 -14.5 39t-5.5 47q0 41 17 70.5t44.5 47.5t62.5 26.5t71 8.5v-111z" />
    <glyph glyph-name="uniFEEC_uniFE8C_uniFE8A.liga" unicode="&#xfeec;&#xfe8c;&#xfe8a;" 
d="M1075 0q-47 0 -73 -22.5t-26 -60.5q0 -27 10.5 -58t39.5 -61l-67 -86q-50 17 -94.5 45t-77.5 66t-52.5 87t-19.5 111v289h-18q-24 0 -41.5 -8.5t-29.5 -22.5t-18 -33t-6 -40v-197q0 -68 -22 -124.5t-60 -96t-89.5 -61.5t-112.5 -22q-135 0 -207.5 91t-72.5 256v104h102
v-98q0 -118 46.5 -179.5t131.5 -61.5q37 0 68.5 13.5t55.5 39t37 63t13 85.5v186q0 47 16 87t43.5 69.5t65 45.5t81.5 16h127v-393q0 -30 5.5 -54.5t14.5 -44t21.5 -35t28.5 -29.5l5 6q-9 15 -14.5 39t-5.5 47q0 41 17 70.5t44.5 47.5t62.5 26.5t71 8.5v-111zM677 527v72
q0 47 29 77t75 30h44v-49h-44q-24 0 -40.5 -16t-16.5 -42v-22h101v-50h-148zM39 207v72q0 47 29 77t75 30h44v-49h-44q-24 0 -40.5 -16t-16.5 -42v-22h101v-50h-148z" />
    <glyph glyph-name="uniFEEC_uniFE92_uniFE8A.liga" unicode="&#xfeec;&#xfe92;&#xfe8a;" 
d="M1075 0q-47 0 -73 -22.5t-26 -60.5q0 -27 10.5 -58t39.5 -61l-67 -86q-50 17 -94.5 45t-77.5 66t-52.5 87t-19.5 111v289h-18q-24 0 -41.5 -8.5t-29.5 -22.5t-18 -33t-6 -40v-197q0 -68 -22 -124.5t-60 -96t-89.5 -61.5t-112.5 -22q-135 0 -207.5 91t-72.5 256v104h102
v-98q0 -118 46.5 -179.5t131.5 -61.5q37 0 68.5 13.5t55.5 39t37 63t13 85.5v186q0 47 16 87t43.5 69.5t65 45.5t81.5 16h127v-393q0 -30 5.5 -54.5t14.5 -44t21.5 -35t28.5 -29.5l5 6q-9 15 -14.5 39t-5.5 47q0 41 17 70.5t44.5 47.5t62.5 26.5t71 8.5v-111zM623 -179
q0 49 48 49t48 -49q0 -48 -48 -48t-48 48zM39 207v72q0 47 29 77t75 30h44v-49h-44q-24 0 -40.5 -16t-16.5 -42v-22h101v-50h-148z" />
    <glyph glyph-name="uniFEEC_uniFE98_uniFE8A.liga" unicode="&#xfeec;&#xfe98;&#xfe8a;" 
d="M1075 0q-47 0 -73 -22.5t-26 -60.5q0 -27 10.5 -58t39.5 -61l-67 -86q-50 17 -94.5 45t-77.5 66t-52.5 87t-19.5 111v289h-18q-24 0 -41.5 -8.5t-29.5 -22.5t-18 -33t-6 -40v-197q0 -68 -22 -124.5t-60 -96t-89.5 -61.5t-112.5 -22q-135 0 -207.5 91t-72.5 256v104h102
v-98q0 -118 46.5 -179.5t131.5 -61.5q37 0 68.5 13.5t55.5 39t37 63t13 85.5v186q0 47 16 87t43.5 69.5t65 45.5t81.5 16h127v-393q0 -30 5.5 -54.5t14.5 -44t21.5 -35t28.5 -29.5l5 6q-9 15 -14.5 39t-5.5 47q0 41 17 70.5t44.5 47.5t62.5 26.5t71 8.5v-111zM615 620
q0 51 49 51q24 0 37.5 -13t13.5 -38t-13.5 -37.5t-37.5 -12.5q-23 0 -36 12t-13 38zM729 620q0 25 13.5 38t37.5 13q49 0 49 -51q0 -26 -13 -38t-36 -12q-24 0 -37.5 12.5t-13.5 37.5zM39 207v72q0 47 29 77t75 30h44v-49h-44q-24 0 -40.5 -16t-16.5 -42v-22h101v-50h-148z
" />
    <glyph glyph-name="uniFEEC_uniFE9C_uniFE8A.liga" unicode="&#xfeec;&#xfe9c;&#xfe8a;" 
d="M1075 0q-47 0 -73 -22.5t-26 -60.5q0 -27 10.5 -58t39.5 -61l-67 -86q-50 17 -94.5 45t-77.5 66t-52.5 87t-19.5 111v289h-18q-24 0 -41.5 -8.5t-29.5 -22.5t-18 -33t-6 -40v-197q0 -68 -22 -124.5t-60 -96t-89.5 -61.5t-112.5 -22q-135 0 -207.5 91t-72.5 256v104h102
v-98q0 -118 46.5 -179.5t131.5 -61.5q37 0 68.5 13.5t55.5 39t37 63t13 85.5v186q0 47 16 87t43.5 69.5t65 45.5t81.5 16h127v-393q0 -30 5.5 -54.5t14.5 -44t21.5 -35t28.5 -29.5l5 6q-9 15 -14.5 39t-5.5 47q0 41 17 70.5t44.5 47.5t62.5 26.5t71 8.5v-111zM610 571
q0 51 51 51q24 0 37 -13t13 -38t-13 -38t-37 -13q-25 0 -38 12t-13 39zM729 571q0 25 13 38t37 13q51 0 51 -51q0 -27 -13 -39t-38 -12q-24 0 -37 13t-13 38zM669 681q0 28 13 39.5t38 11.5t38 -11.5t13 -39.5q0 -25 -13.5 -38t-37.5 -13t-37.5 13t-13.5 38zM39 207v72
q0 47 29 77t75 30h44v-49h-44q-24 0 -40.5 -16t-16.5 -42v-22h101v-50h-148z" />
    <glyph glyph-name="uniFEEC_uniFEE8_uniFE8A.liga" unicode="&#xfeec;&#xfee8;&#xfe8a;" 
d="M1075 0q-47 0 -73 -22.5t-26 -60.5q0 -27 10.5 -58t39.5 -61l-67 -86q-50 17 -94.5 45t-77.5 66t-52.5 87t-19.5 111v289h-18q-24 0 -41.5 -8.5t-29.5 -22.5t-18 -33t-6 -40v-197q0 -68 -22 -124.5t-60 -96t-89.5 -61.5t-112.5 -22q-135 0 -207.5 91t-72.5 256v104h102
v-98q0 -118 46.5 -179.5t131.5 -61.5q37 0 68.5 13.5t55.5 39t37 63t13 85.5v186q0 47 16 87t43.5 69.5t65 45.5t81.5 16h127v-393q0 -30 5.5 -54.5t14.5 -44t21.5 -35t28.5 -29.5l5 6q-9 15 -14.5 39t-5.5 47q0 41 17 70.5t44.5 47.5t62.5 26.5t71 8.5v-111zM709 620
q0 52 52 52t52 -52q0 -53 -52 -53t-52 53zM39 207v72q0 47 29 77t75 30h44v-49h-44q-24 0 -40.5 -16t-16.5 -42v-22h101v-50h-148z" />
    <glyph glyph-name="uniFEEC_uniFBE9_uniFE8A.liga" unicode="&#xfeec;&#xfbe9;&#xfe8a;" 
d="M1075 0q-47 0 -73 -22.5t-26 -60.5q0 -27 10.5 -58t39.5 -61l-67 -86q-50 17 -94.5 45t-77.5 66t-52.5 87t-19.5 111v289h-18q-24 0 -41.5 -8.5t-29.5 -22.5t-18 -33t-6 -40v-197q0 -68 -22 -124.5t-60 -96t-89.5 -61.5t-112.5 -22q-135 0 -207.5 91t-72.5 256v104h102
v-98q0 -118 46.5 -179.5t131.5 -61.5q37 0 68.5 13.5t55.5 39t37 63t13 85.5v186q0 47 16 87t43.5 69.5t65 45.5t81.5 16h127v-393q0 -30 5.5 -54.5t14.5 -44t21.5 -35t28.5 -29.5l5 6q-9 15 -14.5 39t-5.5 47q0 41 17 70.5t44.5 47.5t62.5 26.5t71 8.5v-111zM39 207v72
q0 47 29 77t75 30h44v-49h-44q-24 0 -40.5 -16t-16.5 -42v-22h101v-50h-148z" />
    <glyph glyph-name="uniFEEC_uniFEF4_uniFE8A.liga" unicode="&#xfeec;&#xfef4;&#xfe8a;" 
d="M1075 0q-47 0 -73 -22.5t-26 -60.5q0 -27 10.5 -58t39.5 -61l-67 -86q-50 17 -94.5 45t-77.5 66t-52.5 87t-19.5 111v289h-18q-24 0 -41.5 -8.5t-29.5 -22.5t-18 -33t-6 -40v-197q0 -68 -22 -124.5t-60 -96t-89.5 -61.5t-112.5 -22q-135 0 -207.5 91t-72.5 256v104h102
v-98q0 -118 46.5 -179.5t131.5 -61.5q37 0 68.5 13.5t55.5 39t37 63t13 85.5v186q0 47 16 87t43.5 69.5t65 45.5t81.5 16h127v-393q0 -30 5.5 -54.5t14.5 -44t21.5 -35t28.5 -29.5l5 6q-9 15 -14.5 39t-5.5 47q0 41 17 70.5t44.5 47.5t62.5 26.5t71 8.5v-111zM39 207v72
q0 47 29 77t75 30h44v-49h-44q-24 0 -40.5 -16t-16.5 -42v-22h101v-50h-148zM571 -221q0 49 47 49q23 0 35 -12.5t12 -36.5q0 -22 -12 -34t-35 -12t-35 10.5t-12 35.5zM679 -221q0 24 12 36.5t35 12.5q47 0 47 -49q0 -25 -12 -35.5t-35 -10.5t-35 12t-12 34z" />
    <glyph glyph-name="uniFEEC_uniFB69_uniFE8A.liga" unicode="&#xfeec;&#xfb69;&#xfe8a;" 
d="M1075 0q-47 0 -73 -22.5t-26 -60.5q0 -27 10.5 -58t39.5 -61l-67 -86q-50 17 -94.5 45t-77.5 66t-52.5 87t-19.5 111v289h-18q-24 0 -41.5 -8.5t-29.5 -22.5t-18 -33t-6 -40v-197q0 -68 -22 -124.5t-60 -96t-89.5 -61.5t-112.5 -22q-135 0 -207.5 91t-72.5 256v104h102
v-98q0 -118 46.5 -179.5t131.5 -61.5q37 0 68.5 13.5t55.5 39t37 63t13 85.5v186q0 47 16 87t43.5 69.5t65 45.5t81.5 16h127v-393q0 -30 5.5 -54.5t14.5 -44t21.5 -35t28.5 -29.5l5 6q-9 15 -14.5 39t-5.5 47q0 41 17 70.5t44.5 47.5t62.5 26.5t71 8.5v-111zM39 207v72
q0 47 29 77t75 30h44v-49h-44q-24 0 -40.5 -16t-16.5 -42v-22h101v-50h-148zM635 533v38h34v123h37v-54q0 -5 -1 -12t-3 -14l2 -1l9 12q12 15 26 22.5t29 7.5q20 0 37.5 -14.5t17.5 -49.5v-58h-188zM787 587q0 13 -4.5 21t-15.5 8q-10 0 -17.5 -6t-16.5 -17l-20 -22h74v16z
" />
    <glyph glyph-name="uniFEEC_uniFB59_uniFE8A.liga" unicode="&#xfeec;&#xfb59;&#xfe8a;" 
d="M1075 0q-47 0 -73 -22.5t-26 -60.5q0 -27 10.5 -58t39.5 -61l-67 -86q-50 17 -94.5 45t-77.5 66t-52.5 87t-19.5 111v289h-18q-24 0 -41.5 -8.5t-29.5 -22.5t-18 -33t-6 -40v-197q0 -68 -22 -124.5t-60 -96t-89.5 -61.5t-112.5 -22q-135 0 -207.5 91t-72.5 256v104h102
v-98q0 -118 46.5 -179.5t131.5 -61.5q37 0 68.5 13.5t55.5 39t37 63t13 85.5v186q0 47 16 87t43.5 69.5t65 45.5t81.5 16h127v-393q0 -30 5.5 -54.5t14.5 -44t21.5 -35t28.5 -29.5l5 6q-9 15 -14.5 39t-5.5 47q0 41 17 70.5t44.5 47.5t62.5 26.5t71 8.5v-111zM39 207v72
q0 47 29 77t75 30h44v-49h-44q-24 0 -40.5 -16t-16.5 -42v-22h101v-50h-148zM775 -220q0 -47 -47 -47q-22 0 -34.5 12t-12.5 35t12.5 35t34.5 12q24 0 35.5 -10.5t11.5 -36.5zM665 -220q0 -23 -12.5 -35t-34.5 -12q-47 0 -47 47q0 26 11.5 36.5t35.5 10.5q22 0 34.5 -12
t12.5 -35zM720 -322q0 -27 -11.5 -38t-35.5 -11t-35.5 11t-11.5 38q0 22 12.5 34.5t34.5 12.5t34.5 -12.5t12.5 -34.5z" />
    <glyph glyph-name="uniFEEC_uniFBFF_uniFE8A.liga" unicode="&#xfeec;&#xfbff;&#xfe8a;" 
d="M1075 0q-47 0 -73 -22.5t-26 -60.5q0 -27 10.5 -58t39.5 -61l-67 -86q-50 17 -94.5 45t-77.5 66t-52.5 87t-19.5 111v289h-18q-24 0 -41.5 -8.5t-29.5 -22.5t-18 -33t-6 -40v-197q0 -68 -22 -124.5t-60 -96t-89.5 -61.5t-112.5 -22q-135 0 -207.5 91t-72.5 256v104h102
v-98q0 -118 46.5 -179.5t131.5 -61.5q37 0 68.5 13.5t55.5 39t37 63t13 85.5v186q0 47 16 87t43.5 69.5t65 45.5t81.5 16h127v-393q0 -30 5.5 -54.5t14.5 -44t21.5 -35t28.5 -29.5l5 6q-9 15 -14.5 39t-5.5 47q0 41 17 70.5t44.5 47.5t62.5 26.5t71 8.5v-111zM39 207v72
q0 47 29 77t75 30h44v-49h-44q-24 0 -40.5 -16t-16.5 -42v-22h101v-50h-148zM571 -221q0 49 47 49q23 0 35 -12.5t12 -36.5q0 -22 -12 -34t-35 -12t-35 10.5t-12 35.5zM679 -221q0 24 12 36.5t35 12.5q47 0 47 -49q0 -25 -12 -35.5t-35 -10.5t-35 12t-12 34z" />
    <glyph glyph-name="uniFEEC_uniFE8C_uniFEF0.liga" unicode="&#xfeec;&#xfe8c;&#xfef0;" 
d="M1075 0q-47 0 -73 -22.5t-26 -60.5q0 -27 10.5 -58t39.5 -61l-67 -86q-50 17 -94.5 45t-77.5 66t-52.5 87t-19.5 111v289h-18q-24 0 -41.5 -8.5t-29.5 -22.5t-18 -33t-6 -40v-197q0 -68 -22 -124.5t-60 -96t-89.5 -61.5t-112.5 -22q-135 0 -207.5 91t-72.5 256v104h102
v-98q0 -118 46.5 -179.5t131.5 -61.5q37 0 68.5 13.5t55.5 39t37 63t13 85.5v186q0 47 16 87t43.5 69.5t65 45.5t81.5 16h127v-393q0 -30 5.5 -54.5t14.5 -44t21.5 -35t28.5 -29.5l5 6q-9 15 -14.5 39t-5.5 47q0 41 17 70.5t44.5 47.5t62.5 26.5t71 8.5v-111zM677 527v72
q0 47 29 77t75 30h44v-49h-44q-24 0 -40.5 -16t-16.5 -42v-22h101v-50h-148z" />
    <glyph glyph-name="uniFEEC_uniFE92_uniFEF0.liga" unicode="&#xfeec;&#xfe92;&#xfef0;" 
d="M1075 0q-47 0 -73 -22.5t-26 -60.5q0 -27 10.5 -58t39.5 -61l-67 -86q-50 17 -94.5 45t-77.5 66t-52.5 87t-19.5 111v289h-18q-24 0 -41.5 -8.5t-29.5 -22.5t-18 -33t-6 -40v-197q0 -68 -22 -124.5t-60 -96t-89.5 -61.5t-112.5 -22q-135 0 -207.5 91t-72.5 256v104h102
v-98q0 -118 46.5 -179.5t131.5 -61.5q37 0 68.5 13.5t55.5 39t37 63t13 85.5v186q0 47 16 87t43.5 69.5t65 45.5t81.5 16h127v-393q0 -30 5.5 -54.5t14.5 -44t21.5 -35t28.5 -29.5l5 6q-9 15 -14.5 39t-5.5 47q0 41 17 70.5t44.5 47.5t62.5 26.5t71 8.5v-111zM623 -179
q0 49 48 49t48 -49q0 -48 -48 -48t-48 48z" />
    <glyph glyph-name="uniFEEC_uniFE98_uniFEF0.liga" unicode="&#xfeec;&#xfe98;&#xfef0;" 
d="M1075 0q-47 0 -73 -22.5t-26 -60.5q0 -27 10.5 -58t39.5 -61l-67 -86q-50 17 -94.5 45t-77.5 66t-52.5 87t-19.5 111v289h-18q-24 0 -41.5 -8.5t-29.5 -22.5t-18 -33t-6 -40v-197q0 -68 -22 -124.5t-60 -96t-89.5 -61.5t-112.5 -22q-135 0 -207.5 91t-72.5 256v104h102
v-98q0 -118 46.5 -179.5t131.5 -61.5q37 0 68.5 13.5t55.5 39t37 63t13 85.5v186q0 47 16 87t43.5 69.5t65 45.5t81.5 16h127v-393q0 -30 5.5 -54.5t14.5 -44t21.5 -35t28.5 -29.5l5 6q-9 15 -14.5 39t-5.5 47q0 41 17 70.5t44.5 47.5t62.5 26.5t71 8.5v-111zM615 620
q0 51 49 51q24 0 37.5 -13t13.5 -38t-13.5 -37.5t-37.5 -12.5q-23 0 -36 12t-13 38zM729 620q0 25 13.5 38t37.5 13q49 0 49 -51q0 -26 -13 -38t-36 -12q-24 0 -37.5 12.5t-13.5 37.5z" />
    <glyph glyph-name="uniFEEC_uniFE9C_uniFEF0.liga" unicode="&#xfeec;&#xfe9c;&#xfef0;" 
d="M1075 0q-47 0 -73 -22.5t-26 -60.5q0 -27 10.5 -58t39.5 -61l-67 -86q-50 17 -94.5 45t-77.5 66t-52.5 87t-19.5 111v289h-18q-24 0 -41.5 -8.5t-29.5 -22.5t-18 -33t-6 -40v-197q0 -68 -22 -124.5t-60 -96t-89.5 -61.5t-112.5 -22q-135 0 -207.5 91t-72.5 256v104h102
v-98q0 -118 46.5 -179.5t131.5 -61.5q37 0 68.5 13.5t55.5 39t37 63t13 85.5v186q0 47 16 87t43.5 69.5t65 45.5t81.5 16h127v-393q0 -30 5.5 -54.5t14.5 -44t21.5 -35t28.5 -29.5l5 6q-9 15 -14.5 39t-5.5 47q0 41 17 70.5t44.5 47.5t62.5 26.5t71 8.5v-111zM610 571
q0 51 51 51q24 0 37 -13t13 -38t-13 -38t-37 -13q-25 0 -38 12t-13 39zM729 571q0 25 13 38t37 13q51 0 51 -51q0 -27 -13 -39t-38 -12q-24 0 -37 13t-13 38zM669 681q0 28 13 39.5t38 11.5t38 -11.5t13 -39.5q0 -25 -13.5 -38t-37.5 -13t-37.5 13t-13.5 38z" />
    <glyph glyph-name="uniFEEC_uniFEE8_uniFEF0.liga" unicode="&#xfeec;&#xfee8;&#xfef0;" 
d="M1075 0q-47 0 -73 -22.5t-26 -60.5q0 -27 10.5 -58t39.5 -61l-67 -86q-50 17 -94.5 45t-77.5 66t-52.5 87t-19.5 111v289h-18q-24 0 -41.5 -8.5t-29.5 -22.5t-18 -33t-6 -40v-197q0 -68 -22 -124.5t-60 -96t-89.5 -61.5t-112.5 -22q-135 0 -207.5 91t-72.5 256v104h102
v-98q0 -118 46.5 -179.5t131.5 -61.5q37 0 68.5 13.5t55.5 39t37 63t13 85.5v186q0 47 16 87t43.5 69.5t65 45.5t81.5 16h127v-393q0 -30 5.5 -54.5t14.5 -44t21.5 -35t28.5 -29.5l5 6q-9 15 -14.5 39t-5.5 47q0 41 17 70.5t44.5 47.5t62.5 26.5t71 8.5v-111zM709 620
q0 52 52 52t52 -52q0 -53 -52 -53t-52 53z" />
    <glyph glyph-name="uniFEEC_uniFBE9_uniFEF0.liga" unicode="&#xfeec;&#xfbe9;&#xfef0;" 
d="M1075 0q-47 0 -73 -22.5t-26 -60.5q0 -27 10.5 -58t39.5 -61l-67 -86q-50 17 -94.5 45t-77.5 66t-52.5 87t-19.5 111v289h-18q-24 0 -41.5 -8.5t-29.5 -22.5t-18 -33t-6 -40v-197q0 -68 -22 -124.5t-60 -96t-89.5 -61.5t-112.5 -22q-135 0 -207.5 91t-72.5 256v104h102
v-98q0 -118 46.5 -179.5t131.5 -61.5q37 0 68.5 13.5t55.5 39t37 63t13 85.5v186q0 47 16 87t43.5 69.5t65 45.5t81.5 16h127v-393q0 -30 5.5 -54.5t14.5 -44t21.5 -35t28.5 -29.5l5 6q-9 15 -14.5 39t-5.5 47q0 41 17 70.5t44.5 47.5t62.5 26.5t71 8.5v-111z" />
    <glyph glyph-name="uniFEEC_uniFEF4_uniFEF0.liga" unicode="&#xfeec;&#xfef4;&#xfef0;" 
d="M1075 0q-47 0 -73 -22.5t-26 -60.5q0 -27 10.5 -58t39.5 -61l-67 -86q-50 17 -94.5 45t-77.5 66t-52.5 87t-19.5 111v289h-18q-24 0 -41.5 -8.5t-29.5 -22.5t-18 -33t-6 -40v-197q0 -68 -22 -124.5t-60 -96t-89.5 -61.5t-112.5 -22q-135 0 -207.5 91t-72.5 256v104h102
v-98q0 -118 46.5 -179.5t131.5 -61.5q37 0 68.5 13.5t55.5 39t37 63t13 85.5v186q0 47 16 87t43.5 69.5t65 45.5t81.5 16h127v-393q0 -30 5.5 -54.5t14.5 -44t21.5 -35t28.5 -29.5l5 6q-9 15 -14.5 39t-5.5 47q0 41 17 70.5t44.5 47.5t62.5 26.5t71 8.5v-111zM571 -221
q0 49 47 49q23 0 35 -12.5t12 -36.5q0 -22 -12 -34t-35 -12t-35 10.5t-12 35.5zM679 -221q0 24 12 36.5t35 12.5q47 0 47 -49q0 -25 -12 -35.5t-35 -10.5t-35 12t-12 34z" />
    <glyph glyph-name="uniFEEC_uniFB69_uniFEF0.liga" unicode="&#xfeec;&#xfb69;&#xfef0;" 
d="M1075 0q-47 0 -73 -22.5t-26 -60.5q0 -27 10.5 -58t39.5 -61l-67 -86q-50 17 -94.5 45t-77.5 66t-52.5 87t-19.5 111v289h-18q-24 0 -41.5 -8.5t-29.5 -22.5t-18 -33t-6 -40v-197q0 -68 -22 -124.5t-60 -96t-89.5 -61.5t-112.5 -22q-135 0 -207.5 91t-72.5 256v104h102
v-98q0 -118 46.5 -179.5t131.5 -61.5q37 0 68.5 13.5t55.5 39t37 63t13 85.5v186q0 47 16 87t43.5 69.5t65 45.5t81.5 16h127v-393q0 -30 5.5 -54.5t14.5 -44t21.5 -35t28.5 -29.5l5 6q-9 15 -14.5 39t-5.5 47q0 41 17 70.5t44.5 47.5t62.5 26.5t71 8.5v-111zM635 533v38h34
v123h37v-54q0 -5 -1 -12t-3 -14l2 -1l9 12q12 15 26 22.5t29 7.5q20 0 37.5 -14.5t17.5 -49.5v-58h-188zM787 587q0 13 -4.5 21t-15.5 8q-10 0 -17.5 -6t-16.5 -17l-20 -22h74v16z" />
    <glyph glyph-name="uniFEEC_uniFB59_uniFEF0.liga" unicode="&#xfeec;&#xfb59;&#xfef0;" 
d="M1075 0q-47 0 -73 -22.5t-26 -60.5q0 -27 10.5 -58t39.5 -61l-67 -86q-50 17 -94.5 45t-77.5 66t-52.5 87t-19.5 111v289h-18q-24 0 -41.5 -8.5t-29.5 -22.5t-18 -33t-6 -40v-197q0 -68 -22 -124.5t-60 -96t-89.5 -61.5t-112.5 -22q-135 0 -207.5 91t-72.5 256v104h102
v-98q0 -118 46.5 -179.5t131.5 -61.5q37 0 68.5 13.5t55.5 39t37 63t13 85.5v186q0 47 16 87t43.5 69.5t65 45.5t81.5 16h127v-393q0 -30 5.5 -54.5t14.5 -44t21.5 -35t28.5 -29.5l5 6q-9 15 -14.5 39t-5.5 47q0 41 17 70.5t44.5 47.5t62.5 26.5t71 8.5v-111zM775 -220
q0 -47 -47 -47q-22 0 -34.5 12t-12.5 35t12.5 35t34.5 12q24 0 35.5 -10.5t11.5 -36.5zM665 -220q0 -23 -12.5 -35t-34.5 -12q-47 0 -47 47q0 26 11.5 36.5t35.5 10.5q22 0 34.5 -12t12.5 -35zM720 -322q0 -27 -11.5 -38t-35.5 -11t-35.5 11t-11.5 38q0 22 12.5 34.5
t34.5 12.5t34.5 -12.5t12.5 -34.5z" />
    <glyph glyph-name="uniFEEC_uniFBFF_uniFEF0.liga" unicode="&#xfeec;&#xfbff;&#xfef0;" 
d="M1075 0q-47 0 -73 -22.5t-26 -60.5q0 -27 10.5 -58t39.5 -61l-67 -86q-50 17 -94.5 45t-77.5 66t-52.5 87t-19.5 111v289h-18q-24 0 -41.5 -8.5t-29.5 -22.5t-18 -33t-6 -40v-197q0 -68 -22 -124.5t-60 -96t-89.5 -61.5t-112.5 -22q-135 0 -207.5 91t-72.5 256v104h102
v-98q0 -118 46.5 -179.5t131.5 -61.5q37 0 68.5 13.5t55.5 39t37 63t13 85.5v186q0 47 16 87t43.5 69.5t65 45.5t81.5 16h127v-393q0 -30 5.5 -54.5t14.5 -44t21.5 -35t28.5 -29.5l5 6q-9 15 -14.5 39t-5.5 47q0 41 17 70.5t44.5 47.5t62.5 26.5t71 8.5v-111zM571 -221
q0 49 47 49q23 0 35 -12.5t12 -36.5q0 -22 -12 -34t-35 -12t-35 10.5t-12 35.5zM679 -221q0 24 12 36.5t35 12.5q47 0 47 -49q0 -25 -12 -35.5t-35 -10.5t-35 12t-12 34z" />
    <glyph glyph-name="uniFEEC_uniFE8C_uniFEF2.liga" unicode="&#xfeec;&#xfe8c;&#xfef2;" 
d="M1075 0q-47 0 -73 -22.5t-26 -60.5q0 -27 10.5 -58t39.5 -61l-67 -86q-50 17 -94.5 45t-77.5 66t-52.5 87t-19.5 111v289h-18q-24 0 -41.5 -8.5t-29.5 -22.5t-18 -33t-6 -40v-197q0 -68 -22 -124.5t-60 -96t-89.5 -61.5t-112.5 -22q-135 0 -207.5 91t-72.5 256v104h102
v-98q0 -118 46.5 -179.5t131.5 -61.5q37 0 68.5 13.5t55.5 39t37 63t13 85.5v186q0 47 16 87t43.5 69.5t65 45.5t81.5 16h127v-393q0 -30 5.5 -54.5t14.5 -44t21.5 -35t28.5 -29.5l5 6q-9 15 -14.5 39t-5.5 47q0 41 17 70.5t44.5 47.5t62.5 26.5t71 8.5v-111zM677 527v72
q0 47 29 77t75 30h44v-49h-44q-24 0 -40.5 -16t-16.5 -42v-22h101v-50h-148zM223 -394q0 51 49 51q24 0 37.5 -13t13.5 -38t-13.5 -37.5t-37.5 -12.5q-23 0 -36 12t-13 38zM337 -394q0 25 13.5 38t37.5 13q49 0 49 -51q0 -26 -13 -38t-36 -12q-24 0 -37.5 12.5t-13.5 37.5z
" />
    <glyph glyph-name="uniFEEC_uniFE92_uniFEF2.liga" unicode="&#xfeec;&#xfe92;&#xfef2;" 
d="M1075 0q-47 0 -73 -22.5t-26 -60.5q0 -27 10.5 -58t39.5 -61l-67 -86q-50 17 -94.5 45t-77.5 66t-52.5 87t-19.5 111v289h-18q-24 0 -41.5 -8.5t-29.5 -22.5t-18 -33t-6 -40v-197q0 -68 -22 -124.5t-60 -96t-89.5 -61.5t-112.5 -22q-135 0 -207.5 91t-72.5 256v104h102
v-98q0 -118 46.5 -179.5t131.5 -61.5q37 0 68.5 13.5t55.5 39t37 63t13 85.5v186q0 47 16 87t43.5 69.5t65 45.5t81.5 16h127v-393q0 -30 5.5 -54.5t14.5 -44t21.5 -35t28.5 -29.5l5 6q-9 15 -14.5 39t-5.5 47q0 41 17 70.5t44.5 47.5t62.5 26.5t71 8.5v-111zM623 -179
q0 49 48 49t48 -49q0 -48 -48 -48t-48 48zM223 -394q0 51 49 51q24 0 37.5 -13t13.5 -38t-13.5 -37.5t-37.5 -12.5q-23 0 -36 12t-13 38zM337 -394q0 25 13.5 38t37.5 13q49 0 49 -51q0 -26 -13 -38t-36 -12q-24 0 -37.5 12.5t-13.5 37.5z" />
    <glyph glyph-name="uniFEEC_uniFE98_uniFEF2.liga" unicode="&#xfeec;&#xfe98;&#xfef2;" 
d="M1075 0q-47 0 -73 -22.5t-26 -60.5q0 -27 10.5 -58t39.5 -61l-67 -86q-50 17 -94.5 45t-77.5 66t-52.5 87t-19.5 111v289h-18q-24 0 -41.5 -8.5t-29.5 -22.5t-18 -33t-6 -40v-197q0 -68 -22 -124.5t-60 -96t-89.5 -61.5t-112.5 -22q-135 0 -207.5 91t-72.5 256v104h102
v-98q0 -118 46.5 -179.5t131.5 -61.5q37 0 68.5 13.5t55.5 39t37 63t13 85.5v186q0 47 16 87t43.5 69.5t65 45.5t81.5 16h127v-393q0 -30 5.5 -54.5t14.5 -44t21.5 -35t28.5 -29.5l5 6q-9 15 -14.5 39t-5.5 47q0 41 17 70.5t44.5 47.5t62.5 26.5t71 8.5v-111zM615 620
q0 51 49 51q24 0 37.5 -13t13.5 -38t-13.5 -37.5t-37.5 -12.5q-23 0 -36 12t-13 38zM729 620q0 25 13.5 38t37.5 13q49 0 49 -51q0 -26 -13 -38t-36 -12q-24 0 -37.5 12.5t-13.5 37.5zM223 -394q0 51 49 51q24 0 37.5 -13t13.5 -38t-13.5 -37.5t-37.5 -12.5q-23 0 -36 12
t-13 38zM337 -394q0 25 13.5 38t37.5 13q49 0 49 -51q0 -26 -13 -38t-36 -12q-24 0 -37.5 12.5t-13.5 37.5z" />
    <glyph glyph-name="uniFEEC_uniFE9C_uniFEF2.liga" unicode="&#xfeec;&#xfe9c;&#xfef2;" 
d="M1075 0q-47 0 -73 -22.5t-26 -60.5q0 -27 10.5 -58t39.5 -61l-67 -86q-50 17 -94.5 45t-77.5 66t-52.5 87t-19.5 111v289h-18q-24 0 -41.5 -8.5t-29.5 -22.5t-18 -33t-6 -40v-197q0 -68 -22 -124.5t-60 -96t-89.5 -61.5t-112.5 -22q-135 0 -207.5 91t-72.5 256v104h102
v-98q0 -118 46.5 -179.5t131.5 -61.5q37 0 68.5 13.5t55.5 39t37 63t13 85.5v186q0 47 16 87t43.5 69.5t65 45.5t81.5 16h127v-393q0 -30 5.5 -54.5t14.5 -44t21.5 -35t28.5 -29.5l5 6q-9 15 -14.5 39t-5.5 47q0 41 17 70.5t44.5 47.5t62.5 26.5t71 8.5v-111zM610 571
q0 51 51 51q24 0 37 -13t13 -38t-13 -38t-37 -13q-25 0 -38 12t-13 39zM729 571q0 25 13 38t37 13q51 0 51 -51q0 -27 -13 -39t-38 -12q-24 0 -37 13t-13 38zM669 681q0 28 13 39.5t38 11.5t38 -11.5t13 -39.5q0 -25 -13.5 -38t-37.5 -13t-37.5 13t-13.5 38zM223 -394
q0 51 49 51q24 0 37.5 -13t13.5 -38t-13.5 -37.5t-37.5 -12.5q-23 0 -36 12t-13 38zM337 -394q0 25 13.5 38t37.5 13q49 0 49 -51q0 -26 -13 -38t-36 -12q-24 0 -37.5 12.5t-13.5 37.5z" />
    <glyph glyph-name="uniFEEC_uniFEE8_uniFEF2.liga" unicode="&#xfeec;&#xfee8;&#xfef2;" 
d="M1075 0q-47 0 -73 -22.5t-26 -60.5q0 -27 10.5 -58t39.5 -61l-67 -86q-50 17 -94.5 45t-77.5 66t-52.5 87t-19.5 111v289h-18q-24 0 -41.5 -8.5t-29.5 -22.5t-18 -33t-6 -40v-197q0 -68 -22 -124.5t-60 -96t-89.5 -61.5t-112.5 -22q-135 0 -207.5 91t-72.5 256v104h102
v-98q0 -118 46.5 -179.5t131.5 -61.5q37 0 68.5 13.5t55.5 39t37 63t13 85.5v186q0 47 16 87t43.5 69.5t65 45.5t81.5 16h127v-393q0 -30 5.5 -54.5t14.5 -44t21.5 -35t28.5 -29.5l5 6q-9 15 -14.5 39t-5.5 47q0 41 17 70.5t44.5 47.5t62.5 26.5t71 8.5v-111zM709 620
q0 52 52 52t52 -52q0 -53 -52 -53t-52 53zM223 -394q0 51 49 51q24 0 37.5 -13t13.5 -38t-13.5 -37.5t-37.5 -12.5q-23 0 -36 12t-13 38zM337 -394q0 25 13.5 38t37.5 13q49 0 49 -51q0 -26 -13 -38t-36 -12q-24 0 -37.5 12.5t-13.5 37.5z" />
    <glyph glyph-name="uniFEEC_uniFBE9_uniFEF2.liga" unicode="&#xfeec;&#xfbe9;&#xfef2;" 
d="M1075 0q-47 0 -73 -22.5t-26 -60.5q0 -27 10.5 -58t39.5 -61l-67 -86q-50 17 -94.5 45t-77.5 66t-52.5 87t-19.5 111v289h-18q-24 0 -41.5 -8.5t-29.5 -22.5t-18 -33t-6 -40v-197q0 -68 -22 -124.5t-60 -96t-89.5 -61.5t-112.5 -22q-135 0 -207.5 91t-72.5 256v104h102
v-98q0 -118 46.5 -179.5t131.5 -61.5q37 0 68.5 13.5t55.5 39t37 63t13 85.5v186q0 47 16 87t43.5 69.5t65 45.5t81.5 16h127v-393q0 -30 5.5 -54.5t14.5 -44t21.5 -35t28.5 -29.5l5 6q-9 15 -14.5 39t-5.5 47q0 41 17 70.5t44.5 47.5t62.5 26.5t71 8.5v-111zM223 -394
q0 51 49 51q24 0 37.5 -13t13.5 -38t-13.5 -37.5t-37.5 -12.5q-23 0 -36 12t-13 38zM337 -394q0 25 13.5 38t37.5 13q49 0 49 -51q0 -26 -13 -38t-36 -12q-24 0 -37.5 12.5t-13.5 37.5z" />
    <glyph glyph-name="uniFEEC_uniFEF4_uniFEF2.liga" unicode="&#xfeec;&#xfef4;&#xfef2;" 
d="M1075 0q-47 0 -73 -22.5t-26 -60.5q0 -27 10.5 -58t39.5 -61l-67 -86q-50 17 -94.5 45t-77.5 66t-52.5 87t-19.5 111v289h-18q-24 0 -41.5 -8.5t-29.5 -22.5t-18 -33t-6 -40v-197q0 -68 -22 -124.5t-60 -96t-89.5 -61.5t-112.5 -22q-135 0 -207.5 91t-72.5 256v104h102
v-98q0 -118 46.5 -179.5t131.5 -61.5q37 0 68.5 13.5t55.5 39t37 63t13 85.5v186q0 47 16 87t43.5 69.5t65 45.5t81.5 16h127v-393q0 -30 5.5 -54.5t14.5 -44t21.5 -35t28.5 -29.5l5 6q-9 15 -14.5 39t-5.5 47q0 41 17 70.5t44.5 47.5t62.5 26.5t71 8.5v-111zM571 -221
q0 49 47 49q23 0 35 -12.5t12 -36.5q0 -22 -12 -34t-35 -12t-35 10.5t-12 35.5zM679 -221q0 24 12 36.5t35 12.5q47 0 47 -49q0 -25 -12 -35.5t-35 -10.5t-35 12t-12 34zM223 -394q0 51 49 51q24 0 37.5 -13t13.5 -38t-13.5 -37.5t-37.5 -12.5q-23 0 -36 12t-13 38z
M337 -394q0 25 13.5 38t37.5 13q49 0 49 -51q0 -26 -13 -38t-36 -12q-24 0 -37.5 12.5t-13.5 37.5z" />
    <glyph glyph-name="uniFEEC_uniFB69_uniFEF2.liga" unicode="&#xfeec;&#xfb69;&#xfef2;" 
d="M1075 0q-47 0 -73 -22.5t-26 -60.5q0 -27 10.5 -58t39.5 -61l-67 -86q-50 17 -94.5 45t-77.5 66t-52.5 87t-19.5 111v289h-18q-24 0 -41.5 -8.5t-29.5 -22.5t-18 -33t-6 -40v-197q0 -68 -22 -124.5t-60 -96t-89.5 -61.5t-112.5 -22q-135 0 -207.5 91t-72.5 256v104h102
v-98q0 -118 46.5 -179.5t131.5 -61.5q37 0 68.5 13.5t55.5 39t37 63t13 85.5v186q0 47 16 87t43.5 69.5t65 45.5t81.5 16h127v-393q0 -30 5.5 -54.5t14.5 -44t21.5 -35t28.5 -29.5l5 6q-9 15 -14.5 39t-5.5 47q0 41 17 70.5t44.5 47.5t62.5 26.5t71 8.5v-111zM635 533v38h34
v123h37v-54q0 -5 -1 -12t-3 -14l2 -1l9 12q12 15 26 22.5t29 7.5q20 0 37.5 -14.5t17.5 -49.5v-58h-188zM787 587q0 13 -4.5 21t-15.5 8q-10 0 -17.5 -6t-16.5 -17l-20 -22h74v16zM223 -394q0 51 49 51q24 0 37.5 -13t13.5 -38t-13.5 -37.5t-37.5 -12.5q-23 0 -36 12t-13 38
zM337 -394q0 25 13.5 38t37.5 13q49 0 49 -51q0 -26 -13 -38t-36 -12q-24 0 -37.5 12.5t-13.5 37.5z" />
    <glyph glyph-name="uniFEEC_uniFB59_uniFEF2.liga" unicode="&#xfeec;&#xfb59;&#xfef2;" 
d="M1075 0q-47 0 -73 -22.5t-26 -60.5q0 -27 10.5 -58t39.5 -61l-67 -86q-50 17 -94.5 45t-77.5 66t-52.5 87t-19.5 111v289h-18q-24 0 -41.5 -8.5t-29.5 -22.5t-18 -33t-6 -40v-197q0 -68 -22 -124.5t-60 -96t-89.5 -61.5t-112.5 -22q-135 0 -207.5 91t-72.5 256v104h102
v-98q0 -118 46.5 -179.5t131.5 -61.5q37 0 68.5 13.5t55.5 39t37 63t13 85.5v186q0 47 16 87t43.5 69.5t65 45.5t81.5 16h127v-393q0 -30 5.5 -54.5t14.5 -44t21.5 -35t28.5 -29.5l5 6q-9 15 -14.5 39t-5.5 47q0 41 17 70.5t44.5 47.5t62.5 26.5t71 8.5v-111zM775 -220
q0 -47 -47 -47q-22 0 -34.5 12t-12.5 35t12.5 35t34.5 12q24 0 35.5 -10.5t11.5 -36.5zM665 -220q0 -23 -12.5 -35t-34.5 -12q-47 0 -47 47q0 26 11.5 36.5t35.5 10.5q22 0 34.5 -12t12.5 -35zM720 -322q0 -27 -11.5 -38t-35.5 -11t-35.5 11t-11.5 38q0 22 12.5 34.5
t34.5 12.5t34.5 -12.5t12.5 -34.5zM223 -394q0 51 49 51q24 0 37.5 -13t13.5 -38t-13.5 -37.5t-37.5 -12.5q-23 0 -36 12t-13 38zM337 -394q0 25 13.5 38t37.5 13q49 0 49 -51q0 -26 -13 -38t-36 -12q-24 0 -37.5 12.5t-13.5 37.5z" />
    <glyph glyph-name="uniFEEC_uniFBFF_uniFEF2.liga" unicode="&#xfeec;&#xfbff;&#xfef2;" 
d="M1075 0q-47 0 -73 -22.5t-26 -60.5q0 -27 10.5 -58t39.5 -61l-67 -86q-50 17 -94.5 45t-77.5 66t-52.5 87t-19.5 111v289h-18q-24 0 -41.5 -8.5t-29.5 -22.5t-18 -33t-6 -40v-197q0 -68 -22 -124.5t-60 -96t-89.5 -61.5t-112.5 -22q-135 0 -207.5 91t-72.5 256v104h102
v-98q0 -118 46.5 -179.5t131.5 -61.5q37 0 68.5 13.5t55.5 39t37 63t13 85.5v186q0 47 16 87t43.5 69.5t65 45.5t81.5 16h127v-393q0 -30 5.5 -54.5t14.5 -44t21.5 -35t28.5 -29.5l5 6q-9 15 -14.5 39t-5.5 47q0 41 17 70.5t44.5 47.5t62.5 26.5t71 8.5v-111zM571 -221
q0 49 47 49q23 0 35 -12.5t12 -36.5q0 -22 -12 -34t-35 -12t-35 10.5t-12 35.5zM679 -221q0 24 12 36.5t35 12.5q47 0 47 -49q0 -25 -12 -35.5t-35 -10.5t-35 12t-12 34zM223 -394q0 51 49 51q24 0 37.5 -13t13.5 -38t-13.5 -37.5t-37.5 -12.5q-23 0 -36 12t-13 38z
M337 -394q0 25 13.5 38t37.5 13q49 0 49 -51q0 -26 -13 -38t-36 -12q-24 0 -37.5 12.5t-13.5 37.5z" />
    <glyph glyph-name="uniFEEC_uniFE8C_uniFBFD.liga" unicode="&#xfeec;&#xfe8c;&#xfbfd;" 
d="M1075 0q-47 0 -73 -22.5t-26 -60.5q0 -27 10.5 -58t39.5 -61l-67 -86q-50 17 -94.5 45t-77.5 66t-52.5 87t-19.5 111v289h-18q-24 0 -41.5 -8.5t-29.5 -22.5t-18 -33t-6 -40v-197q0 -68 -22 -124.5t-60 -96t-89.5 -61.5t-112.5 -22q-135 0 -207.5 91t-72.5 256v104h102
v-98q0 -118 46.5 -179.5t131.5 -61.5q37 0 68.5 13.5t55.5 39t37 63t13 85.5v186q0 47 16 87t43.5 69.5t65 45.5t81.5 16h127v-393q0 -30 5.5 -54.5t14.5 -44t21.5 -35t28.5 -29.5l5 6q-9 15 -14.5 39t-5.5 47q0 41 17 70.5t44.5 47.5t62.5 26.5t71 8.5v-111zM677 527v72
q0 47 29 77t75 30h44v-49h-44q-24 0 -40.5 -16t-16.5 -42v-22h101v-50h-148z" />
    <glyph glyph-name="uniFEEC_uniFE92_uniFBFD.liga" unicode="&#xfeec;&#xfe92;&#xfbfd;" 
d="M1075 0q-47 0 -73 -22.5t-26 -60.5q0 -27 10.5 -58t39.5 -61l-67 -86q-50 17 -94.5 45t-77.5 66t-52.5 87t-19.5 111v289h-18q-24 0 -41.5 -8.5t-29.5 -22.5t-18 -33t-6 -40v-197q0 -68 -22 -124.5t-60 -96t-89.5 -61.5t-112.5 -22q-135 0 -207.5 91t-72.5 256v104h102
v-98q0 -118 46.5 -179.5t131.5 -61.5q37 0 68.5 13.5t55.5 39t37 63t13 85.5v186q0 47 16 87t43.5 69.5t65 45.5t81.5 16h127v-393q0 -30 5.5 -54.5t14.5 -44t21.5 -35t28.5 -29.5l5 6q-9 15 -14.5 39t-5.5 47q0 41 17 70.5t44.5 47.5t62.5 26.5t71 8.5v-111zM623 -179
q0 49 48 49t48 -49q0 -48 -48 -48t-48 48z" />
    <glyph glyph-name="uniFEEC_uniFE98_uniFBFD.liga" unicode="&#xfeec;&#xfe98;&#xfbfd;" 
d="M1075 0q-47 0 -73 -22.5t-26 -60.5q0 -27 10.5 -58t39.5 -61l-67 -86q-50 17 -94.5 45t-77.5 66t-52.5 87t-19.5 111v289h-18q-24 0 -41.5 -8.5t-29.5 -22.5t-18 -33t-6 -40v-197q0 -68 -22 -124.5t-60 -96t-89.5 -61.5t-112.5 -22q-135 0 -207.5 91t-72.5 256v104h102
v-98q0 -118 46.5 -179.5t131.5 -61.5q37 0 68.5 13.5t55.5 39t37 63t13 85.5v186q0 47 16 87t43.5 69.5t65 45.5t81.5 16h127v-393q0 -30 5.5 -54.5t14.5 -44t21.5 -35t28.5 -29.5l5 6q-9 15 -14.5 39t-5.5 47q0 41 17 70.5t44.5 47.5t62.5 26.5t71 8.5v-111zM615 620
q0 51 49 51q24 0 37.5 -13t13.5 -38t-13.5 -37.5t-37.5 -12.5q-23 0 -36 12t-13 38zM729 620q0 25 13.5 38t37.5 13q49 0 49 -51q0 -26 -13 -38t-36 -12q-24 0 -37.5 12.5t-13.5 37.5z" />
    <glyph glyph-name="uniFEEC_uniFE9C_uniFBFD.liga" unicode="&#xfeec;&#xfe9c;&#xfbfd;" 
d="M1075 0q-47 0 -73 -22.5t-26 -60.5q0 -27 10.5 -58t39.5 -61l-67 -86q-50 17 -94.5 45t-77.5 66t-52.5 87t-19.5 111v289h-18q-24 0 -41.5 -8.5t-29.5 -22.5t-18 -33t-6 -40v-197q0 -68 -22 -124.5t-60 -96t-89.5 -61.5t-112.5 -22q-135 0 -207.5 91t-72.5 256v104h102
v-98q0 -118 46.5 -179.5t131.5 -61.5q37 0 68.5 13.5t55.5 39t37 63t13 85.5v186q0 47 16 87t43.5 69.5t65 45.5t81.5 16h127v-393q0 -30 5.5 -54.5t14.5 -44t21.5 -35t28.5 -29.5l5 6q-9 15 -14.5 39t-5.5 47q0 41 17 70.5t44.5 47.5t62.5 26.5t71 8.5v-111zM610 571
q0 51 51 51q24 0 37 -13t13 -38t-13 -38t-37 -13q-25 0 -38 12t-13 39zM729 571q0 25 13 38t37 13q51 0 51 -51q0 -27 -13 -39t-38 -12q-24 0 -37 13t-13 38zM669 681q0 28 13 39.5t38 11.5t38 -11.5t13 -39.5q0 -25 -13.5 -38t-37.5 -13t-37.5 13t-13.5 38z" />
    <glyph glyph-name="uniFEEC_uniFEE8_uniFBFD.liga" unicode="&#xfeec;&#xfee8;&#xfbfd;" 
d="M1075 0q-47 0 -73 -22.5t-26 -60.5q0 -27 10.5 -58t39.5 -61l-67 -86q-50 17 -94.5 45t-77.5 66t-52.5 87t-19.5 111v289h-18q-24 0 -41.5 -8.5t-29.5 -22.5t-18 -33t-6 -40v-197q0 -68 -22 -124.5t-60 -96t-89.5 -61.5t-112.5 -22q-135 0 -207.5 91t-72.5 256v104h102
v-98q0 -118 46.5 -179.5t131.5 -61.5q37 0 68.5 13.5t55.5 39t37 63t13 85.5v186q0 47 16 87t43.5 69.5t65 45.5t81.5 16h127v-393q0 -30 5.5 -54.5t14.5 -44t21.5 -35t28.5 -29.5l5 6q-9 15 -14.5 39t-5.5 47q0 41 17 70.5t44.5 47.5t62.5 26.5t71 8.5v-111zM709 620
q0 52 52 52t52 -52q0 -53 -52 -53t-52 53z" />
    <glyph glyph-name="uniFEEC_uniFBE9_uniFBFD.liga" unicode="&#xfeec;&#xfbe9;&#xfbfd;" 
d="M1075 0q-47 0 -73 -22.5t-26 -60.5q0 -27 10.5 -58t39.5 -61l-67 -86q-50 17 -94.5 45t-77.5 66t-52.5 87t-19.5 111v289h-18q-24 0 -41.5 -8.5t-29.5 -22.5t-18 -33t-6 -40v-197q0 -68 -22 -124.5t-60 -96t-89.5 -61.5t-112.5 -22q-135 0 -207.5 91t-72.5 256v104h102
v-98q0 -118 46.5 -179.5t131.5 -61.5q37 0 68.5 13.5t55.5 39t37 63t13 85.5v186q0 47 16 87t43.5 69.5t65 45.5t81.5 16h127v-393q0 -30 5.5 -54.5t14.5 -44t21.5 -35t28.5 -29.5l5 6q-9 15 -14.5 39t-5.5 47q0 41 17 70.5t44.5 47.5t62.5 26.5t71 8.5v-111z" />
    <glyph glyph-name="uniFEEC_uniFEF4_uniFBFD.liga" unicode="&#xfeec;&#xfef4;&#xfbfd;" 
d="M1075 0q-47 0 -73 -22.5t-26 -60.5q0 -27 10.5 -58t39.5 -61l-67 -86q-50 17 -94.5 45t-77.5 66t-52.5 87t-19.5 111v289h-18q-24 0 -41.5 -8.5t-29.5 -22.5t-18 -33t-6 -40v-197q0 -68 -22 -124.5t-60 -96t-89.5 -61.5t-112.5 -22q-135 0 -207.5 91t-72.5 256v104h102
v-98q0 -118 46.5 -179.5t131.5 -61.5q37 0 68.5 13.5t55.5 39t37 63t13 85.5v186q0 47 16 87t43.5 69.5t65 45.5t81.5 16h127v-393q0 -30 5.5 -54.5t14.5 -44t21.5 -35t28.5 -29.5l5 6q-9 15 -14.5 39t-5.5 47q0 41 17 70.5t44.5 47.5t62.5 26.5t71 8.5v-111zM571 -221
q0 49 47 49q23 0 35 -12.5t12 -36.5q0 -22 -12 -34t-35 -12t-35 10.5t-12 35.5zM679 -221q0 24 12 36.5t35 12.5q47 0 47 -49q0 -25 -12 -35.5t-35 -10.5t-35 12t-12 34z" />
    <glyph glyph-name="uniFEEC_uniFB69_uniFBFD.liga" unicode="&#xfeec;&#xfb69;&#xfbfd;" 
d="M1075 0q-47 0 -73 -22.5t-26 -60.5q0 -27 10.5 -58t39.5 -61l-67 -86q-50 17 -94.5 45t-77.5 66t-52.5 87t-19.5 111v289h-18q-24 0 -41.5 -8.5t-29.5 -22.5t-18 -33t-6 -40v-197q0 -68 -22 -124.5t-60 -96t-89.5 -61.5t-112.5 -22q-135 0 -207.5 91t-72.5 256v104h102
v-98q0 -118 46.5 -179.5t131.5 -61.5q37 0 68.5 13.5t55.5 39t37 63t13 85.5v186q0 47 16 87t43.5 69.5t65 45.5t81.5 16h127v-393q0 -30 5.5 -54.5t14.5 -44t21.5 -35t28.5 -29.5l5 6q-9 15 -14.5 39t-5.5 47q0 41 17 70.5t44.5 47.5t62.5 26.5t71 8.5v-111zM635 533v38h34
v123h37v-54q0 -5 -1 -12t-3 -14l2 -1l9 12q12 15 26 22.5t29 7.5q20 0 37.5 -14.5t17.5 -49.5v-58h-188zM787 587q0 13 -4.5 21t-15.5 8q-10 0 -17.5 -6t-16.5 -17l-20 -22h74v16z" />
    <glyph glyph-name="uniFEEC_uniFB59_uniFBFD.liga" unicode="&#xfeec;&#xfb59;&#xfbfd;" 
d="M1075 0q-47 0 -73 -22.5t-26 -60.5q0 -27 10.5 -58t39.5 -61l-67 -86q-50 17 -94.5 45t-77.5 66t-52.5 87t-19.5 111v289h-18q-24 0 -41.5 -8.5t-29.5 -22.5t-18 -33t-6 -40v-197q0 -68 -22 -124.5t-60 -96t-89.5 -61.5t-112.5 -22q-135 0 -207.5 91t-72.5 256v104h102
v-98q0 -118 46.5 -179.5t131.5 -61.5q37 0 68.5 13.5t55.5 39t37 63t13 85.5v186q0 47 16 87t43.5 69.5t65 45.5t81.5 16h127v-393q0 -30 5.5 -54.5t14.5 -44t21.5 -35t28.5 -29.5l5 6q-9 15 -14.5 39t-5.5 47q0 41 17 70.5t44.5 47.5t62.5 26.5t71 8.5v-111zM775 -220
q0 -47 -47 -47q-22 0 -34.5 12t-12.5 35t12.5 35t34.5 12q24 0 35.5 -10.5t11.5 -36.5zM665 -220q0 -23 -12.5 -35t-34.5 -12q-47 0 -47 47q0 26 11.5 36.5t35.5 10.5q22 0 34.5 -12t12.5 -35zM720 -322q0 -27 -11.5 -38t-35.5 -11t-35.5 11t-11.5 38q0 22 12.5 34.5
t34.5 12.5t34.5 -12.5t12.5 -34.5z" />
    <glyph glyph-name="uniFEEC_uniFBFF_uniFBFD.liga" unicode="&#xfeec;&#xfbff;&#xfbfd;" 
d="M1075 0q-47 0 -73 -22.5t-26 -60.5q0 -27 10.5 -58t39.5 -61l-67 -86q-50 17 -94.5 45t-77.5 66t-52.5 87t-19.5 111v289h-18q-24 0 -41.5 -8.5t-29.5 -22.5t-18 -33t-6 -40v-197q0 -68 -22 -124.5t-60 -96t-89.5 -61.5t-112.5 -22q-135 0 -207.5 91t-72.5 256v104h102
v-98q0 -118 46.5 -179.5t131.5 -61.5q37 0 68.5 13.5t55.5 39t37 63t13 85.5v186q0 47 16 87t43.5 69.5t65 45.5t81.5 16h127v-393q0 -30 5.5 -54.5t14.5 -44t21.5 -35t28.5 -29.5l5 6q-9 15 -14.5 39t-5.5 47q0 41 17 70.5t44.5 47.5t62.5 26.5t71 8.5v-111zM571 -221
q0 49 47 49q23 0 35 -12.5t12 -36.5q0 -22 -12 -34t-35 -12t-35 10.5t-12 35.5zM679 -221q0 24 12 36.5t35 12.5q47 0 47 -49q0 -25 -12 -35.5t-35 -10.5t-35 12t-12 34z" />
    <glyph glyph-name="uniFBA9_uniFE8A.liga" unicode="&#xfba9;&#xfe8a;" 
d="M1075 0q-47 0 -73 -22.5t-26 -60.5q0 -27 10.5 -58t39.5 -61l-67 -86q-50 17 -94.5 45t-77.5 66t-52.5 87t-19.5 111v289h-18q-24 0 -41.5 -8.5t-29.5 -22.5t-18 -33t-6 -40v-197q0 -68 -22 -124.5t-60 -96t-89.5 -61.5t-112.5 -22q-135 0 -207.5 91t-72.5 256v104h102
v-98q0 -118 46.5 -179.5t131.5 -61.5q37 0 68.5 13.5t55.5 39t37 63t13 85.5v186q0 47 16 87t43.5 69.5t65 45.5t81.5 16h127v-393q0 -30 5.5 -54.5t14.5 -44t21.5 -35t28.5 -29.5l5 6q-9 15 -14.5 39t-5.5 47q0 41 17 70.5t44.5 47.5t62.5 26.5t71 8.5v-111zM39 207v72
q0 47 29 77t75 30h44v-49h-44q-24 0 -40.5 -16t-16.5 -42v-22h101v-50h-148z" />
    <glyph glyph-name="uniFBA9_uniFEF0.liga" unicode="&#xfba9;&#xfef0;" 
d="M1075 0q-47 0 -73 -22.5t-26 -60.5q0 -27 10.5 -58t39.5 -61l-67 -86q-50 17 -94.5 45t-77.5 66t-52.5 87t-19.5 111v289h-18q-24 0 -41.5 -8.5t-29.5 -22.5t-18 -33t-6 -40v-197q0 -68 -22 -124.5t-60 -96t-89.5 -61.5t-112.5 -22q-135 0 -207.5 91t-72.5 256v104h102
v-98q0 -118 46.5 -179.5t131.5 -61.5q37 0 68.5 13.5t55.5 39t37 63t13 85.5v186q0 47 16 87t43.5 69.5t65 45.5t81.5 16h127v-393q0 -30 5.5 -54.5t14.5 -44t21.5 -35t28.5 -29.5l5 6q-9 15 -14.5 39t-5.5 47q0 41 17 70.5t44.5 47.5t62.5 26.5t71 8.5v-111z" />
    <glyph glyph-name="uniFBA9_uniFEF2.liga" unicode="&#xfba9;&#xfef2;" 
d="M1075 0q-47 0 -73 -22.5t-26 -60.5q0 -27 10.5 -58t39.5 -61l-67 -86q-50 17 -94.5 45t-77.5 66t-52.5 87t-19.5 111v289h-18q-24 0 -41.5 -8.5t-29.5 -22.5t-18 -33t-6 -40v-197q0 -68 -22 -124.5t-60 -96t-89.5 -61.5t-112.5 -22q-135 0 -207.5 91t-72.5 256v104h102
v-98q0 -118 46.5 -179.5t131.5 -61.5q37 0 68.5 13.5t55.5 39t37 63t13 85.5v186q0 47 16 87t43.5 69.5t65 45.5t81.5 16h127v-393q0 -30 5.5 -54.5t14.5 -44t21.5 -35t28.5 -29.5l5 6q-9 15 -14.5 39t-5.5 47q0 41 17 70.5t44.5 47.5t62.5 26.5t71 8.5v-111zM223 -394
q0 51 49 51q24 0 37.5 -13t13.5 -38t-13.5 -37.5t-37.5 -12.5q-23 0 -36 12t-13 38zM337 -394q0 25 13.5 38t37.5 13q49 0 49 -51q0 -26 -13 -38t-36 -12q-24 0 -37.5 12.5t-13.5 37.5z" />
    <glyph glyph-name="uniFBA9_uniFBFD.liga" unicode="&#xfba9;&#xfbfd;" 
d="M1075 0q-47 0 -73 -22.5t-26 -60.5q0 -27 10.5 -58t39.5 -61l-67 -86q-50 17 -94.5 45t-77.5 66t-52.5 87t-19.5 111v289h-18q-24 0 -41.5 -8.5t-29.5 -22.5t-18 -33t-6 -40v-197q0 -68 -22 -124.5t-60 -96t-89.5 -61.5t-112.5 -22q-135 0 -207.5 91t-72.5 256v104h102
v-98q0 -118 46.5 -179.5t131.5 -61.5q37 0 68.5 13.5t55.5 39t37 63t13 85.5v186q0 47 16 87t43.5 69.5t65 45.5t81.5 16h127v-393q0 -30 5.5 -54.5t14.5 -44t21.5 -35t28.5 -29.5l5 6q-9 15 -14.5 39t-5.5 47q0 41 17 70.5t44.5 47.5t62.5 26.5t71 8.5v-111z" />
    <glyph glyph-name="uniFBA9_uniFE8C_uniFE8A.liga" unicode="&#xfba9;&#xfe8c;&#xfe8a;" 
d="M1075 0q-47 0 -73 -22.5t-26 -60.5q0 -27 10.5 -58t39.5 -61l-67 -86q-50 17 -94.5 45t-77.5 66t-52.5 87t-19.5 111v289h-18q-24 0 -41.5 -8.5t-29.5 -22.5t-18 -33t-6 -40v-197q0 -68 -22 -124.5t-60 -96t-89.5 -61.5t-112.5 -22q-135 0 -207.5 91t-72.5 256v104h102
v-98q0 -118 46.5 -179.5t131.5 -61.5q37 0 68.5 13.5t55.5 39t37 63t13 85.5v186q0 47 16 87t43.5 69.5t65 45.5t81.5 16h127v-393q0 -30 5.5 -54.5t14.5 -44t21.5 -35t28.5 -29.5l5 6q-9 15 -14.5 39t-5.5 47q0 41 17 70.5t44.5 47.5t62.5 26.5t71 8.5v-111zM39 207v72
q0 47 29 77t75 30h44v-49h-44q-24 0 -40.5 -16t-16.5 -42v-22h101v-50h-148zM677 527v72q0 47 29 77t75 30h44v-49h-44q-24 0 -40.5 -16t-16.5 -42v-22h101v-50h-148z" />
    <glyph glyph-name="uniFBA9_uniFE92_uniFE8A.liga" unicode="&#xfba9;&#xfe92;&#xfe8a;" 
d="M1075 0q-47 0 -73 -22.5t-26 -60.5q0 -27 10.5 -58t39.5 -61l-67 -86q-50 17 -94.5 45t-77.5 66t-52.5 87t-19.5 111v289h-18q-24 0 -41.5 -8.5t-29.5 -22.5t-18 -33t-6 -40v-197q0 -68 -22 -124.5t-60 -96t-89.5 -61.5t-112.5 -22q-135 0 -207.5 91t-72.5 256v104h102
v-98q0 -118 46.5 -179.5t131.5 -61.5q37 0 68.5 13.5t55.5 39t37 63t13 85.5v186q0 47 16 87t43.5 69.5t65 45.5t81.5 16h127v-393q0 -30 5.5 -54.5t14.5 -44t21.5 -35t28.5 -29.5l5 6q-9 15 -14.5 39t-5.5 47q0 41 17 70.5t44.5 47.5t62.5 26.5t71 8.5v-111zM39 207v72
q0 47 29 77t75 30h44v-49h-44q-24 0 -40.5 -16t-16.5 -42v-22h101v-50h-148zM623 -179q0 49 48 49t48 -49q0 -48 -48 -48t-48 48z" />
    <glyph glyph-name="uniFBA9_uniFE98_uniFE8A.liga" unicode="&#xfba9;&#xfe98;&#xfe8a;" 
d="M1075 0q-47 0 -73 -22.5t-26 -60.5q0 -27 10.5 -58t39.5 -61l-67 -86q-50 17 -94.5 45t-77.5 66t-52.5 87t-19.5 111v289h-18q-24 0 -41.5 -8.5t-29.5 -22.5t-18 -33t-6 -40v-197q0 -68 -22 -124.5t-60 -96t-89.5 -61.5t-112.5 -22q-135 0 -207.5 91t-72.5 256v104h102
v-98q0 -118 46.5 -179.5t131.5 -61.5q37 0 68.5 13.5t55.5 39t37 63t13 85.5v186q0 47 16 87t43.5 69.5t65 45.5t81.5 16h127v-393q0 -30 5.5 -54.5t14.5 -44t21.5 -35t28.5 -29.5l5 6q-9 15 -14.5 39t-5.5 47q0 41 17 70.5t44.5 47.5t62.5 26.5t71 8.5v-111zM39 207v72
q0 47 29 77t75 30h44v-49h-44q-24 0 -40.5 -16t-16.5 -42v-22h101v-50h-148zM615 620q0 51 49 51q24 0 37.5 -13t13.5 -38t-13.5 -37.5t-37.5 -12.5q-23 0 -36 12t-13 38zM729 620q0 25 13.5 38t37.5 13q49 0 49 -51q0 -26 -13 -38t-36 -12q-24 0 -37.5 12.5t-13.5 37.5z
" />
    <glyph glyph-name="uniFBA9_uniFE9C_uniFE8A.liga" unicode="&#xfba9;&#xfe9c;&#xfe8a;" 
d="M1075 0q-47 0 -73 -22.5t-26 -60.5q0 -27 10.5 -58t39.5 -61l-67 -86q-50 17 -94.5 45t-77.5 66t-52.5 87t-19.5 111v289h-18q-24 0 -41.5 -8.5t-29.5 -22.5t-18 -33t-6 -40v-197q0 -68 -22 -124.5t-60 -96t-89.5 -61.5t-112.5 -22q-135 0 -207.5 91t-72.5 256v104h102
v-98q0 -118 46.5 -179.5t131.5 -61.5q37 0 68.5 13.5t55.5 39t37 63t13 85.5v186q0 47 16 87t43.5 69.5t65 45.5t81.5 16h127v-393q0 -30 5.5 -54.5t14.5 -44t21.5 -35t28.5 -29.5l5 6q-9 15 -14.5 39t-5.5 47q0 41 17 70.5t44.5 47.5t62.5 26.5t71 8.5v-111zM39 207v72
q0 47 29 77t75 30h44v-49h-44q-24 0 -40.5 -16t-16.5 -42v-22h101v-50h-148zM610 571q0 51 51 51q24 0 37 -13t13 -38t-13 -38t-37 -13q-25 0 -38 12t-13 39zM729 571q0 25 13 38t37 13q51 0 51 -51q0 -27 -13 -39t-38 -12q-24 0 -37 13t-13 38zM669 681q0 28 13 39.5
t38 11.5t38 -11.5t13 -39.5q0 -25 -13.5 -38t-37.5 -13t-37.5 13t-13.5 38z" />
    <glyph glyph-name="uniFBA9_uniFEE8_uniFE8A.liga" unicode="&#xfba9;&#xfee8;&#xfe8a;" 
d="M1075 0q-47 0 -73 -22.5t-26 -60.5q0 -27 10.5 -58t39.5 -61l-67 -86q-50 17 -94.5 45t-77.5 66t-52.5 87t-19.5 111v289h-18q-24 0 -41.5 -8.5t-29.5 -22.5t-18 -33t-6 -40v-197q0 -68 -22 -124.5t-60 -96t-89.5 -61.5t-112.5 -22q-135 0 -207.5 91t-72.5 256v104h102
v-98q0 -118 46.5 -179.5t131.5 -61.5q37 0 68.5 13.5t55.5 39t37 63t13 85.5v186q0 47 16 87t43.5 69.5t65 45.5t81.5 16h127v-393q0 -30 5.5 -54.5t14.5 -44t21.5 -35t28.5 -29.5l5 6q-9 15 -14.5 39t-5.5 47q0 41 17 70.5t44.5 47.5t62.5 26.5t71 8.5v-111zM39 207v72
q0 47 29 77t75 30h44v-49h-44q-24 0 -40.5 -16t-16.5 -42v-22h101v-50h-148zM709 620q0 52 52 52t52 -52q0 -53 -52 -53t-52 53z" />
    <glyph glyph-name="uniFBA9_uniFBE9_uniFE8A.liga" unicode="&#xfba9;&#xfbe9;&#xfe8a;" 
d="M1075 0q-47 0 -73 -22.5t-26 -60.5q0 -27 10.5 -58t39.5 -61l-67 -86q-50 17 -94.5 45t-77.5 66t-52.5 87t-19.5 111v289h-18q-24 0 -41.5 -8.5t-29.5 -22.5t-18 -33t-6 -40v-197q0 -68 -22 -124.5t-60 -96t-89.5 -61.5t-112.5 -22q-135 0 -207.5 91t-72.5 256v104h102
v-98q0 -118 46.5 -179.5t131.5 -61.5q37 0 68.5 13.5t55.5 39t37 63t13 85.5v186q0 47 16 87t43.5 69.5t65 45.5t81.5 16h127v-393q0 -30 5.5 -54.5t14.5 -44t21.5 -35t28.5 -29.5l5 6q-9 15 -14.5 39t-5.5 47q0 41 17 70.5t44.5 47.5t62.5 26.5t71 8.5v-111zM39 207v72
q0 47 29 77t75 30h44v-49h-44q-24 0 -40.5 -16t-16.5 -42v-22h101v-50h-148z" />
    <glyph glyph-name="uniFBA9_uniFEF4_uniFE8A.liga" unicode="&#xfba9;&#xfef4;&#xfe8a;" 
d="M1075 0q-47 0 -73 -22.5t-26 -60.5q0 -27 10.5 -58t39.5 -61l-67 -86q-50 17 -94.5 45t-77.5 66t-52.5 87t-19.5 111v289h-18q-24 0 -41.5 -8.5t-29.5 -22.5t-18 -33t-6 -40v-197q0 -68 -22 -124.5t-60 -96t-89.5 -61.5t-112.5 -22q-135 0 -207.5 91t-72.5 256v104h102
v-98q0 -118 46.5 -179.5t131.5 -61.5q37 0 68.5 13.5t55.5 39t37 63t13 85.5v186q0 47 16 87t43.5 69.5t65 45.5t81.5 16h127v-393q0 -30 5.5 -54.5t14.5 -44t21.5 -35t28.5 -29.5l5 6q-9 15 -14.5 39t-5.5 47q0 41 17 70.5t44.5 47.5t62.5 26.5t71 8.5v-111zM39 207v72
q0 47 29 77t75 30h44v-49h-44q-24 0 -40.5 -16t-16.5 -42v-22h101v-50h-148zM571 -221q0 49 47 49q23 0 35 -12.5t12 -36.5q0 -22 -12 -34t-35 -12t-35 10.5t-12 35.5zM679 -221q0 24 12 36.5t35 12.5q47 0 47 -49q0 -25 -12 -35.5t-35 -10.5t-35 12t-12 34z" />
    <glyph glyph-name="uniFBA9_uniFB69_uniFE8A.liga" unicode="&#xfba9;&#xfb69;&#xfe8a;" 
d="M1075 0q-47 0 -73 -22.5t-26 -60.5q0 -27 10.5 -58t39.5 -61l-67 -86q-50 17 -94.5 45t-77.5 66t-52.5 87t-19.5 111v289h-18q-24 0 -41.5 -8.5t-29.5 -22.5t-18 -33t-6 -40v-197q0 -68 -22 -124.5t-60 -96t-89.5 -61.5t-112.5 -22q-135 0 -207.5 91t-72.5 256v104h102
v-98q0 -118 46.5 -179.5t131.5 -61.5q37 0 68.5 13.5t55.5 39t37 63t13 85.5v186q0 47 16 87t43.5 69.5t65 45.5t81.5 16h127v-393q0 -30 5.5 -54.5t14.5 -44t21.5 -35t28.5 -29.5l5 6q-9 15 -14.5 39t-5.5 47q0 41 17 70.5t44.5 47.5t62.5 26.5t71 8.5v-111zM39 207v72
q0 47 29 77t75 30h44v-49h-44q-24 0 -40.5 -16t-16.5 -42v-22h101v-50h-148zM635 533v38h34v123h37v-54q0 -5 -1 -12t-3 -14l2 -1l9 12q12 15 26 22.5t29 7.5q20 0 37.5 -14.5t17.5 -49.5v-58h-188zM787 587q0 13 -4.5 21t-15.5 8q-10 0 -17.5 -6t-16.5 -17l-20 -22h74v16z
" />
    <glyph glyph-name="uniFBA9_uniFB59_uniFE8A.liga" unicode="&#xfba9;&#xfb59;&#xfe8a;" 
d="M1075 0q-47 0 -73 -22.5t-26 -60.5q0 -27 10.5 -58t39.5 -61l-67 -86q-50 17 -94.5 45t-77.5 66t-52.5 87t-19.5 111v289h-18q-24 0 -41.5 -8.5t-29.5 -22.5t-18 -33t-6 -40v-197q0 -68 -22 -124.5t-60 -96t-89.5 -61.5t-112.5 -22q-135 0 -207.5 91t-72.5 256v104h102
v-98q0 -118 46.5 -179.5t131.5 -61.5q37 0 68.5 13.5t55.5 39t37 63t13 85.5v186q0 47 16 87t43.5 69.5t65 45.5t81.5 16h127v-393q0 -30 5.5 -54.5t14.5 -44t21.5 -35t28.5 -29.5l5 6q-9 15 -14.5 39t-5.5 47q0 41 17 70.5t44.5 47.5t62.5 26.5t71 8.5v-111zM39 207v72
q0 47 29 77t75 30h44v-49h-44q-24 0 -40.5 -16t-16.5 -42v-22h101v-50h-148zM775 -220q0 -47 -47 -47q-22 0 -34.5 12t-12.5 35t12.5 35t34.5 12q24 0 35.5 -10.5t11.5 -36.5zM665 -220q0 -23 -12.5 -35t-34.5 -12q-47 0 -47 47q0 26 11.5 36.5t35.5 10.5q22 0 34.5 -12
t12.5 -35zM720 -322q0 -27 -11.5 -38t-35.5 -11t-35.5 11t-11.5 38q0 22 12.5 34.5t34.5 12.5t34.5 -12.5t12.5 -34.5z" />
    <glyph glyph-name="uniFBA9_uniFBFF_uniFE8A.liga" unicode="&#xfba9;&#xfbff;&#xfe8a;" 
d="M1075 0q-47 0 -73 -22.5t-26 -60.5q0 -27 10.5 -58t39.5 -61l-67 -86q-50 17 -94.5 45t-77.5 66t-52.5 87t-19.5 111v289h-18q-24 0 -41.5 -8.5t-29.5 -22.5t-18 -33t-6 -40v-197q0 -68 -22 -124.5t-60 -96t-89.5 -61.5t-112.5 -22q-135 0 -207.5 91t-72.5 256v104h102
v-98q0 -118 46.5 -179.5t131.5 -61.5q37 0 68.5 13.5t55.5 39t37 63t13 85.5v186q0 47 16 87t43.5 69.5t65 45.5t81.5 16h127v-393q0 -30 5.5 -54.5t14.5 -44t21.5 -35t28.5 -29.5l5 6q-9 15 -14.5 39t-5.5 47q0 41 17 70.5t44.5 47.5t62.5 26.5t71 8.5v-111zM39 207v72
q0 47 29 77t75 30h44v-49h-44q-24 0 -40.5 -16t-16.5 -42v-22h101v-50h-148zM571 -221q0 49 47 49q23 0 35 -12.5t12 -36.5q0 -22 -12 -34t-35 -12t-35 10.5t-12 35.5zM679 -221q0 24 12 36.5t35 12.5q47 0 47 -49q0 -25 -12 -35.5t-35 -10.5t-35 12t-12 34z" />
    <glyph glyph-name="uniFBA9_uniFE8C_uniFEF0.liga" unicode="&#xfba9;&#xfe8c;&#xfef0;" 
d="M1075 0q-47 0 -73 -22.5t-26 -60.5q0 -27 10.5 -58t39.5 -61l-67 -86q-50 17 -94.5 45t-77.5 66t-52.5 87t-19.5 111v289h-18q-24 0 -41.5 -8.5t-29.5 -22.5t-18 -33t-6 -40v-197q0 -68 -22 -124.5t-60 -96t-89.5 -61.5t-112.5 -22q-135 0 -207.5 91t-72.5 256v104h102
v-98q0 -118 46.5 -179.5t131.5 -61.5q37 0 68.5 13.5t55.5 39t37 63t13 85.5v186q0 47 16 87t43.5 69.5t65 45.5t81.5 16h127v-393q0 -30 5.5 -54.5t14.5 -44t21.5 -35t28.5 -29.5l5 6q-9 15 -14.5 39t-5.5 47q0 41 17 70.5t44.5 47.5t62.5 26.5t71 8.5v-111zM677 527v72
q0 47 29 77t75 30h44v-49h-44q-24 0 -40.5 -16t-16.5 -42v-22h101v-50h-148z" />
    <glyph glyph-name="uniFBA9_uniFE92_uniFEF0.liga" unicode="&#xfba9;&#xfe92;&#xfef0;" 
d="M1075 0q-47 0 -73 -22.5t-26 -60.5q0 -27 10.5 -58t39.5 -61l-67 -86q-50 17 -94.5 45t-77.5 66t-52.5 87t-19.5 111v289h-18q-24 0 -41.5 -8.5t-29.5 -22.5t-18 -33t-6 -40v-197q0 -68 -22 -124.5t-60 -96t-89.5 -61.5t-112.5 -22q-135 0 -207.5 91t-72.5 256v104h102
v-98q0 -118 46.5 -179.5t131.5 -61.5q37 0 68.5 13.5t55.5 39t37 63t13 85.5v186q0 47 16 87t43.5 69.5t65 45.5t81.5 16h127v-393q0 -30 5.5 -54.5t14.5 -44t21.5 -35t28.5 -29.5l5 6q-9 15 -14.5 39t-5.5 47q0 41 17 70.5t44.5 47.5t62.5 26.5t71 8.5v-111zM623 -179
q0 49 48 49t48 -49q0 -48 -48 -48t-48 48z" />
    <glyph glyph-name="uniFBA9_uniFE98_uniFEF0.liga" unicode="&#xfba9;&#xfe98;&#xfef0;" 
d="M1075 0q-47 0 -73 -22.5t-26 -60.5q0 -27 10.5 -58t39.5 -61l-67 -86q-50 17 -94.5 45t-77.5 66t-52.5 87t-19.5 111v289h-18q-24 0 -41.5 -8.5t-29.5 -22.5t-18 -33t-6 -40v-197q0 -68 -22 -124.5t-60 -96t-89.5 -61.5t-112.5 -22q-135 0 -207.5 91t-72.5 256v104h102
v-98q0 -118 46.5 -179.5t131.5 -61.5q37 0 68.5 13.5t55.5 39t37 63t13 85.5v186q0 47 16 87t43.5 69.5t65 45.5t81.5 16h127v-393q0 -30 5.5 -54.5t14.5 -44t21.5 -35t28.5 -29.5l5 6q-9 15 -14.5 39t-5.5 47q0 41 17 70.5t44.5 47.5t62.5 26.5t71 8.5v-111zM615 620
q0 51 49 51q24 0 37.5 -13t13.5 -38t-13.5 -37.5t-37.5 -12.5q-23 0 -36 12t-13 38zM729 620q0 25 13.5 38t37.5 13q49 0 49 -51q0 -26 -13 -38t-36 -12q-24 0 -37.5 12.5t-13.5 37.5z" />
    <glyph glyph-name="uniFBA9_uniFE9C_uniFEF0.liga" unicode="&#xfba9;&#xfe9c;&#xfef0;" 
d="M1075 0q-47 0 -73 -22.5t-26 -60.5q0 -27 10.5 -58t39.5 -61l-67 -86q-50 17 -94.5 45t-77.5 66t-52.5 87t-19.5 111v289h-18q-24 0 -41.5 -8.5t-29.5 -22.5t-18 -33t-6 -40v-197q0 -68 -22 -124.5t-60 -96t-89.5 -61.5t-112.5 -22q-135 0 -207.5 91t-72.5 256v104h102
v-98q0 -118 46.5 -179.5t131.5 -61.5q37 0 68.5 13.5t55.5 39t37 63t13 85.5v186q0 47 16 87t43.5 69.5t65 45.5t81.5 16h127v-393q0 -30 5.5 -54.5t14.5 -44t21.5 -35t28.5 -29.5l5 6q-9 15 -14.5 39t-5.5 47q0 41 17 70.5t44.5 47.5t62.5 26.5t71 8.5v-111zM610 571
q0 51 51 51q24 0 37 -13t13 -38t-13 -38t-37 -13q-25 0 -38 12t-13 39zM729 571q0 25 13 38t37 13q51 0 51 -51q0 -27 -13 -39t-38 -12q-24 0 -37 13t-13 38zM669 681q0 28 13 39.5t38 11.5t38 -11.5t13 -39.5q0 -25 -13.5 -38t-37.5 -13t-37.5 13t-13.5 38z" />
    <glyph glyph-name="uniFBA9_uniFEE8_uniFEF0.liga" unicode="&#xfba9;&#xfee8;&#xfef0;" 
d="M1075 0q-47 0 -73 -22.5t-26 -60.5q0 -27 10.5 -58t39.5 -61l-67 -86q-50 17 -94.5 45t-77.5 66t-52.5 87t-19.5 111v289h-18q-24 0 -41.5 -8.5t-29.5 -22.5t-18 -33t-6 -40v-197q0 -68 -22 -124.5t-60 -96t-89.5 -61.5t-112.5 -22q-135 0 -207.5 91t-72.5 256v104h102
v-98q0 -118 46.5 -179.5t131.5 -61.5q37 0 68.5 13.5t55.5 39t37 63t13 85.5v186q0 47 16 87t43.5 69.5t65 45.5t81.5 16h127v-393q0 -30 5.5 -54.5t14.5 -44t21.5 -35t28.5 -29.5l5 6q-9 15 -14.5 39t-5.5 47q0 41 17 70.5t44.5 47.5t62.5 26.5t71 8.5v-111zM709 620
q0 52 52 52t52 -52q0 -53 -52 -53t-52 53z" />
    <glyph glyph-name="uniFBA9_uniFBE9_uniFEF0.liga" unicode="&#xfba9;&#xfbe9;&#xfef0;" 
d="M1075 0q-47 0 -73 -22.5t-26 -60.5q0 -27 10.5 -58t39.5 -61l-67 -86q-50 17 -94.5 45t-77.5 66t-52.5 87t-19.5 111v289h-18q-24 0 -41.5 -8.5t-29.5 -22.5t-18 -33t-6 -40v-197q0 -68 -22 -124.5t-60 -96t-89.5 -61.5t-112.5 -22q-135 0 -207.5 91t-72.5 256v104h102
v-98q0 -118 46.5 -179.5t131.5 -61.5q37 0 68.5 13.5t55.5 39t37 63t13 85.5v186q0 47 16 87t43.5 69.5t65 45.5t81.5 16h127v-393q0 -30 5.5 -54.5t14.5 -44t21.5 -35t28.5 -29.5l5 6q-9 15 -14.5 39t-5.5 47q0 41 17 70.5t44.5 47.5t62.5 26.5t71 8.5v-111z" />
    <glyph glyph-name="uniFBA9_uniFEF4_uniFEF0.liga" unicode="&#xfba9;&#xfef4;&#xfef0;" 
d="M1075 0q-47 0 -73 -22.5t-26 -60.5q0 -27 10.5 -58t39.5 -61l-67 -86q-50 17 -94.5 45t-77.5 66t-52.5 87t-19.5 111v289h-18q-24 0 -41.5 -8.5t-29.5 -22.5t-18 -33t-6 -40v-197q0 -68 -22 -124.5t-60 -96t-89.5 -61.5t-112.5 -22q-135 0 -207.5 91t-72.5 256v104h102
v-98q0 -118 46.5 -179.5t131.5 -61.5q37 0 68.5 13.5t55.5 39t37 63t13 85.5v186q0 47 16 87t43.5 69.5t65 45.5t81.5 16h127v-393q0 -30 5.5 -54.5t14.5 -44t21.5 -35t28.5 -29.5l5 6q-9 15 -14.5 39t-5.5 47q0 41 17 70.5t44.5 47.5t62.5 26.5t71 8.5v-111zM571 -221
q0 49 47 49q23 0 35 -12.5t12 -36.5q0 -22 -12 -34t-35 -12t-35 10.5t-12 35.5zM679 -221q0 24 12 36.5t35 12.5q47 0 47 -49q0 -25 -12 -35.5t-35 -10.5t-35 12t-12 34z" />
    <glyph glyph-name="uniFBA9_uniFB69_uniFEF0.liga" unicode="&#xfba9;&#xfb69;&#xfef0;" 
d="M1075 0q-47 0 -73 -22.5t-26 -60.5q0 -27 10.5 -58t39.5 -61l-67 -86q-50 17 -94.5 45t-77.5 66t-52.5 87t-19.5 111v289h-18q-24 0 -41.5 -8.5t-29.5 -22.5t-18 -33t-6 -40v-197q0 -68 -22 -124.5t-60 -96t-89.5 -61.5t-112.5 -22q-135 0 -207.5 91t-72.5 256v104h102
v-98q0 -118 46.5 -179.5t131.5 -61.5q37 0 68.5 13.5t55.5 39t37 63t13 85.5v186q0 47 16 87t43.5 69.5t65 45.5t81.5 16h127v-393q0 -30 5.5 -54.5t14.5 -44t21.5 -35t28.5 -29.5l5 6q-9 15 -14.5 39t-5.5 47q0 41 17 70.5t44.5 47.5t62.5 26.5t71 8.5v-111zM635 533v38h34
v123h37v-54q0 -5 -1 -12t-3 -14l2 -1l9 12q12 15 26 22.5t29 7.5q20 0 37.5 -14.5t17.5 -49.5v-58h-188zM787 587q0 13 -4.5 21t-15.5 8q-10 0 -17.5 -6t-16.5 -17l-20 -22h74v16z" />
    <glyph glyph-name="uniFBA9_uniFB59_uniFEF0.liga" unicode="&#xfba9;&#xfb59;&#xfef0;" 
d="M1075 0q-47 0 -73 -22.5t-26 -60.5q0 -27 10.5 -58t39.5 -61l-67 -86q-50 17 -94.5 45t-77.5 66t-52.5 87t-19.5 111v289h-18q-24 0 -41.5 -8.5t-29.5 -22.5t-18 -33t-6 -40v-197q0 -68 -22 -124.5t-60 -96t-89.5 -61.5t-112.5 -22q-135 0 -207.5 91t-72.5 256v104h102
v-98q0 -118 46.5 -179.5t131.5 -61.5q37 0 68.5 13.5t55.5 39t37 63t13 85.5v186q0 47 16 87t43.5 69.5t65 45.5t81.5 16h127v-393q0 -30 5.5 -54.5t14.5 -44t21.5 -35t28.5 -29.5l5 6q-9 15 -14.5 39t-5.5 47q0 41 17 70.5t44.5 47.5t62.5 26.5t71 8.5v-111zM775 -220
q0 -47 -47 -47q-22 0 -34.5 12t-12.5 35t12.5 35t34.5 12q24 0 35.5 -10.5t11.5 -36.5zM665 -220q0 -23 -12.5 -35t-34.5 -12q-47 0 -47 47q0 26 11.5 36.5t35.5 10.5q22 0 34.5 -12t12.5 -35zM720 -322q0 -27 -11.5 -38t-35.5 -11t-35.5 11t-11.5 38q0 22 12.5 34.5
t34.5 12.5t34.5 -12.5t12.5 -34.5z" />
    <glyph glyph-name="uniFBA9_uniFBFF_uniFEF0.liga" unicode="&#xfba9;&#xfbff;&#xfef0;" 
d="M1075 0q-47 0 -73 -22.5t-26 -60.5q0 -27 10.5 -58t39.5 -61l-67 -86q-50 17 -94.5 45t-77.5 66t-52.5 87t-19.5 111v289h-18q-24 0 -41.5 -8.5t-29.5 -22.5t-18 -33t-6 -40v-197q0 -68 -22 -124.5t-60 -96t-89.5 -61.5t-112.5 -22q-135 0 -207.5 91t-72.5 256v104h102
v-98q0 -118 46.5 -179.5t131.5 -61.5q37 0 68.5 13.5t55.5 39t37 63t13 85.5v186q0 47 16 87t43.5 69.5t65 45.5t81.5 16h127v-393q0 -30 5.5 -54.5t14.5 -44t21.5 -35t28.5 -29.5l5 6q-9 15 -14.5 39t-5.5 47q0 41 17 70.5t44.5 47.5t62.5 26.5t71 8.5v-111zM571 -221
q0 49 47 49q23 0 35 -12.5t12 -36.5q0 -22 -12 -34t-35 -12t-35 10.5t-12 35.5zM679 -221q0 24 12 36.5t35 12.5q47 0 47 -49q0 -25 -12 -35.5t-35 -10.5t-35 12t-12 34z" />
    <glyph glyph-name="uniFBA9_uniFE8C_uniFEF2.liga" unicode="&#xfba9;&#xfe8c;&#xfef2;" 
d="M1075 0q-47 0 -73 -22.5t-26 -60.5q0 -27 10.5 -58t39.5 -61l-67 -86q-50 17 -94.5 45t-77.5 66t-52.5 87t-19.5 111v289h-18q-24 0 -41.5 -8.5t-29.5 -22.5t-18 -33t-6 -40v-197q0 -68 -22 -124.5t-60 -96t-89.5 -61.5t-112.5 -22q-135 0 -207.5 91t-72.5 256v104h102
v-98q0 -118 46.5 -179.5t131.5 -61.5q37 0 68.5 13.5t55.5 39t37 63t13 85.5v186q0 47 16 87t43.5 69.5t65 45.5t81.5 16h127v-393q0 -30 5.5 -54.5t14.5 -44t21.5 -35t28.5 -29.5l5 6q-9 15 -14.5 39t-5.5 47q0 41 17 70.5t44.5 47.5t62.5 26.5t71 8.5v-111zM677 527v72
q0 47 29 77t75 30h44v-49h-44q-24 0 -40.5 -16t-16.5 -42v-22h101v-50h-148zM223 -394q0 51 49 51q24 0 37.5 -13t13.5 -38t-13.5 -37.5t-37.5 -12.5q-23 0 -36 12t-13 38zM337 -394q0 25 13.5 38t37.5 13q49 0 49 -51q0 -26 -13 -38t-36 -12q-24 0 -37.5 12.5t-13.5 37.5z
" />
    <glyph glyph-name="uniFBA9_uniFE92_uniFEF2.liga" unicode="&#xfba9;&#xfe92;&#xfef2;" 
d="M1075 0q-47 0 -73 -22.5t-26 -60.5q0 -27 10.5 -58t39.5 -61l-67 -86q-50 17 -94.5 45t-77.5 66t-52.5 87t-19.5 111v289h-18q-24 0 -41.5 -8.5t-29.5 -22.5t-18 -33t-6 -40v-197q0 -68 -22 -124.5t-60 -96t-89.5 -61.5t-112.5 -22q-135 0 -207.5 91t-72.5 256v104h102
v-98q0 -118 46.5 -179.5t131.5 -61.5q37 0 68.5 13.5t55.5 39t37 63t13 85.5v186q0 47 16 87t43.5 69.5t65 45.5t81.5 16h127v-393q0 -30 5.5 -54.5t14.5 -44t21.5 -35t28.5 -29.5l5 6q-9 15 -14.5 39t-5.5 47q0 41 17 70.5t44.5 47.5t62.5 26.5t71 8.5v-111zM623 -179
q0 49 48 49t48 -49q0 -48 -48 -48t-48 48zM223 -394q0 51 49 51q24 0 37.5 -13t13.5 -38t-13.5 -37.5t-37.5 -12.5q-23 0 -36 12t-13 38zM337 -394q0 25 13.5 38t37.5 13q49 0 49 -51q0 -26 -13 -38t-36 -12q-24 0 -37.5 12.5t-13.5 37.5z" />
    <glyph glyph-name="uniFBA9_uniFE98_uniFEF2.liga" unicode="&#xfba9;&#xfe98;&#xfef2;" 
d="M1075 0q-47 0 -73 -22.5t-26 -60.5q0 -27 10.5 -58t39.5 -61l-67 -86q-50 17 -94.5 45t-77.5 66t-52.5 87t-19.5 111v289h-18q-24 0 -41.5 -8.5t-29.5 -22.5t-18 -33t-6 -40v-197q0 -68 -22 -124.5t-60 -96t-89.5 -61.5t-112.5 -22q-135 0 -207.5 91t-72.5 256v104h102
v-98q0 -118 46.5 -179.5t131.5 -61.5q37 0 68.5 13.5t55.5 39t37 63t13 85.5v186q0 47 16 87t43.5 69.5t65 45.5t81.5 16h127v-393q0 -30 5.5 -54.5t14.5 -44t21.5 -35t28.5 -29.5l5 6q-9 15 -14.5 39t-5.5 47q0 41 17 70.5t44.5 47.5t62.5 26.5t71 8.5v-111zM615 620
q0 51 49 51q24 0 37.5 -13t13.5 -38t-13.5 -37.5t-37.5 -12.5q-23 0 -36 12t-13 38zM729 620q0 25 13.5 38t37.5 13q49 0 49 -51q0 -26 -13 -38t-36 -12q-24 0 -37.5 12.5t-13.5 37.5zM223 -394q0 51 49 51q24 0 37.5 -13t13.5 -38t-13.5 -37.5t-37.5 -12.5q-23 0 -36 12
t-13 38zM337 -394q0 25 13.5 38t37.5 13q49 0 49 -51q0 -26 -13 -38t-36 -12q-24 0 -37.5 12.5t-13.5 37.5z" />
    <glyph glyph-name="uniFBA9_uniFE9C_uniFEF2.liga" unicode="&#xfba9;&#xfe9c;&#xfef2;" 
d="M1075 0q-47 0 -73 -22.5t-26 -60.5q0 -27 10.5 -58t39.5 -61l-67 -86q-50 17 -94.5 45t-77.5 66t-52.5 87t-19.5 111v289h-18q-24 0 -41.5 -8.5t-29.5 -22.5t-18 -33t-6 -40v-197q0 -68 -22 -124.5t-60 -96t-89.5 -61.5t-112.5 -22q-135 0 -207.5 91t-72.5 256v104h102
v-98q0 -118 46.5 -179.5t131.5 -61.5q37 0 68.5 13.5t55.5 39t37 63t13 85.5v186q0 47 16 87t43.5 69.5t65 45.5t81.5 16h127v-393q0 -30 5.5 -54.5t14.5 -44t21.5 -35t28.5 -29.5l5 6q-9 15 -14.5 39t-5.5 47q0 41 17 70.5t44.5 47.5t62.5 26.5t71 8.5v-111zM610 571
q0 51 51 51q24 0 37 -13t13 -38t-13 -38t-37 -13q-25 0 -38 12t-13 39zM729 571q0 25 13 38t37 13q51 0 51 -51q0 -27 -13 -39t-38 -12q-24 0 -37 13t-13 38zM669 681q0 28 13 39.5t38 11.5t38 -11.5t13 -39.5q0 -25 -13.5 -38t-37.5 -13t-37.5 13t-13.5 38zM223 -394
q0 51 49 51q24 0 37.5 -13t13.5 -38t-13.5 -37.5t-37.5 -12.5q-23 0 -36 12t-13 38zM337 -394q0 25 13.5 38t37.5 13q49 0 49 -51q0 -26 -13 -38t-36 -12q-24 0 -37.5 12.5t-13.5 37.5z" />
    <glyph glyph-name="uniFBA9_uniFEE8_uniFEF2.liga" unicode="&#xfba9;&#xfee8;&#xfef2;" 
d="M1075 0q-47 0 -73 -22.5t-26 -60.5q0 -27 10.5 -58t39.5 -61l-67 -86q-50 17 -94.5 45t-77.5 66t-52.5 87t-19.5 111v289h-18q-24 0 -41.5 -8.5t-29.5 -22.5t-18 -33t-6 -40v-197q0 -68 -22 -124.5t-60 -96t-89.5 -61.5t-112.5 -22q-135 0 -207.5 91t-72.5 256v104h102
v-98q0 -118 46.5 -179.5t131.5 -61.5q37 0 68.5 13.5t55.5 39t37 63t13 85.5v186q0 47 16 87t43.5 69.5t65 45.5t81.5 16h127v-393q0 -30 5.5 -54.5t14.5 -44t21.5 -35t28.5 -29.5l5 6q-9 15 -14.5 39t-5.5 47q0 41 17 70.5t44.5 47.5t62.5 26.5t71 8.5v-111zM709 620
q0 52 52 52t52 -52q0 -53 -52 -53t-52 53zM223 -394q0 51 49 51q24 0 37.5 -13t13.5 -38t-13.5 -37.5t-37.5 -12.5q-23 0 -36 12t-13 38zM337 -394q0 25 13.5 38t37.5 13q49 0 49 -51q0 -26 -13 -38t-36 -12q-24 0 -37.5 12.5t-13.5 37.5z" />
    <glyph glyph-name="uniFBA9_uniFBE9_uniFEF2.liga" unicode="&#xfba9;&#xfbe9;&#xfef2;" 
d="M1075 0q-47 0 -73 -22.5t-26 -60.5q0 -27 10.5 -58t39.5 -61l-67 -86q-50 17 -94.5 45t-77.5 66t-52.5 87t-19.5 111v289h-18q-24 0 -41.5 -8.5t-29.5 -22.5t-18 -33t-6 -40v-197q0 -68 -22 -124.5t-60 -96t-89.5 -61.5t-112.5 -22q-135 0 -207.5 91t-72.5 256v104h102
v-98q0 -118 46.5 -179.5t131.5 -61.5q37 0 68.5 13.5t55.5 39t37 63t13 85.5v186q0 47 16 87t43.5 69.5t65 45.5t81.5 16h127v-393q0 -30 5.5 -54.5t14.5 -44t21.5 -35t28.5 -29.5l5 6q-9 15 -14.5 39t-5.5 47q0 41 17 70.5t44.5 47.5t62.5 26.5t71 8.5v-111zM223 -394
q0 51 49 51q24 0 37.5 -13t13.5 -38t-13.5 -37.5t-37.5 -12.5q-23 0 -36 12t-13 38zM337 -394q0 25 13.5 38t37.5 13q49 0 49 -51q0 -26 -13 -38t-36 -12q-24 0 -37.5 12.5t-13.5 37.5z" />
    <glyph glyph-name="uniFBA9_uniFEF4_uniFEF2.liga" unicode="&#xfba9;&#xfef4;&#xfef2;" 
d="M1075 0q-47 0 -73 -22.5t-26 -60.5q0 -27 10.5 -58t39.5 -61l-67 -86q-50 17 -94.5 45t-77.5 66t-52.5 87t-19.5 111v289h-18q-24 0 -41.5 -8.5t-29.5 -22.5t-18 -33t-6 -40v-197q0 -68 -22 -124.5t-60 -96t-89.5 -61.5t-112.5 -22q-135 0 -207.5 91t-72.5 256v104h102
v-98q0 -118 46.5 -179.5t131.5 -61.5q37 0 68.5 13.5t55.5 39t37 63t13 85.5v186q0 47 16 87t43.5 69.5t65 45.5t81.5 16h127v-393q0 -30 5.5 -54.5t14.5 -44t21.5 -35t28.5 -29.5l5 6q-9 15 -14.5 39t-5.5 47q0 41 17 70.5t44.5 47.5t62.5 26.5t71 8.5v-111zM571 -221
q0 49 47 49q23 0 35 -12.5t12 -36.5q0 -22 -12 -34t-35 -12t-35 10.5t-12 35.5zM679 -221q0 24 12 36.5t35 12.5q47 0 47 -49q0 -25 -12 -35.5t-35 -10.5t-35 12t-12 34zM223 -394q0 51 49 51q24 0 37.5 -13t13.5 -38t-13.5 -37.5t-37.5 -12.5q-23 0 -36 12t-13 38z
M337 -394q0 25 13.5 38t37.5 13q49 0 49 -51q0 -26 -13 -38t-36 -12q-24 0 -37.5 12.5t-13.5 37.5z" />
    <glyph glyph-name="uniFBA9_uniFB69_uniFEF2.liga" unicode="&#xfba9;&#xfb69;&#xfef2;" 
d="M1075 0q-47 0 -73 -22.5t-26 -60.5q0 -27 10.5 -58t39.5 -61l-67 -86q-50 17 -94.5 45t-77.5 66t-52.5 87t-19.5 111v289h-18q-24 0 -41.5 -8.5t-29.5 -22.5t-18 -33t-6 -40v-197q0 -68 -22 -124.5t-60 -96t-89.5 -61.5t-112.5 -22q-135 0 -207.5 91t-72.5 256v104h102
v-98q0 -118 46.5 -179.5t131.5 -61.5q37 0 68.5 13.5t55.5 39t37 63t13 85.5v186q0 47 16 87t43.5 69.5t65 45.5t81.5 16h127v-393q0 -30 5.5 -54.5t14.5 -44t21.5 -35t28.5 -29.5l5 6q-9 15 -14.5 39t-5.5 47q0 41 17 70.5t44.5 47.5t62.5 26.5t71 8.5v-111zM635 533v38h34
v123h37v-54q0 -5 -1 -12t-3 -14l2 -1l9 12q12 15 26 22.5t29 7.5q20 0 37.5 -14.5t17.5 -49.5v-58h-188zM787 587q0 13 -4.5 21t-15.5 8q-10 0 -17.5 -6t-16.5 -17l-20 -22h74v16zM223 -394q0 51 49 51q24 0 37.5 -13t13.5 -38t-13.5 -37.5t-37.5 -12.5q-23 0 -36 12t-13 38
zM337 -394q0 25 13.5 38t37.5 13q49 0 49 -51q0 -26 -13 -38t-36 -12q-24 0 -37.5 12.5t-13.5 37.5z" />
    <glyph glyph-name="uniFBA9_uniFB59_uniFEF2.liga" unicode="&#xfba9;&#xfb59;&#xfef2;" 
d="M1075 0q-47 0 -73 -22.5t-26 -60.5q0 -27 10.5 -58t39.5 -61l-67 -86q-50 17 -94.5 45t-77.5 66t-52.5 87t-19.5 111v289h-18q-24 0 -41.5 -8.5t-29.5 -22.5t-18 -33t-6 -40v-197q0 -68 -22 -124.5t-60 -96t-89.5 -61.5t-112.5 -22q-135 0 -207.5 91t-72.5 256v104h102
v-98q0 -118 46.5 -179.5t131.5 -61.5q37 0 68.5 13.5t55.5 39t37 63t13 85.5v186q0 47 16 87t43.5 69.5t65 45.5t81.5 16h127v-393q0 -30 5.5 -54.5t14.5 -44t21.5 -35t28.5 -29.5l5 6q-9 15 -14.5 39t-5.5 47q0 41 17 70.5t44.5 47.5t62.5 26.5t71 8.5v-111zM775 -220
q0 -47 -47 -47q-22 0 -34.5 12t-12.5 35t12.5 35t34.5 12q24 0 35.5 -10.5t11.5 -36.5zM665 -220q0 -23 -12.5 -35t-34.5 -12q-47 0 -47 47q0 26 11.5 36.5t35.5 10.5q22 0 34.5 -12t12.5 -35zM720 -322q0 -27 -11.5 -38t-35.5 -11t-35.5 11t-11.5 38q0 22 12.5 34.5
t34.5 12.5t34.5 -12.5t12.5 -34.5zM223 -394q0 51 49 51q24 0 37.5 -13t13.5 -38t-13.5 -37.5t-37.5 -12.5q-23 0 -36 12t-13 38zM337 -394q0 25 13.5 38t37.5 13q49 0 49 -51q0 -26 -13 -38t-36 -12q-24 0 -37.5 12.5t-13.5 37.5z" />
    <glyph glyph-name="uniFBA9_uniFBFF_uniFEF2.liga" unicode="&#xfba9;&#xfbff;&#xfef2;" 
d="M1075 0q-47 0 -73 -22.5t-26 -60.5q0 -27 10.5 -58t39.5 -61l-67 -86q-50 17 -94.5 45t-77.5 66t-52.5 87t-19.5 111v289h-18q-24 0 -41.5 -8.5t-29.5 -22.5t-18 -33t-6 -40v-197q0 -68 -22 -124.5t-60 -96t-89.5 -61.5t-112.5 -22q-135 0 -207.5 91t-72.5 256v104h102
v-98q0 -118 46.5 -179.5t131.5 -61.5q37 0 68.5 13.5t55.5 39t37 63t13 85.5v186q0 47 16 87t43.5 69.5t65 45.5t81.5 16h127v-393q0 -30 5.5 -54.5t14.5 -44t21.5 -35t28.5 -29.5l5 6q-9 15 -14.5 39t-5.5 47q0 41 17 70.5t44.5 47.5t62.5 26.5t71 8.5v-111zM571 -221
q0 49 47 49q23 0 35 -12.5t12 -36.5q0 -22 -12 -34t-35 -12t-35 10.5t-12 35.5zM679 -221q0 24 12 36.5t35 12.5q47 0 47 -49q0 -25 -12 -35.5t-35 -10.5t-35 12t-12 34zM223 -394q0 51 49 51q24 0 37.5 -13t13.5 -38t-13.5 -37.5t-37.5 -12.5q-23 0 -36 12t-13 38z
M337 -394q0 25 13.5 38t37.5 13q49 0 49 -51q0 -26 -13 -38t-36 -12q-24 0 -37.5 12.5t-13.5 37.5z" />
    <glyph glyph-name="uniFBA9_uniFE8C_uniFBFD.liga" unicode="&#xfba9;&#xfe8c;&#xfbfd;" 
d="M1075 0q-47 0 -73 -22.5t-26 -60.5q0 -27 10.5 -58t39.5 -61l-67 -86q-50 17 -94.5 45t-77.5 66t-52.5 87t-19.5 111v289h-18q-24 0 -41.5 -8.5t-29.5 -22.5t-18 -33t-6 -40v-197q0 -68 -22 -124.5t-60 -96t-89.5 -61.5t-112.5 -22q-135 0 -207.5 91t-72.5 256v104h102
v-98q0 -118 46.5 -179.5t131.5 -61.5q37 0 68.5 13.5t55.5 39t37 63t13 85.5v186q0 47 16 87t43.5 69.5t65 45.5t81.5 16h127v-393q0 -30 5.5 -54.5t14.5 -44t21.5 -35t28.5 -29.5l5 6q-9 15 -14.5 39t-5.5 47q0 41 17 70.5t44.5 47.5t62.5 26.5t71 8.5v-111zM677 527v72
q0 47 29 77t75 30h44v-49h-44q-24 0 -40.5 -16t-16.5 -42v-22h101v-50h-148z" />
    <glyph glyph-name="uniFBA9_uniFE92_uniFBFD.liga" unicode="&#xfba9;&#xfe92;&#xfbfd;" 
d="M1075 0q-47 0 -73 -22.5t-26 -60.5q0 -27 10.5 -58t39.5 -61l-67 -86q-50 17 -94.5 45t-77.5 66t-52.5 87t-19.5 111v289h-18q-24 0 -41.5 -8.5t-29.5 -22.5t-18 -33t-6 -40v-197q0 -68 -22 -124.5t-60 -96t-89.5 -61.5t-112.5 -22q-135 0 -207.5 91t-72.5 256v104h102
v-98q0 -118 46.5 -179.5t131.5 -61.5q37 0 68.5 13.5t55.5 39t37 63t13 85.5v186q0 47 16 87t43.5 69.5t65 45.5t81.5 16h127v-393q0 -30 5.5 -54.5t14.5 -44t21.5 -35t28.5 -29.5l5 6q-9 15 -14.5 39t-5.5 47q0 41 17 70.5t44.5 47.5t62.5 26.5t71 8.5v-111zM623 -179
q0 49 48 49t48 -49q0 -48 -48 -48t-48 48z" />
    <glyph glyph-name="uniFBA9_uniFE98_uniFBFD.liga" unicode="&#xfba9;&#xfe98;&#xfbfd;" 
d="M1075 0q-47 0 -73 -22.5t-26 -60.5q0 -27 10.5 -58t39.5 -61l-67 -86q-50 17 -94.5 45t-77.5 66t-52.5 87t-19.5 111v289h-18q-24 0 -41.5 -8.5t-29.5 -22.5t-18 -33t-6 -40v-197q0 -68 -22 -124.5t-60 -96t-89.5 -61.5t-112.5 -22q-135 0 -207.5 91t-72.5 256v104h102
v-98q0 -118 46.5 -179.5t131.5 -61.5q37 0 68.5 13.5t55.5 39t37 63t13 85.5v186q0 47 16 87t43.5 69.5t65 45.5t81.5 16h127v-393q0 -30 5.5 -54.5t14.5 -44t21.5 -35t28.5 -29.5l5 6q-9 15 -14.5 39t-5.5 47q0 41 17 70.5t44.5 47.5t62.5 26.5t71 8.5v-111zM615 620
q0 51 49 51q24 0 37.5 -13t13.5 -38t-13.5 -37.5t-37.5 -12.5q-23 0 -36 12t-13 38zM729 620q0 25 13.5 38t37.5 13q49 0 49 -51q0 -26 -13 -38t-36 -12q-24 0 -37.5 12.5t-13.5 37.5z" />
    <glyph glyph-name="uniFBA9_uniFE9C_uniFBFD.liga" unicode="&#xfba9;&#xfe9c;&#xfbfd;" 
d="M1075 0q-47 0 -73 -22.5t-26 -60.5q0 -27 10.5 -58t39.5 -61l-67 -86q-50 17 -94.5 45t-77.5 66t-52.5 87t-19.5 111v289h-18q-24 0 -41.5 -8.5t-29.5 -22.5t-18 -33t-6 -40v-197q0 -68 -22 -124.5t-60 -96t-89.5 -61.5t-112.5 -22q-135 0 -207.5 91t-72.5 256v104h102
v-98q0 -118 46.5 -179.5t131.5 -61.5q37 0 68.5 13.5t55.5 39t37 63t13 85.5v186q0 47 16 87t43.5 69.5t65 45.5t81.5 16h127v-393q0 -30 5.5 -54.5t14.5 -44t21.5 -35t28.5 -29.5l5 6q-9 15 -14.5 39t-5.5 47q0 41 17 70.5t44.5 47.5t62.5 26.5t71 8.5v-111zM610 571
q0 51 51 51q24 0 37 -13t13 -38t-13 -38t-37 -13q-25 0 -38 12t-13 39zM729 571q0 25 13 38t37 13q51 0 51 -51q0 -27 -13 -39t-38 -12q-24 0 -37 13t-13 38zM669 681q0 28 13 39.5t38 11.5t38 -11.5t13 -39.5q0 -25 -13.5 -38t-37.5 -13t-37.5 13t-13.5 38z" />
    <glyph glyph-name="uniFBA9_uniFEE8_uniFBFD.liga" unicode="&#xfba9;&#xfee8;&#xfbfd;" 
d="M1075 0q-47 0 -73 -22.5t-26 -60.5q0 -27 10.5 -58t39.5 -61l-67 -86q-50 17 -94.5 45t-77.5 66t-52.5 87t-19.5 111v289h-18q-24 0 -41.5 -8.5t-29.5 -22.5t-18 -33t-6 -40v-197q0 -68 -22 -124.5t-60 -96t-89.5 -61.5t-112.5 -22q-135 0 -207.5 91t-72.5 256v104h102
v-98q0 -118 46.5 -179.5t131.5 -61.5q37 0 68.5 13.5t55.5 39t37 63t13 85.5v186q0 47 16 87t43.5 69.5t65 45.5t81.5 16h127v-393q0 -30 5.5 -54.5t14.5 -44t21.5 -35t28.5 -29.5l5 6q-9 15 -14.5 39t-5.5 47q0 41 17 70.5t44.5 47.5t62.5 26.5t71 8.5v-111zM709 620
q0 52 52 52t52 -52q0 -53 -52 -53t-52 53z" />
    <glyph glyph-name="uniFBA9_uniFBE9_uniFBFD.liga" unicode="&#xfba9;&#xfbe9;&#xfbfd;" 
d="M1075 0q-47 0 -73 -22.5t-26 -60.5q0 -27 10.5 -58t39.5 -61l-67 -86q-50 17 -94.5 45t-77.5 66t-52.5 87t-19.5 111v289h-18q-24 0 -41.5 -8.5t-29.5 -22.5t-18 -33t-6 -40v-197q0 -68 -22 -124.5t-60 -96t-89.5 -61.5t-112.5 -22q-135 0 -207.5 91t-72.5 256v104h102
v-98q0 -118 46.5 -179.5t131.5 -61.5q37 0 68.5 13.5t55.5 39t37 63t13 85.5v186q0 47 16 87t43.5 69.5t65 45.5t81.5 16h127v-393q0 -30 5.5 -54.5t14.5 -44t21.5 -35t28.5 -29.5l5 6q-9 15 -14.5 39t-5.5 47q0 41 17 70.5t44.5 47.5t62.5 26.5t71 8.5v-111z" />
    <glyph glyph-name="uniFBA9_uniFEF4_uniFBFD.liga" unicode="&#xfba9;&#xfef4;&#xfbfd;" 
d="M1075 0q-47 0 -73 -22.5t-26 -60.5q0 -27 10.5 -58t39.5 -61l-67 -86q-50 17 -94.5 45t-77.5 66t-52.5 87t-19.5 111v289h-18q-24 0 -41.5 -8.5t-29.5 -22.5t-18 -33t-6 -40v-197q0 -68 -22 -124.5t-60 -96t-89.5 -61.5t-112.5 -22q-135 0 -207.5 91t-72.5 256v104h102
v-98q0 -118 46.5 -179.5t131.5 -61.5q37 0 68.5 13.5t55.5 39t37 63t13 85.5v186q0 47 16 87t43.5 69.5t65 45.5t81.5 16h127v-393q0 -30 5.5 -54.5t14.5 -44t21.5 -35t28.5 -29.5l5 6q-9 15 -14.5 39t-5.5 47q0 41 17 70.5t44.5 47.5t62.5 26.5t71 8.5v-111zM571 -221
q0 49 47 49q23 0 35 -12.5t12 -36.5q0 -22 -12 -34t-35 -12t-35 10.5t-12 35.5zM679 -221q0 24 12 36.5t35 12.5q47 0 47 -49q0 -25 -12 -35.5t-35 -10.5t-35 12t-12 34z" />
    <glyph glyph-name="uniFBA9_uniFB69_uniFBFD.liga" unicode="&#xfba9;&#xfb69;&#xfbfd;" 
d="M1075 0q-47 0 -73 -22.5t-26 -60.5q0 -27 10.5 -58t39.5 -61l-67 -86q-50 17 -94.5 45t-77.5 66t-52.5 87t-19.5 111v289h-18q-24 0 -41.5 -8.5t-29.5 -22.5t-18 -33t-6 -40v-197q0 -68 -22 -124.5t-60 -96t-89.5 -61.5t-112.5 -22q-135 0 -207.5 91t-72.5 256v104h102
v-98q0 -118 46.5 -179.5t131.5 -61.5q37 0 68.5 13.5t55.5 39t37 63t13 85.5v186q0 47 16 87t43.5 69.5t65 45.5t81.5 16h127v-393q0 -30 5.5 -54.5t14.5 -44t21.5 -35t28.5 -29.5l5 6q-9 15 -14.5 39t-5.5 47q0 41 17 70.5t44.5 47.5t62.5 26.5t71 8.5v-111zM635 533v38h34
v123h37v-54q0 -5 -1 -12t-3 -14l2 -1l9 12q12 15 26 22.5t29 7.5q20 0 37.5 -14.5t17.5 -49.5v-58h-188zM787 587q0 13 -4.5 21t-15.5 8q-10 0 -17.5 -6t-16.5 -17l-20 -22h74v16z" />
    <glyph glyph-name="uniFBA9_uniFB59_uniFBFD.liga" unicode="&#xfba9;&#xfb59;&#xfbfd;" 
d="M1075 0q-47 0 -73 -22.5t-26 -60.5q0 -27 10.5 -58t39.5 -61l-67 -86q-50 17 -94.5 45t-77.5 66t-52.5 87t-19.5 111v289h-18q-24 0 -41.5 -8.5t-29.5 -22.5t-18 -33t-6 -40v-197q0 -68 -22 -124.5t-60 -96t-89.5 -61.5t-112.5 -22q-135 0 -207.5 91t-72.5 256v104h102
v-98q0 -118 46.5 -179.5t131.5 -61.5q37 0 68.5 13.5t55.5 39t37 63t13 85.5v186q0 47 16 87t43.5 69.5t65 45.5t81.5 16h127v-393q0 -30 5.5 -54.5t14.5 -44t21.5 -35t28.5 -29.5l5 6q-9 15 -14.5 39t-5.5 47q0 41 17 70.5t44.5 47.5t62.5 26.5t71 8.5v-111zM775 -220
q0 -47 -47 -47q-22 0 -34.5 12t-12.5 35t12.5 35t34.5 12q24 0 35.5 -10.5t11.5 -36.5zM665 -220q0 -23 -12.5 -35t-34.5 -12q-47 0 -47 47q0 26 11.5 36.5t35.5 10.5q22 0 34.5 -12t12.5 -35zM720 -322q0 -27 -11.5 -38t-35.5 -11t-35.5 11t-11.5 38q0 22 12.5 34.5
t34.5 12.5t34.5 -12.5t12.5 -34.5z" />
    <glyph glyph-name="uniFBA9_uniFBFF_uniFBFD.liga" unicode="&#xfba9;&#xfbff;&#xfbfd;" 
d="M1075 0q-47 0 -73 -22.5t-26 -60.5q0 -27 10.5 -58t39.5 -61l-67 -86q-50 17 -94.5 45t-77.5 66t-52.5 87t-19.5 111v289h-18q-24 0 -41.5 -8.5t-29.5 -22.5t-18 -33t-6 -40v-197q0 -68 -22 -124.5t-60 -96t-89.5 -61.5t-112.5 -22q-135 0 -207.5 91t-72.5 256v104h102
v-98q0 -118 46.5 -179.5t131.5 -61.5q37 0 68.5 13.5t55.5 39t37 63t13 85.5v186q0 47 16 87t43.5 69.5t65 45.5t81.5 16h127v-393q0 -30 5.5 -54.5t14.5 -44t21.5 -35t28.5 -29.5l5 6q-9 15 -14.5 39t-5.5 47q0 41 17 70.5t44.5 47.5t62.5 26.5t71 8.5v-111zM571 -221
q0 49 47 49q23 0 35 -12.5t12 -36.5q0 -22 -12 -34t-35 -12t-35 10.5t-12 35.5zM679 -221q0 24 12 36.5t35 12.5q47 0 47 -49q0 -25 -12 -35.5t-35 -10.5t-35 12t-12 34z" />
    <glyph glyph-name="uniFE8C_uniFBAF.liga" unicode="&#xfe8c;&#xfbaf;" horiz-adv-x="529" 
d="M365 0v310h-18q-24 0 -41.5 -8.5t-29 -22.5t-18.5 -33t-7 -40v-184q0 -44 -10 -73.5t-33 -49.5v-2h730v-112h-900v110l24 7q40 12 60.5 40t20.5 84v178q0 47 15.5 87t42.5 69.5t65 45.5t82 16h126v-311h55v-111h-164zM327 527v72q0 47 29 77t75 30h44v-49h-44
q-24 0 -40.5 -16t-16.5 -42v-22h101v-50h-148z" />
    <glyph glyph-name="uniFE92_uniFBAF.liga" unicode="&#xfe92;&#xfbaf;" horiz-adv-x="529" 
d="M365 0v310h-18q-24 0 -41.5 -8.5t-29 -22.5t-18.5 -33t-7 -40v-184q0 -44 -10 -73.5t-33 -49.5v-2h730v-112h-900v110l24 7q40 12 60.5 40t20.5 84v178q0 47 15.5 87t42.5 69.5t65 45.5t82 16h126v-311h55v-111h-164zM332 -325q0 52 52 52t52 -52q0 -53 -52 -53t-52 53z
" />
    <glyph glyph-name="uniFE98_uniFBAF.liga" unicode="&#xfe98;&#xfbaf;" horiz-adv-x="529" 
d="M365 0v310h-18q-24 0 -41.5 -8.5t-29 -22.5t-18.5 -33t-7 -40v-184q0 -44 -10 -73.5t-33 -49.5v-2h730v-112h-900v110l24 7q40 12 60.5 40t20.5 84v178q0 47 15.5 87t42.5 69.5t65 45.5t82 16h126v-311h55v-111h-164zM264 620q0 51 49 51q24 0 37.5 -13t13.5 -38
t-13.5 -37.5t-37.5 -12.5q-23 0 -36 12t-13 38zM378 620q0 25 13.5 38t37.5 13q49 0 49 -51q0 -26 -13 -38t-36 -12q-24 0 -37.5 12.5t-13.5 37.5z" />
    <glyph glyph-name="uniFE9C_uniFBAF.liga" unicode="&#xfe9c;&#xfbaf;" horiz-adv-x="529" 
d="M365 0v310h-18q-24 0 -41.5 -8.5t-29 -22.5t-18.5 -33t-7 -40v-184q0 -44 -10 -73.5t-33 -49.5v-2h730v-112h-900v110l24 7q40 12 60.5 40t20.5 84v178q0 47 15.5 87t42.5 69.5t65 45.5t82 16h126v-311h55v-111h-164zM261 571q0 51 51 51q24 0 37 -13t13 -38t-13 -38
t-37 -13q-25 0 -38 12t-13 39zM380 571q0 25 13 38t37 13q51 0 51 -51q0 -27 -13 -39t-38 -12q-24 0 -37 13t-13 38zM320 681q0 28 13 39.5t38 11.5t38 -11.5t13 -39.5q0 -25 -13.5 -38t-37.5 -13t-37.5 13t-13.5 38z" />
    <glyph glyph-name="uniFEE8_uniFBAF.liga" unicode="&#xfee8;&#xfbaf;" horiz-adv-x="529" 
d="M365 0v310h-18q-24 0 -41.5 -8.5t-29 -22.5t-18.5 -33t-7 -40v-184q0 -44 -10 -73.5t-33 -49.5v-2h730v-112h-900v110l24 7q40 12 60.5 40t20.5 84v178q0 47 15.5 87t42.5 69.5t65 45.5t82 16h126v-311h55v-111h-164zM359 620q0 52 52 52t52 -52q0 -53 -52 -53t-52 53z
" />
    <glyph glyph-name="uniFBFF_uniFBAF.liga" unicode="&#xfbff;&#xfbaf;" horiz-adv-x="529" 
d="M365 0v310h-18q-24 0 -41.5 -8.5t-29 -22.5t-18.5 -33t-7 -40v-184q0 -44 -10 -73.5t-33 -49.5v-2h730v-112h-900v110l24 7q40 12 60.5 40t20.5 84v178q0 47 15.5 87t42.5 69.5t65 45.5t82 16h126v-311h55v-111h-164zM264 -325q0 51 49 51q24 0 37.5 -13t13.5 -38
t-13.5 -37.5t-37.5 -12.5q-23 0 -36 12t-13 38zM378 -325q0 25 13.5 38t37.5 13q49 0 49 -51q0 -26 -13 -38t-36 -12q-24 0 -37.5 12.5t-13.5 37.5z" />
    <glyph glyph-name="uniFB69_uniFBAF.liga" unicode="&#xfb69;&#xfbaf;" horiz-adv-x="529" 
d="M365 0v310h-18q-24 0 -41.5 -8.5t-29 -22.5t-18.5 -33t-7 -40v-184q0 -44 -10 -73.5t-33 -49.5v-2h730v-112h-900v110l24 7q40 12 60.5 40t20.5 84v178q0 47 15.5 87t42.5 69.5t65 45.5t82 16h126v-311h55v-111h-164zM284 533v38h34v123h37v-54q0 -5 -1 -12t-3 -14l2 -1
l9 12q12 15 26 22.5t29 7.5q20 0 37.5 -14.5t17.5 -49.5v-58h-188zM436 587q0 13 -4.5 21t-15.5 8q-10 0 -17.5 -6t-16.5 -17l-20 -22h74v16z" />
    <glyph glyph-name="uniFBA8_uniFBAF.liga" unicode="&#xfba8;&#xfbaf;" horiz-adv-x="754" 
d="M609 -338l-25 -33q-10 -13 -22 -18t-24 -5q-22 0 -37.5 13t-15.5 38q0 6 0.5 14.5t3.5 18.5l26 95h-477v110l24 7q40 12 60.5 40t20.5 84v178q0 47 15.5 87t42.5 69.5t65 45.5t82 16h126v-311h55q28 0 41.5 16.5t13.5 45.5v250h109v-250q0 -79 -43.5 -126t-120.5 -47
h-164v310h-18q-24 0 -41.5 -9t-29 -23.5t-18.5 -33.5t-7 -38v-184q0 -44 -10 -73.5t-33 -49.5v-2h518v-112h-175l-24 -106q-3 -10 -3 -18q0 -5 4 -10t10 -5q4 0 8 3t8 5l29 34z" />
    <glyph glyph-name="uniFBA8_uniFBB1.liga" unicode="&#xfba8;&#xfbb1;" horiz-adv-x="754" 
d="M609 -338l-25 -33q-10 -13 -22 -18t-24 -5q-22 0 -37.5 13t-15.5 38q0 6 0.5 14.5t3.5 18.5l26 95h-477v110l24 7q40 12 60.5 40t20.5 84v178q0 47 15.5 87t42.5 69.5t65 45.5t82 16h126v-311h55q28 0 41.5 16.5t13.5 45.5v250h109v-250q0 -79 -43.5 -126t-120.5 -47
h-164v310h-18q-24 0 -41.5 -9t-29 -23.5t-18.5 -33.5t-7 -38v-184q0 -44 -10 -73.5t-33 -49.5v-2h518v-112h-175l-24 -106q-3 -10 -3 -18q0 -5 4 -10t10 -5q4 0 8 3t8 5l29 34zM327 527v72q0 47 29 77t75 30h44v-49h-44q-24 0 -40.5 -16t-16.5 -42v-22h101v-50h-148z" />
    <glyph glyph-name="uniFBA9_uniFBAF.liga" unicode="&#xfba9;&#xfbaf;" horiz-adv-x="964" 
d="M38 -215v176q0 44 15 83.5t42.5 69t65.5 46.5t84 17h276q37 0 60.5 21.5t23.5 54.5v68h109v-288q0 -30 6 -55.5t15 -45.5t21.5 -36t26.5 -30l7 6q-9 15 -14.5 39t-5.5 48q0 41 17 70t44 47t61.5 26.5t71.5 8.5v-111q-47 0 -72.5 -22.5t-25.5 -60.5q0 -27 9.5 -56.5
t40.5 -62.5l-67 -86q-47 19 -91 47.5t-78 67t-54.5 89.5t-20.5 115v72h-3q-13 -22 -34.5 -29t-46.5 -7h-276q-22 0 -40.5 -8.5t-31.5 -23t-19.5 -34t-6.5 -40.5v-64h412v-112h-521z" />
    <glyph glyph-name="uniFEE0_uniFBAF.liga" unicode="&#xfee0;&#xfbaf;" horiz-adv-x="515" 
d="M515 0q-34 0 -63.5 8t-51 23.5t-35 38.5t-13.5 53v18h-2q-16 -13 -30.5 -17.5t-31.5 -4.5h-43q-22 0 -40.5 -9t-31.5 -23.5t-19.5 -33.5t-6.5 -41v-115h825v-112h-934v227q0 44 15 84t42.5 69.5t65.5 46.5t84 17h50q11 0 21 4t18.5 10.5t13 16.5t4.5 22v441h109v-555
q0 -25 15 -41t39 -16v-111z" />
    <glyph glyph-name="afii57409" unicode="&#x621;" horiz-adv-x="379" arabic-form="isolated" 
d="M85 0v173q0 48 15 83t40.5 57t63 32.5t80.5 10.5h64v-106h-65q-49 0 -74.5 -17.5t-25.5 -59.5v-62h165v-111h-263z" />
    <glyph glyph-name="afii57410" unicode="&#x622;" horiz-adv-x="219" arabic-form="isolated" 
d="M81 0v680h109v-680h-109zM229 743h-93q-26 0 -43 5t-28 22l-49 -33v51l65 41q11 -23 22.5 -31t36.5 -8h89v-47z" />
    <glyph glyph-name="afii57411" unicode="&#x623;" horiz-adv-x="219" arabic-form="isolated" 
d="M81 0v591h109v-591h-109zM60 643v72q0 47 29 77t75 30h44v-49h-44q-24 0 -40.5 -16t-16.5 -42v-22h101v-50h-148z" />
    <glyph glyph-name="afii57412" unicode="&#x624;" horiz-adv-x="517" arabic-form="isolated" 
d="M489 -1q0 -64 -24.5 -116.5t-69 -89.5t-106.5 -57t-137 -20v95q51 0 93 13.5t72 35.5t46.5 51.5t16.5 62.5v26h-98q-45 0 -83 15t-65 42t-42.5 63.5t-15.5 81.5v34q0 43 15.5 82.5t43 69t65 46.5t80.5 17q45 0 83 -17t66 -46.5t44 -69t16 -82.5v-237zM380 236q0 21 -8 40
t-21 32.5t-30.5 22t-38.5 8.5t-39 -8.5t-30.5 -22t-20 -32.5t-7.5 -40v-34q0 -20 7.5 -36.5t20 -29t30.5 -19t39 -6.5h98v125zM205 529v72q0 47 29 77t75 30h44v-49h-44q-24 0 -40.5 -16t-16.5 -42v-22h101v-50h-148z" />
    <glyph glyph-name="afii57413" unicode="&#x625;" horiz-adv-x="219" arabic-form="isolated" 
d="M81 0v723h109v-723h-109zM56 -237v72q0 45 29 76t75 31h44v-50h-44q-24 0 -40.5 -15.5t-16.5 -41.5v-24h101v-48h-148z" />
    <glyph glyph-name="afii57414" unicode="&#x626;" horiz-adv-x="854" arabic-form="isolated" 
d="M715 0v310h-18q-24 0 -41.5 -8.5t-29.5 -22.5t-18 -33t-6 -40v-197q0 -68 -22 -124.5t-60 -96t-89.5 -61.5t-112.5 -22q-135 0 -207.5 91t-72.5 256v104h102v-100q0 -116 46.5 -177.5t131.5 -61.5q37 0 68.5 13.5t55.5 39t37 63t13 85.5v186q0 47 16 87t43.5 69.5
t65 45.5t81.5 16h127v-422h-110zM38 207v72q0 47 29 77t75 30h44v-49h-44q-24 0 -40.5 -16t-16.5 -42v-22h101v-50h-148z" />
    <glyph glyph-name="afii57415" unicode="&#x627;" horiz-adv-x="219" arabic-form="isolated" 
d="M81 0v723h109v-723h-109z" />
    <glyph glyph-name="afii57416" unicode="&#x628;" horiz-adv-x="715" arabic-form="isolated" 
d="M686 161q0 -33 -12.5 -62.5t-33 -51.5t-49.5 -34.5t-62 -12.5h-247q-45 0 -83 15.5t-65.5 42.5t-42.5 63.5t-15 80.5v26q0 48 17 87.5t45 66.5t65.5 42t78.5 15v-102q-20 0 -37.5 -8t-31 -23t-21 -35t-7.5 -43v-26q0 -19 7 -35t20 -28.5t31 -20t39 -7.5h247q21 0 35 14.5
t14 35.5v262h108v-262zM350 -139q0 52 52 52t52 -52q0 -53 -52 -53t-52 53z" />
    <glyph glyph-name="afii57417" unicode="&#x629;" horiz-adv-x="517" arabic-form="isolated" 
d="M489 202q0 -46 -16 -85.5t-44 -68t-66 -45t-81 -16.5q-44 0 -81 16.5t-65.5 45t-44 68t-15.5 85.5v34q0 43 15.5 82.5t44 69t65.5 46.5t81 17q43 0 81 -17t66 -46.5t44 -69t16 -82.5v-34zM380 236q0 21 -8 40.5t-21 34t-30.5 23t-38.5 8.5t-38 -8.5t-30.5 -23t-21 -34
t-7.5 -40.5v-34q0 -21 7.5 -40t21 -33t30.5 -22.5t38 -8.5t38.5 8.5t30.5 22.5t21 33t8 40v34zM175 590q0 51 49 51q24 0 37.5 -13t13.5 -38t-13.5 -37.5t-37.5 -12.5q-23 0 -36 12t-13 38zM289 590q0 25 13.5 38t37.5 13q49 0 49 -51q0 -26 -13 -38t-36 -12
q-24 0 -37.5 12.5t-13.5 37.5z" />
    <glyph glyph-name="afii57418" unicode="&#x62a;" horiz-adv-x="715" arabic-form="isolated" 
d="M686 161q0 -33 -12.5 -62.5t-33 -51.5t-49.5 -34.5t-62 -12.5h-247q-45 0 -83 15.5t-65.5 42.5t-42.5 63.5t-15 80.5v26q0 48 17 87.5t45 66.5t65.5 42t78.5 15v-102q-20 0 -37.5 -8t-31 -23t-21 -35t-7.5 -43v-26q0 -19 7 -35t20 -28.5t31 -20t39 -7.5h247q21 0 35 14.5
t14 35.5v262h108v-262zM317 588q0 51 49 51q24 0 37.5 -13t13.5 -38t-13.5 -37.5t-37.5 -12.5q-23 0 -36 12t-13 38zM431 588q0 25 13.5 38t37.5 13q49 0 49 -51q0 -26 -13 -38t-36 -12q-24 0 -37.5 12.5t-13.5 37.5z" />
    <glyph glyph-name="afii57419" unicode="&#x62b;" horiz-adv-x="715" arabic-form="isolated" 
d="M686 161q0 -33 -12.5 -62.5t-33 -51.5t-49.5 -34.5t-62 -12.5h-247q-45 0 -83 15.5t-65.5 42.5t-42.5 63.5t-15 80.5v26q0 48 17 87.5t45 66.5t65.5 42t78.5 15v-102q-20 0 -37.5 -8t-31 -23t-21 -35t-7.5 -43v-26q0 -19 7 -35t20 -28.5t31 -20t39 -7.5h247q21 0 35 14.5
t14 35.5v262h108v-262zM314 555q0 51 51 51q24 0 37 -13t13 -38t-13 -38t-37 -13q-25 0 -38 12t-13 39zM433 555q0 25 13 38t37 13q51 0 51 -51q0 -27 -13 -39t-38 -12q-24 0 -37 13t-13 38zM373 665q0 28 13 39.5t38 11.5t38 -11.5t13 -39.5q0 -25 -13.5 -38t-37.5 -13
t-37.5 13t-13.5 38z" />
    <glyph glyph-name="afii57420" unicode="&#x62c;" horiz-adv-x="549" arabic-form="isolated" 
d="M482 -10q-29 5 -70 9.5t-94 4.5q-35 0 -60.5 -8t-41.5 -21t-23.5 -31.5t-7.5 -36.5q0 -17 6.5 -32.5t21.5 -28t40 -22t63 -11.5l21 -3v-94h-21q-58 0 -102 14.5t-74 40t-45 60t-15 76.5q0 43 17 80.5t48.5 64.5t75.5 42t97 15q24 0 40.5 -2t30.5 -7l3 3q-12 14 -18 30
t-6 52v57q0 24 -6 44t-17.5 35.5t-28 23t-38.5 7.5q-34 0 -63 -16t-54 -45l-72 68q37 43 86 72.5t111 29.5q45 0 81 -15t60.5 -44t37 -70t12.5 -92v-55q0 -32 6.5 -55t19.5 -33l16 -14zM332 -109q0 49 48 49t48 -49q0 -48 -48 -48t-48 48z" />
    <glyph glyph-name="afii57421" unicode="&#x62d;" horiz-adv-x="549" arabic-form="isolated" 
d="M482 -10q-29 5 -70 9.5t-94 4.5q-35 0 -60.5 -8t-41.5 -21t-23.5 -31.5t-7.5 -36.5q0 -16 6.5 -32t21.5 -29.5t42 -22.5t66 -9l143 -4v-94h-143q-60 0 -105.5 14.5t-75.5 40t-45 60t-15 76.5q0 43 17 80.5t48.5 64.5t75.5 42t97 15q24 0 40.5 -2t30.5 -7l3 3
q-12 14 -18 30t-6 52v57q0 24 -6 44t-17.5 35.5t-28 23t-38.5 7.5q-34 0 -63 -16t-54 -45l-72 68q37 43 86 72.5t111 29.5q45 0 81 -15t60.5 -44t37 -70t12.5 -92v-55q0 -32 6.5 -55t19.5 -33l16 -14z" />
    <glyph glyph-name="afii57422" unicode="&#x62e;" horiz-adv-x="549" arabic-form="isolated" 
d="M482 -10q-29 5 -70 9.5t-94 4.5q-35 0 -60.5 -8t-41.5 -21t-23.5 -31.5t-7.5 -36.5q0 -16 6.5 -32t21.5 -29.5t42 -22.5t66 -9l143 -4v-94h-143q-60 0 -105.5 14.5t-75.5 40t-45 60t-15 76.5q0 43 17 80.5t48.5 64.5t75.5 42t97 15q24 0 40.5 -2t30.5 -7l3 3
q-12 14 -18 30t-6 52v57q0 24 -6 44t-17.5 35.5t-28 23t-38.5 7.5q-34 0 -63 -16t-54 -45l-72 68q37 43 86 72.5t111 29.5q45 0 81 -15t60.5 -44t37 -70t12.5 -92v-55q0 -32 6.5 -55t19.5 -33l16 -14zM256 603q0 52 52 52t52 -52q0 -53 -52 -53t-52 53z" />
    <glyph glyph-name="afii57423" unicode="&#x62f;" horiz-adv-x="491" arabic-form="isolated" 
d="M76 0v111h276v96q0 24 -7 44t-21 35t-31.5 23.5t-38.5 8.5h-149v105h149q46 0 83.5 -16.5t65.5 -45t43 -68.5t15 -87v-206h-385z" />
    <glyph glyph-name="afii57424" unicode="&#x630;" horiz-adv-x="491" arabic-form="isolated" 
d="M76 0v111h276v96q0 24 -7 44t-21 35t-31.5 23.5t-38.5 8.5h-149v105h149q46 0 83.5 -16.5t65.5 -45t43 -68.5t15 -87v-206h-385zM134 603q0 52 52 52t52 -52q0 -53 -52 -53t-52 53z" />
    <glyph glyph-name="afii57425" unicode="&#x631;" horiz-adv-x="333" arabic-form="isolated" 
d="M303 -18q0 -63 -19 -112t-57 -83.5t-95 -52.5t-132 -18v95q50 0 86 12.5t60 35t36 54.5t12 69v309h109v-309z" />
    <glyph glyph-name="afii57426" unicode="&#x632;" horiz-adv-x="333" arabic-form="isolated" 
d="M303 -18q0 -63 -19 -112t-57 -83.5t-95 -52.5t-132 -18v95q50 0 86 12.5t60 35t36 54.5t12 69v309h109v-309zM196 537q0 52 52 52t52 -52q0 -53 -52 -53t-52 53z" />
    <glyph glyph-name="afii57427" unicode="&#x633;" horiz-adv-x="1029" arabic-form="isolated" 
d="M1001 173q0 -89 -39.5 -139.5t-102.5 -50.5q-29 0 -60 19t-45 58h-2q-13 -27 -35.5 -42t-51.5 -15q-19 0 -39 9t-29 30h-2q1 -9 1.5 -23t0.5 -27q0 -61 -21 -114.5t-58 -91t-88 -59.5t-112 -22q-135 0 -207.5 91t-72.5 256v104h102v-100q0 -118 46.5 -178.5t131.5 -60.5
q37 0 68.5 13.5t55.5 39t37 63t13 85.5v345h110v-184q0 -36 14 -52t34 -16q21 0 34.5 16t13.5 49v187h102v-187q0 -42 15 -62t35 -20q21 0 35 18t14 64v261h102v-264z" />
    <glyph glyph-name="afii57428" unicode="&#x634;" horiz-adv-x="1029" arabic-form="isolated" 
d="M1001 173q0 -89 -39.5 -139.5t-102.5 -50.5q-29 0 -60 19t-45 58h-2q-13 -27 -35.5 -42t-51.5 -15q-19 0 -39 9t-29 30h-2q1 -9 1.5 -23t0.5 -27q0 -61 -21 -114.5t-58 -91t-88 -59.5t-112 -22q-135 0 -207.5 91t-72.5 256v104h102v-100q0 -118 46.5 -178.5t131.5 -60.5
q37 0 68.5 13.5t55.5 39t37 63t13 85.5v345h110v-184q0 -36 14 -52t34 -16q21 0 34.5 16t13.5 49v187h102v-187q0 -42 15 -62t35 -20q21 0 35 18t14 64v261h102v-264zM643 571q0 51 51 51q24 0 37 -13t13 -38t-13 -38t-37 -13q-25 0 -38 12t-13 39zM762 571q0 25 13 38
t37 13q51 0 51 -51q0 -27 -13 -39t-38 -12q-24 0 -37 13t-13 38zM702 681q0 28 13 39.5t38 11.5t38 -11.5t13 -39.5q0 -25 -13.5 -38t-37.5 -13t-37.5 13t-13.5 38z" />
    <glyph glyph-name="afii57429" unicode="&#x635;" horiz-adv-x="1105" arabic-form="isolated" 
d="M597 0v-16q0 -60 -21 -111t-58.5 -88.5t-88.5 -58.5t-111 -21q-135 0 -207.5 90t-72.5 257v104h102v-100q0 -116 46.5 -177.5t131.5 -61.5q36 0 68 13.5t55.5 39.5t37 63t13.5 85v413h93l4 -131h3q30 34 59.5 64.5t62 52.5t69.5 35t83 13q43 0 81.5 -15.5t67.5 -47
t45.5 -79t16.5 -112.5v-211h-480zM968 206q0 38 -9 65.5t-25 45.5t-37.5 26.5t-46.5 8.5q-41 0 -75 -15t-64 -39t-57 -55.5t-53 -64.5v-67h367v95z" />
    <glyph glyph-name="afii57430" unicode="&#x636;" horiz-adv-x="1105" arabic-form="isolated" 
d="M597 0v-16q0 -60 -21 -111t-58.5 -88.5t-88.5 -58.5t-111 -21q-135 0 -207.5 90t-72.5 257v104h102v-100q0 -116 46.5 -177.5t131.5 -61.5q36 0 68 13.5t55.5 39.5t37 63t13.5 85v413h93l4 -131h3q30 34 59.5 64.5t62 52.5t69.5 35t83 13q43 0 81.5 -15.5t67.5 -47
t45.5 -79t16.5 -112.5v-211h-480zM968 206q0 38 -9 65.5t-25 45.5t-37.5 26.5t-46.5 8.5q-41 0 -75 -15t-64 -39t-57 -55.5t-53 -64.5v-67h367v95zM722 603q0 52 52 52t52 -52q0 -53 -52 -53t-52 53z" />
    <glyph glyph-name="afii57431" unicode="&#x637;" horiz-adv-x="791" arabic-form="isolated" 
d="M38 0v111h140v612h108v-320q0 -40 -3.5 -65t-11.5 -39l3 -3q31 36 60.5 67t62.5 53.5t70 35.5t83 13q44 0 82.5 -15.5t67 -47t45 -79.5t16.5 -113v-210h-723zM652 206q0 38 -9 65.5t-25 45.5t-37.5 26.5t-46.5 8.5q-41 0 -75 -15t-64 -39t-56.5 -55.5t-52.5 -64.5v-67
h366v95z" />
    <glyph glyph-name="afii57432" unicode="&#x638;" horiz-adv-x="791" arabic-form="isolated" 
d="M38 0v111h140v612h108v-320q0 -40 -3.5 -65t-11.5 -39l3 -3q31 36 60.5 67t62.5 53.5t70 35.5t83 13q44 0 82.5 -15.5t67 -47t45 -79.5t16.5 -113v-210h-723zM652 206q0 38 -9 65.5t-25 45.5t-37.5 26.5t-46.5 8.5q-41 0 -75 -15t-64 -39t-56.5 -55.5t-52.5 -64.5v-67
h366v95zM417 609q0 52 52 52t52 -52q0 -53 -52 -53t-52 53z" />
    <glyph glyph-name="afii57433" unicode="&#x639;" horiz-adv-x="529" arabic-form="isolated" 
d="M317 0q-35 0 -60.5 -7t-43 -20.5t-25 -30.5t-7.5 -35q0 -16 6.5 -31.5t21.5 -28.5t41 -22.5t66 -9.5l184 -5v-94h-184q-59 0 -104.5 14.5t-75.5 40t-45 60t-15 76.5q0 47 25.5 87t72.5 64v4q-12 17 -26 39.5t-26 49t-20.5 55t-8.5 57.5q0 45 15.5 80.5t43 61t65.5 39
t82 13.5q42 0 77 -15.5t60.5 -42.5t40 -61.5t17.5 -71.5h-98q-3 16 -10 32t-19.5 29.5t-29.5 21t-38 7.5t-39 -7t-31 -19.5t-20 -29t-7 -37.5t5.5 -41t15.5 -40t23 -39t28 -36q21 3 42 3.5t43 0.5h115v-111h-157z" />
    <glyph glyph-name="afii57434" unicode="&#x63a;" horiz-adv-x="529" arabic-form="isolated" 
d="M317 0q-35 0 -60.5 -7t-43 -20.5t-25 -30.5t-7.5 -35q0 -16 6.5 -31.5t21.5 -28.5t41 -22.5t66 -9.5l184 -5v-94h-184q-59 0 -104.5 14.5t-75.5 40t-45 60t-15 76.5q0 47 25.5 87t72.5 64v4q-12 17 -26 39.5t-26 49t-20.5 55t-8.5 57.5q0 45 15.5 80.5t43 61t65.5 39
t82 13.5q42 0 77 -15.5t60.5 -42.5t40 -61.5t17.5 -71.5h-98q-3 16 -10 32t-19.5 29.5t-29.5 21t-38 7.5t-39 -7t-31 -19.5t-20 -29t-7 -37.5t5.5 -41t15.5 -40t23 -39t28 -36q21 3 42 3.5t43 0.5h115v-111h-157zM235 599q0 52 52 52t52 -52q0 -53 -52 -53t-52 53z" />
    <glyph glyph-name="afii57441" unicode="&#x641;" horiz-adv-x="916" arabic-form="isolated" 
d="M276 0q-45 0 -82.5 14.5t-64 43t-40 68.5t-13.5 91v144h102v-144q0 -23 7.5 -42t19.5 -33t30.5 -22.5t40.5 -8.5h303q26 0 51 -2t42 -9l1 2q-34 17 -69.5 35.5t-64 44t-47.5 59.5t-19 79q0 38 16.5 72.5t44 60t65.5 40.5t81 15q44 0 81.5 -16.5t65 -44.5t44 -66.5
t16.5 -81.5v-299h-611zM778 301q0 20 -8 37.5t-21 31.5t-30.5 21.5t-38.5 7.5t-39.5 -7t-31 -19t-19.5 -27.5t-7 -31.5q0 -35 19.5 -60.5t49.5 -46t64.5 -34t61.5 -25.5v153zM612 660q0 52 52 52t52 -52q0 -53 -52 -53t-52 53z" />
    <glyph glyph-name="afii57442" unicode="&#x642;" horiz-adv-x="690" arabic-form="isolated" 
d="M660 -1q0 -64 -24 -116.5t-66.5 -89.5t-99.5 -57t-124 -20q-74 0 -131.5 21.5t-97.5 64t-59.5 105.5t-19.5 145v104h102v-100q0 -59 12.5 -103.5t36.5 -75t61 -46.5t87 -16q45 0 84.5 12.5t68.5 34t45 50.5t16 62v26h-97q-44 0 -82 15t-65.5 42t-43 63.5t-15.5 81.5v34
q0 43 15.5 82.5t43 69t65 46.5t81.5 17q43 0 81 -17t67 -46.5t44 -69.5t15 -85v-234zM551 236q0 21 -7 40t-20.5 32.5t-31.5 22t-39 8.5t-38 -8.5t-30 -22t-21 -32.5t-8 -40v-34q0 -21 8.5 -38t22.5 -28.5t33 -18t41 -6.5h90v125zM346 591q0 51 49 51q24 0 37.5 -13
t13.5 -38t-13.5 -37.5t-37.5 -12.5q-23 0 -36 12t-13 38zM460 591q0 25 13.5 38t37.5 13q49 0 49 -51q0 -26 -13 -38t-36 -12q-24 0 -37.5 12.5t-13.5 37.5z" />
    <glyph glyph-name="afii57443" unicode="&#x643;" horiz-adv-x="878" arabic-form="isolated" 
d="M276 0q-45 0 -82.5 14.5t-64 43t-40 68.5t-13.5 91v91h102v-91q0 -23 7.5 -42t19.5 -33t30.5 -22.5t40.5 -8.5h467v612h108v-723h-575zM375 258v98q0 36 11 65.5t32 49.5t49.5 32t65.5 12h29v-63h-30q-41 0 -64.5 -25.5t-23.5 -63.5v-33h118v-72h-187z" />
    <glyph glyph-name="afii57444" unicode="&#x644;" horiz-adv-x="627" arabic-form="isolated" 
d="M602 34q0 -79 -22 -139.5t-60.5 -103t-89.5 -64.5t-112 -22q-135 0 -207.5 91t-72.5 256v104h102v-100q0 -116 46.5 -177.5t131.5 -61.5q37 0 68.5 13.5t55.5 41t37 68t13 94.5v689h110v-689z" />
    <glyph glyph-name="afii57446" unicode="&#x646;" horiz-adv-x="631" arabic-form="isolated" 
d="M602 34q0 -79 -22 -139.5t-60.5 -103t-89.5 -64.5t-112 -22q-135 0 -207.5 91t-72.5 256v104h102v-100q0 -116 46.5 -177.5t131.5 -61.5q37 0 68.5 13.5t55.5 41t37 68t13 94.5v250h110v-250zM269 443q0 52 52 52t52 -52q0 -53 -52 -53t-52 53z" />
    <glyph glyph-name="afii57470.medi" unicode="&#x647;" horiz-adv-x="694" arabic-form="medial" 
d="M652 -24q-68 6 -137.5 18.5t-130.5 33.5q-12 -18 -29 -23t-47 -5h-308q-9 0 -16.5 7t-13 18.5t-9 25t-3.5 26.5q0 17 10.5 25.5t32.5 8.5h127q28 0 51.5 -1t37.5 -8l2 3q-28 13 -56 28.5t-52.5 36.5t-40 48.5t-15.5 64.5q0 17 6 34t15.5 31.5t24 25.5t30.5 16v3h-72v101
h367q51 0 95.5 -19t76 -53t49.5 -80.5t18 -100.5v-130h29v-111h-29v-10zM558 241q0 31 -10.5 59.5t-28 48.5t-42 32t-51.5 12h-85v-3q17 -5 32.5 -17.5t27.5 -30t18.5 -39t6.5 -45.5v-138q27 -10 64 -18t68 -10v149zM325 255q0 20 -6 39.5t-18 34t-29 23t-38 8.5
q-17 0 -30.5 -6.5t-24 -16.5t-17 -25t-6.5 -30q0 -32 17 -54t42.5 -38t54.5 -27.5t55 -21.5v114z" />
    <glyph glyph-name="afii57448" unicode="&#x648;" horiz-adv-x="517" arabic-form="isolated" 
d="M489 -1q0 -64 -24.5 -116.5t-69 -89.5t-106.5 -57t-137 -20v95q51 0 93 13.5t72 35.5t46.5 51.5t16.5 62.5v26h-98q-45 0 -83 15t-65 42t-42.5 63.5t-15.5 81.5v34q0 43 15.5 82.5t43 69t65 46.5t80.5 17q45 0 83 -17t66 -46.5t44 -69t16 -82.5v-237zM380 236q0 21 -8 40
t-21 32.5t-30.5 22t-38.5 8.5t-39 -8.5t-30.5 -22t-20 -32.5t-7.5 -40v-34q0 -20 7.5 -36.5t20 -29t30.5 -19t39 -6.5h98v125z" />
    <glyph glyph-name="afii57449" unicode="&#x649;" horiz-adv-x="854" arabic-form="isolated" 
d="M715 0v310h-18q-24 0 -41.5 -8.5t-29.5 -22.5t-18 -33t-6 -40v-197q0 -68 -22 -124.5t-60 -96t-89.5 -61.5t-112.5 -22q-135 0 -207.5 91t-72.5 256v104h102v-100q0 -116 46.5 -177.5t131.5 -61.5q37 0 68.5 13.5t55.5 39t37 63t13 85.5v186q0 47 16 87t43.5 69.5
t65 45.5t81.5 16h127v-422h-110z" />
    <glyph glyph-name="afii57450" unicode="&#x64a;" horiz-adv-x="854" arabic-form="isolated" 
d="M715 0v310h-18q-24 0 -41.5 -8.5t-29.5 -22.5t-18 -33t-6 -40v-197q0 -68 -22 -124.5t-60 -96t-89.5 -61.5t-112.5 -22q-135 0 -207.5 91t-72.5 256v104h102v-100q0 -116 46.5 -177.5t131.5 -61.5q37 0 68.5 13.5t55.5 39t37 63t13 85.5v186q0 47 16 87t43.5 69.5
t65 45.5t81.5 16h127v-422h-110zM523 -286q0 51 49 51q24 0 37.5 -13t13.5 -38t-13.5 -37.5t-37.5 -12.5q-23 0 -36 12t-13 38zM637 -286q0 25 13.5 38t37.5 13q49 0 49 -51q0 -26 -13 -38t-36 -12q-24 0 -37.5 12.5t-13.5 37.5z" />
    <glyph glyph-name="uni066E.init" unicode="&#x66e;" horiz-adv-x="193" 
d="M164 173q0 -79 -43.5 -126t-120.5 -47q-9 0 -16.5 7t-13 18.5t-9 25t-3.5 26.5q0 17 10.5 25.5t31.5 8.5q28 0 41.5 16.5t13.5 45.5v250h109v-250z" />
    <glyph glyph-name="uni066E.medi" unicode="&#x66e;" horiz-adv-x="265" 
d="M265 0q-49 0 -80.5 14.5t-48.5 52.5h-2q-11 -20 -24.5 -33t-30 -20t-36 -10.5t-43.5 -3.5q-13 0 -27.5 21.5t-14.5 55.5q0 16 10.5 25t31.5 9q39 0 58 14.5t19 48.5v176h109v-177q0 -34 18.5 -48t60.5 -14v-111z" />
    <glyph glyph-name="uni066E.fina" unicode="&#x66e;" horiz-adv-x="745" 
d="M686 179q0 -31 16 -49.5t43 -18.5v-111q-15 0 -31.5 4.5t-31 13t-26.5 21.5t-18 29h-3q-14 -33 -41 -50.5t-71 -17.5h-241q-45 0 -83 15.5t-65.5 42.5t-42.5 63.5t-15 80.5v26q0 48 17 87.5t45 66.5t65.5 42t78.5 15v-102q-20 0 -37.5 -8t-31 -23t-21 -35t-7.5 -43v-26
q0 -19 7 -35t20 -28.5t31 -20t39 -7.5h241q26 0 40.5 17t14.5 45v250h108v-244z" />
    <glyph glyph-name="uni066F.init" unicode="&#x66f;" horiz-adv-x="498" 
d="M0 0q-9 0 -16.5 7t-13 18.5t-9 25t-3.5 26.5q0 17 10.5 25.5t31.5 8.5h161q26 0 51 -2t42 -9l1 2q-34 17 -69 35.5t-64 44t-47.5 59.5t-18.5 79q0 38 16 72.5t43.5 60t65.5 40.5t81 15q44 0 81.5 -16.5t65.5 -44.5t44 -66.5t16 -81.5v-299h-469zM360 301q0 20 -8 37.5
t-21 31.5t-30.5 21.5t-38.5 7.5t-38.5 -7t-31 -19t-20.5 -27.5t-7 -31.5q0 -35 19.5 -60.5t50 -46t64.5 -34t61 -25.5v153z" />
    <glyph glyph-name="uni066F.medi" unicode="&#x66f;" horiz-adv-x="523" 
d="M523 0q-24 0 -50 4.5t-51 20.5q-9 -16 -23.5 -20.5t-50.5 -4.5h-348q-9 0 -16.5 7t-13 18.5t-9 25t-3.5 26.5q0 17 10.5 25.5t31.5 8.5h156q30 0 55 -2t40 -8l2 2q-33 16 -67.5 34.5t-63.5 44t-47.5 59.5t-18.5 79q0 38 16 72.5t43.5 60t65.5 40.5t81 15q44 0 81.5 -16.5
t65.5 -44.5t44 -66.5t16 -81.5v-173q12 -7 26.5 -11t27.5 -4v-111zM360 301q0 20 -8 38.5t-21 31.5t-30.5 20.5t-38.5 7.5q-20 0 -38 -7t-31.5 -19t-20.5 -27.5t-7 -31.5q0 -35 19.5 -60.5t50 -44.5t64.5 -33t61 -23v148z" />
    <glyph glyph-name="uni066F.fina" unicode="&#x66f;" horiz-adv-x="715" 
d="M660 111h55v-111h-55v-16q0 -59 -24 -108t-66.5 -85t-99.5 -55.5t-124 -19.5q-74 0 -131.5 21.5t-97.5 64t-59.5 105.5t-19.5 145v104h102v-100q0 -59 12.5 -103.5t36.5 -75t61 -46.5t87 -16q45 0 84.5 12.5t68.5 34t45 50.5t16 62v26h-97q-44 0 -82 15t-65.5 42
t-43 63.5t-15.5 81.5v34q0 43 15.5 82.5t43 69t65 46.5t81.5 17q43 0 81 -17t67 -46.5t44 -69.5t15 -85v-122zM551 236q0 21 -7 40t-20.5 32.5t-31.5 22t-39 8.5t-38 -8.5t-30 -22t-21 -32.5t-8 -40v-34q0 -21 8.5 -38t22.5 -28.5t33 -18t41 -6.5h90v125z" />
    <glyph glyph-name="uni0671" unicode="&#x671;" horiz-adv-x="219" arabic-form="isolated" 
d="M81 0v591h109v-591h-109zM82 678v71h33v-12q0 -8 -2 -17h1l5 7q13 19 25 26.5t26 7.5q25 0 39 -16t14 -51v-50h-145q-17 0 -22.5 2t-13.5 12l-37 -19v38l45 25h2q3 -12 9.5 -18t16.5 -6h4zM190 691q0 12 -3.5 22.5t-17.5 10.5q-8 0 -15 -3.5t-18 -14.5l-22 -28h76v13z
" />
    <glyph glyph-name="afii57511" unicode="&#x679;" horiz-adv-x="715" arabic-form="isolated" 
d="M686 161q0 -33 -12.5 -62.5t-33 -51.5t-49.5 -34.5t-62 -12.5h-247q-45 0 -83 15.5t-65.5 42.5t-42.5 63.5t-15 80.5v26q0 48 17 87.5t45 66.5t65.5 42t78.5 15v-102q-20 0 -37.5 -8t-31 -23t-21 -35t-7.5 -43v-26q0 -19 7 -35t20 -28.5t31 -20t39 -7.5h247q21 0 35 14.5
t14 35.5v262h108v-262zM328 516v38h34v123h37v-54q0 -5 -1 -12t-3 -14l2 -1l9 12q12 15 26 22.5t29 7.5q20 0 37.5 -14.5t17.5 -49.5v-58h-188zM480 570q0 13 -4.5 21t-15.5 8q-10 0 -17.5 -6t-16.5 -17l-20 -22h74v16z" />
    <glyph glyph-name="afii57506" unicode="&#x67e;" horiz-adv-x="715" arabic-form="isolated" 
d="M686 161q0 -33 -12.5 -62.5t-33 -51.5t-49.5 -34.5t-62 -12.5h-247q-45 0 -83 15.5t-65.5 42.5t-42.5 63.5t-15 80.5v26q0 48 17 87.5t45 66.5t65.5 42t78.5 15v-102q-20 0 -37.5 -8t-31 -23t-21 -35t-7.5 -43v-26q0 -19 7 -35t20 -28.5t31 -20t39 -7.5h247q21 0 35 14.5
t14 35.5v262h108v-262zM512 -125q0 -52 -51 -52q-24 0 -37 13.5t-13 38.5t13 37.5t37 12.5q25 0 38 -12t13 -38zM393 -125q0 -25 -13 -38.5t-37 -13.5q-51 0 -51 52q0 26 13 38t38 12q24 0 37 -12.5t13 -37.5zM453 -235q0 -28 -13 -39.5t-38 -11.5t-38 11.5t-13 39.5
q0 23 13.5 37t37.5 14t37.5 -14t13.5 -37z" />
    <glyph glyph-name="afii57507" unicode="&#x686;" horiz-adv-x="549" arabic-form="isolated" 
d="M482 -10q-29 5 -70 9.5t-94 4.5q-35 0 -60.5 -8t-41.5 -21t-23.5 -31.5t-7.5 -36.5q0 -17 6.5 -32.5t21.5 -28t40 -22t63 -11.5l21 -3v-94h-21q-58 0 -102 14.5t-74 40t-45 60t-15 76.5q0 43 17 80.5t48.5 64.5t75.5 42t97 15q24 0 40.5 -2t30.5 -7l3 3q-12 14 -18 30
t-6 52v57q0 24 -6 44t-17.5 35.5t-28 23t-38.5 7.5q-34 0 -63 -16t-54 -45l-72 68q37 43 86 72.5t111 29.5q45 0 81 -15t60.5 -44t37 -70t12.5 -92v-55q0 -32 6.5 -55t19.5 -33l16 -14zM539 -86q0 -47 -47 -47q-22 0 -34.5 12t-12.5 35t12.5 35t34.5 12q24 0 35.5 -10.5
t11.5 -36.5zM429 -86q0 -23 -12.5 -35t-34.5 -12q-47 0 -47 47q0 26 11.5 36.5t35.5 10.5q22 0 34.5 -12t12.5 -35zM484 -188q0 -27 -11.5 -38t-35.5 -11t-35.5 11t-11.5 38q0 22 12.5 34.5t34.5 12.5t34.5 -12.5t12.5 -34.5z" />
    <glyph glyph-name="afii57512" unicode="&#x688;" horiz-adv-x="491" arabic-form="isolated" 
d="M76 0v111h276v96q0 24 -7 44t-21 35t-31.5 23.5t-38.5 8.5h-149v105h149q46 0 83.5 -16.5t65.5 -45t43 -68.5t15 -87v-206h-385zM106 545v38h34v123h37v-54q0 -5 -1 -12t-3 -14l2 -1l9 12q12 15 26 22.5t29 7.5q20 0 37.5 -14.5t17.5 -49.5v-58h-188zM258 599
q0 13 -4.5 21t-15.5 8q-10 0 -17.5 -6t-16.5 -17l-20 -22h74v16z" />
    <glyph glyph-name="afii57513" unicode="&#x691;" horiz-adv-x="333" arabic-form="isolated" 
d="M303 -18q0 -63 -19 -112t-57 -83.5t-95 -52.5t-132 -18v95q50 0 86 12.5t60 35t36 54.5t12 69v309h109v-309zM129 475v38h34v123h37v-54q0 -5 -1 -12t-3 -14l2 -1l9 12q12 15 26 22.5t29 7.5q20 0 37.5 -14.5t17.5 -49.5v-58h-188zM281 529q0 13 -4.5 21t-15.5 8
q-10 0 -17.5 -6t-16.5 -17l-20 -22h74v16z" />
    <glyph glyph-name="afii57508" unicode="&#x698;" horiz-adv-x="333" arabic-form="isolated" 
d="M303 -18q0 -63 -19 -112t-57 -83.5t-95 -52.5t-132 -18v95q50 0 86 12.5t60 35t36 54.5t12 69v309h109v-309zM113 517q0 51 51 51q24 0 37 -13t13 -38t-13 -38t-37 -13q-25 0 -38 12t-13 39zM232 517q0 25 13 38t37 13q51 0 51 -51q0 -27 -13 -39t-38 -12q-24 0 -37 13
t-13 38zM172 627q0 28 13 39.5t38 11.5t38 -11.5t13 -39.5q0 -25 -13.5 -38t-37.5 -13t-37.5 13t-13.5 38z" />
    <glyph glyph-name="uni069C.init" unicode="&#x69c;" horiz-adv-x="644" 
d="M614 173q0 -90 -39 -140t-102 -50q-15 0 -30.5 5t-30.5 14.5t-27 25t-18 36.5h-3q-12 -35 -39.5 -49.5t-58.5 -14.5q-29 0 -58 14t-42 53h-2q-8 -20 -20 -32.5t-28 -20t-34.5 -11t-36.5 -3.5h-45q-9 0 -16.5 7t-13 18.5t-9 25t-3.5 26.5q0 17 10.5 25.5t31.5 8.5h45
q34 0 48 18.5t14 49.5v184h109v-189q0 -33 14 -48t33 -15q21 0 35 16t14 49v187h103v-187q0 -42 15 -62t35 -20q21 0 34 18t13 64v261h102v-264zM254 571q0 51 51 51q24 0 37 -13t13 -38t-13 -38t-37 -13q-25 0 -38 12t-13 39zM373 571q0 25 13 38t37 13q51 0 51 -51
q0 -27 -13 -39t-38 -12q-24 0 -37 13t-13 38zM313 681q0 28 13 39.5t38 11.5t38 -11.5t13 -39.5q0 -25 -13.5 -38t-37.5 -13t-37.5 13t-13.5 38zM475 -138q0 -52 -51 -52q-24 0 -37 13.5t-13 38.5t13 37.5t37 12.5q25 0 38 -12t13 -38zM356 -138q0 -25 -13 -38.5t-37 -13.5
q-51 0 -51 52q0 26 13 38t38 12q24 0 37 -12.5t13 -37.5zM416 -248q0 -28 -13 -39.5t-38 -11.5t-38 11.5t-13 39.5q0 23 13.5 37t37.5 14t37.5 -14t13.5 -37z" />
    <glyph glyph-name="uni069C.medi" unicode="&#x69c;" horiz-adv-x="669" 
d="M614 172q0 -25 14.5 -43t40.5 -18v-111q-29 0 -57 16.5t-42 50.5h-3q-8 -22 -18.5 -38t-23.5 -26t-28.5 -15t-34.5 -5q-11 0 -25.5 4.5t-27.5 14.5t-24.5 26.5t-17.5 38.5h-3q-5 -19 -15.5 -31t-23.5 -20.5t-29.5 -12t-32.5 -3.5q-27 0 -55.5 14t-41.5 53h-2
q-8 -20 -20 -32.5t-27.5 -20t-32 -11t-32.5 -3.5h-52q-9 0 -16.5 7t-13 18.5t-9 25t-3.5 26.5q0 17 10.5 25.5t31.5 8.5h45q34 0 48 18.5t14 49.5v184h109v-189q0 -33 14 -48t33 -15q21 0 35 16t14 49v187h103v-187q0 -44 15 -63t35 -19q21 0 34 18t13 64v261h102v-265z
M254 571q0 51 51 51q24 0 37 -13t13 -38t-13 -38t-37 -13q-25 0 -38 12t-13 39zM373 571q0 25 13 38t37 13q51 0 51 -51q0 -27 -13 -39t-38 -12q-24 0 -37 13t-13 38zM313 681q0 28 13 39.5t38 11.5t38 -11.5t13 -39.5q0 -25 -13.5 -38t-37.5 -13t-37.5 13t-13.5 38z
M475 -138q0 -52 -51 -52q-24 0 -37 13.5t-13 38.5t13 37.5t37 12.5q25 0 38 -12t13 -38zM356 -138q0 -25 -13 -38.5t-37 -13.5q-51 0 -51 52q0 26 13 38t38 12q24 0 37 -12.5t13 -37.5zM416 -248q0 -28 -13 -39.5t-38 -11.5t-38 11.5t-13 39.5q0 23 13.5 37t37.5 14
t37.5 -14t13.5 -37z" />
    <glyph glyph-name="uni069C.fina" unicode="&#x69c;" horiz-adv-x="1056" 
d="M1056 0q-15 0 -30 3.5t-28 11t-24 20t-18 30.5h-2q-10 -22 -20.5 -37.5t-24 -25.5t-29.5 -14.5t-31 -4.5q-25 0 -53 19t-42 58h-2q-13 -27 -35.5 -42t-51.5 -15q-19 0 -38 9t-28 30h-4q1 -11 1.5 -24t0.5 -26q0 -61 -21 -114.5t-58 -91t-88 -59.5t-112 -22
q-135 0 -207.5 91t-72.5 256v104h102v-100q0 -116 46.5 -177.5t131.5 -61.5q37 0 68.5 13.5t55.5 39t37 63t13 85.5v345h110v-184q0 -36 14 -52t34 -16q21 0 34.5 16t13.5 49v187h102v-187q0 -42 15 -62t35 -20q21 0 35 20t14 62v261h102v-263q0 -29 14 -46t41 -17v-111z
M644 571q0 51 51 51q24 0 37 -13t13 -38t-13 -38t-37 -13q-25 0 -38 12t-13 39zM763 571q0 25 13 38t37 13q51 0 51 -51q0 -27 -13 -39t-38 -12q-24 0 -37 13t-13 38zM703 681q0 28 13 39.5t38 11.5t38 -11.5t13 -39.5q0 -25 -13.5 -38t-37.5 -13t-37.5 13t-13.5 38z
M866 -138q0 -52 -51 -52q-24 0 -37 13.5t-13 38.5t13 37.5t37 12.5q25 0 38 -12t13 -38zM747 -138q0 -25 -13 -38.5t-37 -13.5q-51 0 -51 52q0 26 13 38t38 12q24 0 37 -12.5t13 -37.5zM807 -248q0 -28 -13 -39.5t-38 -11.5t-38 11.5t-13 39.5q0 23 13.5 37t37.5 14
t37.5 -14t13.5 -37z" />
    <glyph glyph-name="uni06A1.init" unicode="&#x6a1;" horiz-adv-x="498" 
d="M0 0q-9 0 -16.5 7t-13 18.5t-9 25t-3.5 26.5q0 17 10.5 25.5t31.5 8.5h161q26 0 51 -2t42 -9l1 2q-34 17 -69 35.5t-64 44t-47.5 59.5t-18.5 79q0 38 16 72.5t43.5 60t65.5 40.5t81 15q44 0 81.5 -16.5t65.5 -44.5t44 -66.5t16 -81.5v-299h-469zM360 301q0 20 -8 37.5
t-21 31.5t-30.5 21.5t-38.5 7.5t-38.5 -7t-31 -19t-20.5 -27.5t-7 -31.5q0 -35 19.5 -60.5t50 -46t64.5 -34t61 -25.5v153z" />
    <glyph glyph-name="uni06A1.medi" unicode="&#x6a1;" horiz-adv-x="523" 
d="M523 0q-24 0 -50 4.5t-51 20.5q-9 -16 -23.5 -20.5t-50.5 -4.5h-348q-9 0 -16.5 7t-13 18.5t-9 25t-3.5 26.5q0 17 10.5 25.5t31.5 8.5h156q30 0 55 -2t40 -8l2 2q-33 16 -67.5 34.5t-63.5 44t-47.5 59.5t-18.5 79q0 38 16 72.5t43.5 60t65.5 40.5t81 15q44 0 81.5 -16.5
t65.5 -44.5t44 -66.5t16 -81.5v-173q12 -7 26.5 -11t27.5 -4v-111zM360 301q0 20 -8 38.5t-21 31.5t-30.5 20.5t-38.5 7.5q-20 0 -38 -7t-31.5 -19t-20.5 -27.5t-7 -31.5q0 -35 19.5 -60.5t50 -44.5t64.5 -33t61 -23v148z" />
    <glyph glyph-name="uni06A1.fina" unicode="&#x6a1;" horiz-adv-x="940" 
d="M940 0q-23 0 -49.5 4.5t-50.5 20.5q-10 -16 -24 -20.5t-51 -4.5h-489q-45 0 -82.5 14.5t-64 43t-40 68.5t-13.5 91v144h102v-144q0 -23 7.5 -42t19.5 -33t30.5 -22.5t40.5 -8.5h298q28 0 54 -2t41 -8l2 2q-33 16 -68 34.5t-63.5 44t-47.5 59.5t-19 79q0 38 16.5 72.5
t44 60t65.5 40.5t81 15q44 0 81.5 -16.5t65 -44.5t44 -66.5t16.5 -81.5v-173q12 -7 26 -11t27 -4v-111zM778 301q0 20 -8 38.5t-21 31.5t-30.5 20.5t-38.5 7.5t-39 -7t-31 -19t-20 -27.5t-7 -31.5q0 -35 19.5 -60.5t49.5 -44.5t64.5 -33t61.5 -23v148z" />
    <glyph glyph-name="uni06A2.init" unicode="&#x6a2;" horiz-adv-x="498" 
d="M0 0q-9 0 -16.5 7t-13 18.5t-9 25t-3.5 26.5q0 17 10.5 25.5t31.5 8.5h161q26 0 51 -2t42 -9l1 2q-34 17 -69 35.5t-64 44t-47.5 59.5t-18.5 79q0 38 16 72.5t43.5 60t65.5 40.5t81 15q44 0 81.5 -16.5t65.5 -44.5t44 -66.5t16 -81.5v-299h-469zM360 301q0 20 -8 37.5
t-21 31.5t-30.5 21.5t-38.5 7.5t-38.5 -7t-31 -19t-20.5 -27.5t-7 -31.5q0 -35 19.5 -60.5t50 -46t64.5 -34t61 -25.5v153zM209 -139q0 52 52 52t52 -52q0 -53 -52 -53t-52 53z" />
    <glyph glyph-name="uni06A2.medi" unicode="&#x6a2;" horiz-adv-x="523" 
d="M523 0q-24 0 -50 4.5t-51 20.5q-9 -16 -23.5 -20.5t-50.5 -4.5h-348q-9 0 -16.5 7t-13 18.5t-9 25t-3.5 26.5q0 17 10.5 25.5t31.5 8.5h156q30 0 55 -2t40 -8l2 2q-33 16 -67.5 34.5t-63.5 44t-47.5 59.5t-18.5 79q0 38 16 72.5t43.5 60t65.5 40.5t81 15q44 0 81.5 -16.5
t65.5 -44.5t44 -66.5t16 -81.5v-173q12 -7 26.5 -11t27.5 -4v-111zM360 301q0 20 -8 38.5t-21 31.5t-30.5 20.5t-38.5 7.5q-20 0 -38 -7t-31.5 -19t-20.5 -27.5t-7 -31.5q0 -35 19.5 -60.5t50 -44.5t64.5 -33t61 -23v148zM209 -139q0 52 52 52t52 -52q0 -53 -52 -53t-52 53z
" />
    <glyph glyph-name="uni06A2.fina" unicode="&#x6a2;" horiz-adv-x="940" 
d="M940 0q-23 0 -49.5 4.5t-50.5 20.5q-10 -16 -24 -20.5t-51 -4.5h-489q-45 0 -82.5 14.5t-64 43t-40 68.5t-13.5 91v144h102v-144q0 -23 7.5 -42t19.5 -33t30.5 -22.5t40.5 -8.5h298q28 0 54 -2t41 -8l2 2q-33 16 -68 34.5t-63.5 44t-47.5 59.5t-19 79q0 38 16.5 72.5
t44 60t65.5 40.5t81 15q44 0 81.5 -16.5t65 -44.5t44 -66.5t16.5 -81.5v-173q12 -7 26 -11t27 -4v-111zM778 301q0 20 -8 38.5t-21 31.5t-30.5 20.5t-38.5 7.5t-39 -7t-31 -19t-20 -27.5t-7 -31.5q0 -35 19.5 -60.5t49.5 -44.5t64.5 -33t61.5 -23v148zM625 -139q0 52 52 52
t52 -52q0 -53 -52 -53t-52 53z" />
    <glyph glyph-name="afii57505" unicode="&#x6a4;" horiz-adv-x="916" arabic-form="isolated" 
d="M276 0q-45 0 -82.5 14.5t-64 43t-40 68.5t-13.5 91v144h102v-144q0 -23 7.5 -42t19.5 -33t30.5 -22.5t40.5 -8.5h303q26 0 51 -2t42 -9l1 2q-34 17 -69.5 35.5t-64 44t-47.5 59.5t-19 79q0 38 16.5 72.5t44 60t65.5 40.5t81 15q44 0 81.5 -16.5t65 -44.5t44 -66.5
t16.5 -81.5v-299h-611zM778 301q0 20 -8 37.5t-21 31.5t-30.5 21.5t-38.5 7.5t-39.5 -7t-31 -19t-19.5 -27.5t-7 -31.5q0 -35 19.5 -60.5t49.5 -46t64.5 -34t61.5 -25.5v153zM555 625q0 51 51 51q24 0 37 -13t13 -38t-13 -38t-37 -13q-25 0 -38 12t-13 39zM674 625
q0 25 13 38t37 13q51 0 51 -51q0 -27 -13 -39t-38 -12q-24 0 -37 13t-13 38zM614 735q0 28 13 39.5t38 11.5t38 -11.5t13 -39.5q0 -25 -13.5 -38t-37.5 -13t-37.5 13t-13.5 38z" />
    <glyph glyph-name="uni06A5.init" unicode="&#x6a5;" horiz-adv-x="498" 
d="M0 0q-9 0 -16.5 7t-13 18.5t-9 25t-3.5 26.5q0 17 10.5 25.5t31.5 8.5h161q26 0 51 -2t42 -9l1 2q-34 17 -69 35.5t-64 44t-47.5 59.5t-18.5 79q0 38 16 72.5t43.5 60t65.5 40.5t81 15q44 0 81.5 -16.5t65.5 -44.5t44 -66.5t16 -81.5v-299h-469zM360 301q0 20 -8 37.5
t-21 31.5t-30.5 21.5t-38.5 7.5t-38.5 -7t-31 -19t-20.5 -27.5t-7 -31.5q0 -35 19.5 -60.5t50 -46t64.5 -34t61 -25.5v153zM371 -129q0 -52 -51 -52q-24 0 -37 13.5t-13 38.5t13 37.5t37 12.5q25 0 38 -12t13 -38zM252 -129q0 -25 -13 -38.5t-37 -13.5q-51 0 -51 52
q0 26 13 38t38 12q24 0 37 -12.5t13 -37.5zM312 -239q0 -28 -13 -39.5t-38 -11.5t-38 11.5t-13 39.5q0 23 13.5 37t37.5 14t37.5 -14t13.5 -37z" />
    <glyph glyph-name="uni06A5.medi" unicode="&#x6a5;" horiz-adv-x="523" 
d="M523 0q-24 0 -50 4.5t-51 20.5q-9 -16 -23.5 -20.5t-50.5 -4.5h-348q-9 0 -16.5 7t-13 18.5t-9 25t-3.5 26.5q0 17 10.5 25.5t31.5 8.5h156q30 0 55 -2t40 -8l2 2q-33 16 -67.5 34.5t-63.5 44t-47.5 59.5t-18.5 79q0 38 16 72.5t43.5 60t65.5 40.5t81 15q44 0 81.5 -16.5
t65.5 -44.5t44 -66.5t16 -81.5v-173q12 -7 26.5 -11t27.5 -4v-111zM360 301q0 20 -8 38.5t-21 31.5t-30.5 20.5t-38.5 7.5q-20 0 -38 -7t-31.5 -19t-20.5 -27.5t-7 -31.5q0 -35 19.5 -60.5t50 -44.5t64.5 -33t61 -23v148zM371 -129q0 -52 -51 -52q-24 0 -37 13.5t-13 38.5
t13 37.5t37 12.5q25 0 38 -12t13 -38zM252 -129q0 -25 -13 -38.5t-37 -13.5q-51 0 -51 52q0 26 13 38t38 12q24 0 37 -12.5t13 -37.5zM312 -239q0 -28 -13 -39.5t-38 -11.5t-38 11.5t-13 39.5q0 23 13.5 37t37.5 14t37.5 -14t13.5 -37z" />
    <glyph glyph-name="uni06A5.fina" unicode="&#x6a5;" horiz-adv-x="940" 
d="M940 0q-23 0 -49.5 4.5t-50.5 20.5q-10 -16 -24 -20.5t-51 -4.5h-489q-45 0 -82.5 14.5t-64 43t-40 68.5t-13.5 91v144h102v-144q0 -23 7.5 -42t19.5 -33t30.5 -22.5t40.5 -8.5h298q28 0 54 -2t41 -8l2 2q-33 16 -68 34.5t-63.5 44t-47.5 59.5t-19 79q0 38 16.5 72.5
t44 60t65.5 40.5t81 15q44 0 81.5 -16.5t65 -44.5t44 -66.5t16.5 -81.5v-173q12 -7 26 -11t27 -4v-111zM778 301q0 20 -8 38.5t-21 31.5t-30.5 20.5t-38.5 7.5t-39 -7t-31 -19t-20 -27.5t-7 -31.5q0 -35 19.5 -60.5t49.5 -44.5t64.5 -33t61.5 -23v148zM781 -138
q0 -52 -51 -52q-24 0 -37 13.5t-13 38.5t13 37.5t37 12.5q25 0 38 -12t13 -38zM662 -138q0 -25 -13 -38.5t-37 -13.5q-51 0 -51 52q0 26 13 38t38 12q24 0 37 -12.5t13 -37.5zM722 -248q0 -28 -13 -39.5t-38 -11.5t-38 11.5t-13 39.5q0 23 13.5 37t37.5 14t37.5 -14
t13.5 -37z" />
    <glyph glyph-name="uni06A7.fina" unicode="&#x6a7;" horiz-adv-x="715" 
d="M660 111h55v-111h-55v-16q0 -59 -24 -108t-66.5 -85t-99.5 -55.5t-124 -19.5q-74 0 -131.5 21.5t-97.5 64t-59.5 105.5t-19.5 145v104h102v-100q0 -59 12.5 -103.5t36.5 -75t61 -46.5t87 -16q45 0 84.5 12.5t68.5 34t45 50.5t16 62v26h-97q-44 0 -82 15t-65.5 42
t-43 63.5t-15.5 81.5v34q0 43 15.5 82.5t43 69t65 46.5t81.5 17q43 0 81 -17t67 -46.5t44 -69.5t15 -85v-122zM551 236q0 21 -7 40t-20.5 32.5t-31.5 22t-39 8.5t-38 -8.5t-30 -22t-21 -32.5t-8 -40v-34q0 -21 8.5 -38t22.5 -28.5t33 -18t41 -6.5h90v125zM402 591
q0 52 52 52t52 -52q0 -53 -52 -53t-52 53z" />
    <glyph glyph-name="uni06A8.fina" unicode="&#x6a8;" horiz-adv-x="715" 
d="M660 111h55v-111h-55v-16q0 -59 -24 -108t-66.5 -85t-99.5 -55.5t-124 -19.5q-74 0 -131.5 21.5t-97.5 64t-59.5 105.5t-19.5 145v104h102v-100q0 -59 12.5 -103.5t36.5 -75t61 -46.5t87 -16q45 0 84.5 12.5t68.5 34t45 50.5t16 62v26h-97q-44 0 -82 15t-65.5 42
t-43 63.5t-15.5 81.5v34q0 43 15.5 82.5t43 69t65 46.5t81.5 17q43 0 81 -17t67 -46.5t44 -69.5t15 -85v-122zM551 236q0 21 -7 40t-20.5 32.5t-31.5 22t-39 8.5t-38 -8.5t-30 -22t-21 -32.5t-8 -40v-34q0 -21 8.5 -38t22.5 -28.5t33 -18t41 -6.5h90v125zM344 589
q0 51 51 51q24 0 37 -13t13 -38t-13 -38t-37 -13q-25 0 -38 12t-13 39zM463 589q0 25 13 38t37 13q51 0 51 -51q0 -27 -13 -39t-38 -12q-24 0 -37 13t-13 38zM403 699q0 28 13 39.5t38 11.5t38 -11.5t13 -39.5q0 -25 -13.5 -38t-37.5 -13t-37.5 13t-13.5 38z" />
    <glyph glyph-name="uni06A9" unicode="&#x6a9;" horiz-adv-x="931" arabic-form="isolated" 
d="M658 460q45 -19 87.5 -47t77 -63.5t55.5 -78.5t21 -93q0 -48 -18 -82t-48 -55t-72 -31t-92 -10h-394q-46 0 -82.5 14.5t-63 43t-40 68.5t-13.5 91v74h102v-74q0 -23 7.5 -42t19.5 -33t30 -22.5t40 -8.5h371q32 0 59 5.5t45.5 14t29 21.5t10.5 27q0 38 -26.5 74t-67 67
t-92 55t-104.5 39v16l264 293h123v-8z" />
    <glyph glyph-name="uni06AA.init" unicode="&#x6aa;" horiz-adv-x="935" 
d="M0 0q-9 0 -16.5 7t-13 18.5t-9 25t-3.5 26.5q0 17 10.5 25.5t31.5 8.5h798v28q0 37 -25 55.5t-60 18.5h-586q-35 0 -57.5 17.5t-22.5 51.5q0 15 12.5 33t30.5 37l214 239h123v-8l-206 -229q-9 -10 -20.5 -21t-22.5 -19l1 -4q15 6 29.5 7t31.5 1h473q44 0 79.5 -11t61 -34
t39 -56.5t13.5 -75.5v-141h-906z" />
    <glyph glyph-name="uni06AA.medi" unicode="&#x6aa;" horiz-adv-x="955" 
d="M0 0q-9 0 -16.5 7t-13 18.5t-9 25t-3.5 26.5q0 17 10.5 25.5t31.5 8.5h798v28q0 37 -25 55.5t-60 18.5h-586q-35 0 -57.5 17.5t-22.5 51.5q0 15 12.5 33t30.5 37l214 239h123v-8l-206 -229q-8 -10 -20 -21t-23 -19l1 -4q15 6 29.5 7t31.5 1h473q44 0 79.5 -11t61 -34
t39 -56.5t13.5 -75.5v-30h49v-111h-955z" />
    <glyph glyph-name="uni06AA.fina" unicode="&#x6aa;" horiz-adv-x="1223" 
d="M274 0q-49 0 -85.5 15.5t-62 45t-38 69t-12.5 87.5v70h109v-70q0 -24 7.5 -44t21 -33t33 -21t42.5 -8h777v28q0 37 -25 55.5t-60 18.5h-584q-37 0 -59 17.5t-22 51.5q0 15 12.5 33t30.5 37l213 239h123v-8l-205 -229q-8 -10 -20.5 -21t-22.5 -19l1 -4q14 6 28.5 7t31.5 1
h473q45 0 80 -11t60.5 -34t39.5 -56.5t14 -75.5v-30h48v-111h-949z" />
    <glyph glyph-name="afii57509" unicode="&#x6af;" horiz-adv-x="931" arabic-form="isolated" 
d="M658 460q45 -19 87.5 -47t77 -63.5t55.5 -78.5t21 -93q0 -48 -18 -82t-48 -55t-72 -31t-92 -10h-394q-46 0 -82.5 14.5t-63 43t-40 68.5t-13.5 91v74h102v-74q0 -23 7.5 -42t19.5 -33t30 -22.5t40 -8.5h371q32 0 59 5.5t45.5 14t29 21.5t10.5 27q0 38 -26.5 74t-67 67
t-92 55t-104.5 39v16l264 293h123v-8zM644 723h51v-5l-190 -210h-3v57z" />
    <glyph glyph-name="afii57514" unicode="&#x6ba;" horiz-adv-x="631" arabic-form="isolated" 
d="M602 34q0 -79 -22 -139.5t-60.5 -103t-89.5 -64.5t-112 -22q-135 0 -207.5 91t-72.5 256v104h102v-100q0 -116 46.5 -177.5t131.5 -61.5q37 0 68.5 13.5t55.5 41t37 68t13 94.5v250h110v-250z" />
    <glyph glyph-name="uni06BE" unicode="&#x6be;" horiz-adv-x="798" arabic-form="isolated" 
d="M756 -24q-68 6 -137.5 18.5t-131.5 33.5q-12 -18 -29 -23t-47 -5h-335v111h156q27 0 50.5 -1t38.5 -8l1 3q-27 13 -55.5 30t-52.5 40t-40 51.5t-16 64.5q0 35 12.5 64t35 50.5t54.5 34.5t70 16v38h199q53 0 96.5 -19t75 -53t50 -80.5t18.5 -100.5v-250zM661 241
q0 31 -10.5 59.5t-28 48.5t-41.5 32t-52 12h-85v-3q18 -5 33 -17.5t27 -30t18.5 -39t6.5 -45.5v-138q28 -10 64.5 -18t67.5 -10v149zM428 255q0 20 -5.5 39.5t-17.5 34t-29 23t-38 8.5q-16 0 -30.5 -6.5t-25 -16.5t-17 -25t-6.5 -30q0 -32 17 -54t42.5 -38t54.5 -27.5
t55 -21.5v114z" />
    <glyph glyph-name="uni06C0" unicode="&#x6c0;" horiz-adv-x="517" arabic-form="isolated" 
d="M489 202q0 -46 -16 -85.5t-44 -68t-66 -45t-81 -16.5q-44 0 -81 16.5t-65.5 45t-44 68t-15.5 85.5v34q0 43 15.5 82.5t44 69t65.5 46.5t81 17q43 0 81 -17t66 -46.5t44 -69t16 -82.5v-34zM380 236q0 21 -8 40.5t-21 34t-30.5 23t-38.5 8.5t-38 -8.5t-30.5 -23t-21 -34
t-7.5 -40.5v-34q0 -21 7.5 -40t21 -33t30.5 -22.5t38 -8.5t38.5 8.5t30.5 22.5t21 33t8 40v34zM207 541v72q0 47 29 77t75 30h44v-49h-44q-24 0 -40.5 -16t-16.5 -42v-22h101v-50h-148z" />
    <glyph glyph-name="uni06C1" unicode="&#x6c1;" horiz-adv-x="513" arabic-form="isolated" 
d="M282 326q-21 0 -38 -8.5t-30.5 -22t-20.5 -33.5t-7 -41v-221h-110v221q0 45 15.5 84t44 68.5t65.5 46.5t81 17h176v-269q0 -24 14.5 -40.5t40.5 -16.5v-111q-87 0 -125 45t-38 123v158h-68z" />
    <glyph glyph-name="uni06C2.isol" unicode="&#x6c2;" horiz-adv-x="517" 
d="M489 202q0 -46 -16 -85.5t-44 -68t-66 -45t-81 -16.5q-44 0 -81 16.5t-65.5 45t-44 68t-15.5 85.5v34q0 43 15.5 82.5t44 69t65.5 46.5t81 17q43 0 81 -17t66 -46.5t44 -69t16 -82.5v-34zM380 236q0 21 -8 40.5t-21 34t-30.5 23t-38.5 8.5t-38 -8.5t-30.5 -23t-21 -34
t-7.5 -40.5v-34q0 -21 7.5 -40t21 -33t30.5 -22.5t38 -8.5t38.5 8.5t30.5 22.5t21 33t8 40v34zM207 541v72q0 47 29 77t75 30h44v-49h-44q-24 0 -40.5 -16t-16.5 -42v-22h101v-50h-148z" />
    <glyph glyph-name="uni06C3.isol" unicode="&#x6c3;" horiz-adv-x="517" 
d="M489 202q0 -46 -16 -85.5t-44 -68t-66 -45t-81 -16.5q-44 0 -81 16.5t-65.5 45t-44 68t-15.5 85.5v34q0 43 15.5 82.5t44 69t65.5 46.5t81 17q43 0 81 -17t66 -46.5t44 -69t16 -82.5v-34zM380 236q0 21 -8 40.5t-21 34t-30.5 23t-38.5 8.5t-38 -8.5t-30.5 -23t-21 -34
t-7.5 -40.5v-34q0 -21 7.5 -40t21 -33t30.5 -22.5t38 -8.5t38.5 8.5t30.5 22.5t21 33t8 40v34zM175 590q0 51 49 51q24 0 37.5 -13t13.5 -38t-13.5 -37.5t-37.5 -12.5q-23 0 -36 12t-13 38zM289 590q0 25 13.5 38t37.5 13q49 0 49 -51q0 -26 -13 -38t-36 -12
q-24 0 -37.5 12.5t-13.5 37.5z" />
    <glyph glyph-name="uni06CC" unicode="&#x6cc;" horiz-adv-x="854" arabic-form="isolated" 
d="M715 0v310h-18q-24 0 -41.5 -8.5t-29.5 -22.5t-18 -33t-6 -40v-197q0 -68 -22 -124.5t-60 -96t-89.5 -61.5t-112.5 -22q-135 0 -207.5 91t-72.5 256v104h102v-100q0 -116 46.5 -177.5t131.5 -61.5q37 0 68.5 13.5t55.5 39t37 63t13 85.5v186q0 47 16 87t43.5 69.5
t65 45.5t81.5 16h127v-422h-110z" />
    <glyph glyph-name="afii57519" unicode="&#x6d2;" horiz-adv-x="792" arabic-form="isolated" 
d="M365 0v310h-18q-24 0 -41.5 -8.5t-29 -22.5t-18.5 -33t-7 -40v-184q0 -44 -10 -73.5t-33 -49.5v-2h744v-112h-914v110l24 7q40 12 60.5 40t20.5 84v178q0 47 15.5 87t42.5 69.5t65 45.5t82 16h126v-422h-109z" />
    <glyph glyph-name="uni06D3" unicode="&#x6d3;" horiz-adv-x="792" arabic-form="isolated" 
d="M365 0v310h-18q-24 0 -41.5 -8.5t-29 -22.5t-18.5 -33t-7 -40v-184q0 -44 -10 -73.5t-33 -49.5v-2h744v-112h-914v110l24 7q40 12 60.5 40t20.5 84v178q0 47 15.5 87t42.5 69.5t65 45.5t82 16h126v-422h-109zM327 527v72q0 47 29 77t75 30h44v-49h-44q-24 0 -40.5 -16
t-16.5 -42v-22h101v-50h-148z" />
    <glyph glyph-name="afii57534.fina" unicode="&#x6d5;" horiz-adv-x="546" 
d="M546 0q-39 0 -66 17t-40 56h-3q-22 -40 -66.5 -63t-88.5 -23t-81 16.5t-65.5 46t-44 68t-15.5 84.5v19q0 44 15.5 83.5t44 69t66.5 46.5t80 17h207v-260q0 -32 15 -49t42 -17v-111zM282 326q-21 0 -39 -8.5t-30.5 -22t-20 -33.5t-7.5 -41v-19q0 -21 7.5 -40t21 -33
t30.5 -22.5t38 -8.5t39 8.5t30.5 22.5t20.5 33t8 40v124h-98z" />
    <glyph glyph-name="uniFB51" unicode="&#x671;" horiz-adv-x="238" arabic-form="final" 
d="M238 0q-43 0 -73.5 11t-50.5 32.5t-29 52.5t-9 72v428h109v-428q0 -27 13.5 -42t39.5 -15v-111zM79 678v71h33v-12q0 -8 -2 -17h1l5 7q13 19 25 26.5t26 7.5q25 0 39 -16t14 -51v-50h-145q-17 0 -22.5 2t-13.5 12l-37 -19v38l45 25h2q3 -12 9.5 -18t16.5 -6h4zM187 691
q0 12 -3.5 22.5t-17.5 10.5q-8 0 -15 -3.5t-18 -14.5l-22 -28h76v13z" />
    <glyph glyph-name="uniFB57" unicode="&#x67e;" horiz-adv-x="745" arabic-form="final" 
d="M686 179q0 -31 16 -49.5t43 -18.5v-111q-15 0 -31.5 4.5t-31 13t-26.5 21.5t-18 29h-3q-14 -33 -41 -50.5t-71 -17.5h-241q-45 0 -83 15.5t-65.5 42.5t-42.5 63.5t-15 80.5v26q0 48 17 87.5t45 66.5t65.5 42t78.5 15v-102q-20 0 -37.5 -8t-31 -23t-21 -35t-7.5 -43v-26
q0 -19 7 -35t20 -28.5t31 -20t39 -7.5h241q26 0 40.5 17t14.5 45v250h108v-244zM512 -125q0 -52 -51 -52q-24 0 -37 13.5t-13 38.5t13 37.5t37 12.5q25 0 38 -12t13 -38zM393 -125q0 -25 -13 -38.5t-37 -13.5q-51 0 -51 52q0 26 13 38t38 12q24 0 37 -12.5t13 -37.5z
M453 -235q0 -28 -13 -39.5t-38 -11.5t-38 11.5t-13 39.5q0 23 13.5 37t37.5 14t37.5 -14t13.5 -37z" />
    <glyph glyph-name="uniFB58" unicode="&#x67e;" horiz-adv-x="276" arabic-form="initial" 
d="M248 196q0 -64 -18.5 -102.5t-52 -59.5t-78.5 -27.5t-99 -6.5q-9 0 -16.5 7t-13 18.5t-9 25t-3.5 26.5q0 17 10.5 25.5t31.5 8.5q37 0 63 4t43 13.5t25 25.5t8 44v225h109v-227zM248 -118q0 -52 -51 -52q-24 0 -37 13.5t-13 38.5t13 37.5t37 12.5q25 0 38 -12t13 -38z
M129 -118q0 -25 -13 -38.5t-37 -13.5q-51 0 -51 52q0 26 13 38t38 12q24 0 37 -12.5t13 -37.5zM189 -228q0 -28 -13 -39.5t-38 -11.5t-38 11.5t-13 39.5q0 23 13.5 37t37.5 14t37.5 -14t13.5 -37z" />
    <glyph glyph-name="uniFB59" unicode="&#x67e;" horiz-adv-x="265" arabic-form="medial" 
d="M265 0q-49 0 -80.5 14.5t-48.5 52.5h-2q-11 -20 -24.5 -33t-30 -20t-36 -10.5t-43.5 -3.5q-13 0 -27.5 21.5t-14.5 55.5q0 16 10.5 25t31.5 9q39 0 58 14.5t19 48.5v176h109v-177q0 -34 18.5 -48t60.5 -14v-111zM233 -138q0 -52 -51 -52q-24 0 -37 13.5t-13 38.5t13 37.5
t37 12.5q25 0 38 -12t13 -38zM114 -138q0 -25 -13 -38.5t-37 -13.5q-51 0 -51 52q0 26 13 38t38 12q24 0 37 -12.5t13 -37.5zM174 -248q0 -28 -13 -39.5t-38 -11.5t-38 11.5t-13 39.5q0 23 13.5 37t37.5 14t37.5 -14t13.5 -37z" />
    <glyph glyph-name="uniFB67" unicode="&#x679;" horiz-adv-x="745" arabic-form="final" 
d="M686 179q0 -31 16 -49.5t43 -18.5v-111q-15 0 -31.5 4.5t-31 13t-26.5 21.5t-18 29h-3q-14 -33 -41 -50.5t-71 -17.5h-241q-45 0 -83 15.5t-65.5 42.5t-42.5 63.5t-15 80.5v26q0 48 17 87.5t45 66.5t65.5 42t78.5 15v-102q-20 0 -37.5 -8t-31 -23t-21 -35t-7.5 -43v-26
q0 -19 7 -35t20 -28.5t31 -20t39 -7.5h241q26 0 40.5 17t14.5 45v250h108v-244zM328 516v38h34v123h37v-54q0 -5 -1 -12t-3 -14l2 -1l9 12q12 15 26 22.5t29 7.5q20 0 37.5 -14.5t17.5 -49.5v-58h-188zM480 570q0 13 -4.5 21t-15.5 8q-10 0 -17.5 -6t-16.5 -17l-20 -22h74
v16z" />
    <glyph glyph-name="uniFB68" unicode="&#x679;" horiz-adv-x="276" arabic-form="initial" 
d="M248 196q0 -64 -18.5 -102.5t-52 -59.5t-78.5 -27.5t-99 -6.5q-9 0 -16.5 7t-13 18.5t-9 25t-3.5 26.5q0 17 10.5 25.5t31.5 8.5q37 0 63 4t43 13.5t25 25.5t8 44v225h109v-227zM70 533v38h34v123h37v-54q0 -5 -1 -12t-3 -14l2 -1l9 12q12 15 26 22.5t29 7.5
q20 0 37.5 -14.5t17.5 -49.5v-58h-188zM222 587q0 13 -4.5 21t-15.5 8q-10 0 -17.5 -6t-16.5 -17l-20 -22h74v16z" />
    <glyph glyph-name="uniFB69" unicode="&#x679;" horiz-adv-x="265" arabic-form="medial" 
d="M265 0q-49 0 -80.5 14.5t-48.5 52.5h-2q-11 -20 -24.5 -33t-30 -20t-36 -10.5t-43.5 -3.5q-13 0 -27.5 21.5t-14.5 55.5q0 16 10.5 25t31.5 9q39 0 58 14.5t19 48.5v176h109v-177q0 -34 18.5 -48t60.5 -14v-111zM37 464v38h34v123h37v-54q0 -5 -1 -12t-3 -14l2 -1l9 12
q12 15 26 22.5t29 7.5q20 0 37.5 -14.5t17.5 -49.5v-58h-188zM189 518q0 13 -4.5 21t-15.5 8q-10 0 -17.5 -6t-16.5 -17l-20 -22h74v16z" />
    <glyph glyph-name="uniFB6B" unicode="&#x6a4;" horiz-adv-x="940" arabic-form="final" 
d="M940 0q-23 0 -49.5 4.5t-50.5 20.5q-10 -16 -24 -20.5t-51 -4.5h-489q-45 0 -82.5 14.5t-64 43t-40 68.5t-13.5 91v144h102v-144q0 -23 7.5 -42t19.5 -33t30.5 -22.5t40.5 -8.5h298q28 0 54 -2t41 -8l2 2q-33 16 -68 34.5t-63.5 44t-47.5 59.5t-19 79q0 38 16.5 72.5
t44 60t65.5 40.5t81 15q44 0 81.5 -16.5t65 -44.5t44 -66.5t16.5 -81.5v-173q12 -7 26 -11t27 -4v-111zM778 301q0 20 -8 38.5t-21 31.5t-30.5 20.5t-38.5 7.5t-39 -7t-31 -19t-20 -27.5t-7 -31.5q0 -35 19.5 -60.5t49.5 -44.5t64.5 -33t61.5 -23v148zM555 625q0 51 51 51
q24 0 37 -13t13 -38t-13 -38t-37 -13q-25 0 -38 12t-13 39zM674 625q0 25 13 38t37 13q51 0 51 -51q0 -27 -13 -39t-38 -12q-24 0 -37 13t-13 38zM614 735q0 28 13 39.5t38 11.5t38 -11.5t13 -39.5q0 -25 -13.5 -38t-37.5 -13t-37.5 13t-13.5 38z" />
    <glyph glyph-name="uniFB6C" unicode="&#x6a4;" horiz-adv-x="498" arabic-form="initial" 
d="M0 0q-9 0 -16.5 7t-13 18.5t-9 25t-3.5 26.5q0 17 10.5 25.5t31.5 8.5h161q26 0 51 -2t42 -9l1 2q-34 17 -69 35.5t-64 44t-47.5 59.5t-18.5 79q0 38 16 72.5t43.5 60t65.5 40.5t81 15q44 0 81.5 -16.5t65.5 -44.5t44 -66.5t16 -81.5v-299h-469zM360 301q0 20 -8 37.5
t-21 31.5t-30.5 21.5t-38.5 7.5t-38.5 -7t-31 -19t-20.5 -27.5t-7 -31.5q0 -35 19.5 -60.5t50 -46t64.5 -34t61 -25.5v153zM148 625q0 51 51 51q24 0 37 -13t13 -38t-13 -38t-37 -13q-25 0 -38 12t-13 39zM267 625q0 25 13 38t37 13q51 0 51 -51q0 -27 -13 -39t-38 -12
q-24 0 -37 13t-13 38zM207 735q0 28 13 39.5t38 11.5t38 -11.5t13 -39.5q0 -25 -13.5 -38t-37.5 -13t-37.5 13t-13.5 38z" />
    <glyph glyph-name="uniFB6D" unicode="&#x6a4;" horiz-adv-x="523" arabic-form="medial" 
d="M523 0q-24 0 -50 4.5t-51 20.5q-9 -16 -23.5 -20.5t-50.5 -4.5h-348q-9 0 -16.5 7t-13 18.5t-9 25t-3.5 26.5q0 17 10.5 25.5t31.5 8.5h156q30 0 55 -2t40 -8l2 2q-33 16 -67.5 34.5t-63.5 44t-47.5 59.5t-18.5 79q0 38 16 72.5t43.5 60t65.5 40.5t81 15q44 0 81.5 -16.5
t65.5 -44.5t44 -66.5t16 -81.5v-173q12 -7 26.5 -11t27.5 -4v-111zM360 301q0 20 -8 38.5t-21 31.5t-30.5 20.5t-38.5 7.5q-20 0 -38 -7t-31.5 -19t-20.5 -27.5t-7 -31.5q0 -35 19.5 -60.5t50 -44.5t64.5 -33t61 -23v148zM148 625q0 51 51 51q24 0 37 -13t13 -38t-13 -38
t-37 -13q-25 0 -38 12t-13 39zM267 625q0 25 13 38t37 13q51 0 51 -51q0 -27 -13 -39t-38 -12q-24 0 -37 13t-13 38zM207 735q0 28 13 39.5t38 11.5t38 -11.5t13 -39.5q0 -25 -13.5 -38t-37.5 -13t-37.5 13t-13.5 38z" />
    <glyph glyph-name="uniFB7B" unicode="&#x686;" horiz-adv-x="538" arabic-form="final" 
d="M318 0q-35 0 -60.5 -7t-41.5 -19.5t-23.5 -30.5t-7.5 -36q0 -17 5 -32t19 -27.5t38 -21.5t63 -12l27 -3v-95h-27q-59 0 -102 14.5t-71 40t-42.5 60t-14.5 76.5q0 43 17 80.5t48.5 64.5t75.5 42t97 15q21 0 39.5 -2t31.5 -7l3 3q-12 14 -18 30t-6 52v57q0 24 -6 44
t-17.5 35.5t-28 23t-38.5 7.5q-34 0 -63 -16t-54 -45l-72 68q37 43 86 72.5t111 29.5q45 0 81 -13.5t60.5 -42.5t37 -71.5t12.5 -99.5v-52q0 -25 5 -43.5t20 -27.5h36v-111h-220zM539 -86q0 -47 -47 -47q-22 0 -34.5 12t-12.5 35t12.5 35t34.5 12q24 0 35.5 -10.5
t11.5 -36.5zM429 -86q0 -23 -12.5 -35t-34.5 -12q-47 0 -47 47q0 26 11.5 36.5t35.5 10.5q22 0 34.5 -12t12.5 -35zM484 -188q0 -27 -11.5 -38t-35.5 -11t-35.5 11t-11.5 38q0 22 12.5 34.5t34.5 12.5t34.5 -12.5t12.5 -34.5z" />
    <glyph glyph-name="uniFB7C" unicode="&#x686;" horiz-adv-x="489" arabic-form="initial" 
d="M426 -13q-29 5 -67 9t-85 4h-274q-9 0 -16.5 7t-13 18.5t-9 25t-3.5 26.5q0 17 10.5 25.5t31.5 8.5h265q18 0 35.5 -2.5t33.5 -8.5l3 3q-7 7 -11.5 13.5t-8 15.5t-4.5 21.5t-1 31.5v55q0 23 -5.5 43t-16.5 35t-26.5 23.5t-36.5 8.5q-36 0 -63.5 -16t-49.5 -42l-69 72
q34 41 81 67.5t107 26.5q46 0 81.5 -15t59 -43t35 -68.5t11.5 -91.5v-58q0 -31 7 -55t20 -34l17 -14zM330 -113q0 -52 -51 -52q-24 0 -37 13.5t-13 38.5t13 37.5t37 12.5q25 0 38 -12t13 -38zM211 -113q0 -25 -13 -38.5t-37 -13.5q-51 0 -51 52q0 26 13 38t38 12
q24 0 37 -12.5t13 -37.5zM271 -223q0 -28 -13 -39.5t-38 -11.5t-38 11.5t-13 39.5q0 23 13.5 37t37.5 14t37.5 -14t13.5 -37z" />
    <glyph glyph-name="uniFB7D" unicode="&#x686;" horiz-adv-x="469" arabic-form="medial" 
d="M0 0q-9 0 -16.5 7t-13 18.5t-9 25t-3.5 26.5q0 17 10.5 25.5t31.5 8.5h265q18 0 35.5 -2.5t33.5 -8.5l3 3q-7 7 -11.5 13.5t-8 15.5t-4.5 21.5t-1 31.5v55q0 23 -5.5 43t-16.5 35t-26.5 23.5t-36.5 8.5q-36 0 -63.5 -16t-49.5 -42l-69 72q34 41 79.5 67.5t108.5 26.5
q46 0 81.5 -15t59 -43t35 -68.5t11.5 -91.5v-58q0 -25 5.5 -43.5t19.5 -27.5h24v-111h-469zM330 -113q0 -52 -51 -52q-24 0 -37 13.5t-13 38.5t13 37.5t37 12.5q25 0 38 -12t13 -38zM211 -113q0 -25 -13 -38.5t-37 -13.5q-51 0 -51 52q0 26 13 38t38 12q24 0 37 -12.5
t13 -37.5zM271 -223q0 -28 -13 -39.5t-38 -11.5t-38 11.5t-13 39.5q0 23 13.5 37t37.5 14t37.5 -14t13.5 -37z" />
    <glyph glyph-name="uniFB89" unicode="&#x688;" horiz-adv-x="516" arabic-form="final" 
d="M76 0v111h276v96q0 24 -7 44t-21 35t-31.5 23.5t-38.5 8.5h-149v105h149q46 0 83.5 -16.5t65.5 -45t43 -68.5t15 -87v-95h55v-111h-440zM106 545v38h34v123h37v-54q0 -5 -1 -12t-3 -14l2 -1l9 12q12 15 26 22.5t29 7.5q20 0 37.5 -14.5t17.5 -49.5v-58h-188zM258 599
q0 13 -4.5 21t-15.5 8q-10 0 -17.5 -6t-16.5 -17l-20 -22h74v16z" />
    <glyph glyph-name="uniFB8B" unicode="&#x698;" horiz-adv-x="356" arabic-form="final" 
d="M356 0q-19 0 -33.5 10t-21.5 29h-5q3 -14 3.5 -28.5t0.5 -28.5q0 -66 -20.5 -115t-59 -83t-95 -51t-125.5 -17v95q50 0 86 12.5t60 35t36 54.5t12 69v309h109v-114q0 -32 15 -49t38 -17v-111zM113 517q0 51 51 51q24 0 37 -13t13 -38t-13 -38t-37 -13q-25 0 -38 12
t-13 39zM232 517q0 25 13 38t37 13q51 0 51 -51q0 -27 -13 -39t-38 -12q-24 0 -37 13t-13 38zM172 627q0 28 13 39.5t38 11.5t38 -11.5t13 -39.5q0 -25 -13.5 -38t-37.5 -13t-37.5 13t-13.5 38z" />
    <glyph glyph-name="uniFB8D" unicode="&#x691;" horiz-adv-x="356" arabic-form="final" 
d="M356 0q-19 0 -33.5 10t-21.5 29h-5q3 -14 3.5 -28.5t0.5 -28.5q0 -66 -20.5 -115t-59 -83t-95 -51t-125.5 -17v95q50 0 86 12.5t60 35t36 54.5t12 69v309h109v-114q0 -32 15 -49t38 -17v-111zM129 475v38h34v123h37v-54q0 -5 -1 -12t-3 -14l2 -1l9 12q12 15 26 22.5
t29 7.5q20 0 37.5 -14.5t17.5 -49.5v-58h-188zM281 529q0 13 -4.5 21t-15.5 8q-10 0 -17.5 -6t-16.5 -17l-20 -22h74v16z" />
    <glyph glyph-name="uniFB8F" unicode="&#x6a9;" horiz-adv-x="946" arabic-form="final" 
d="M658 460q45 -19 87.5 -47t77 -63.5t55.5 -77t21 -87.5q0 -19 -6 -38t-22 -33v-3h75v-111h-671q-46 0 -82.5 14.5t-63 43t-40 68.5t-13.5 91v74h102v-74q0 -23 7.5 -42t19.5 -33t30 -22.5t40 -8.5h371q32 0 59 5.5t45.5 14t29 21.5t10.5 27q0 38 -26.5 74t-67 67t-92 55
t-104.5 39v16l264 293h123v-8z" />
    <glyph glyph-name="uniFB90" unicode="&#x6a9;" horiz-adv-x="451" arabic-form="initial" 
d="M177 460q46 -19 88.5 -47t76.5 -63.5t55 -78.5t21 -93q0 -48 -18 -82t-48.5 -55t-72.5 -31t-90 -10h-189q-9 0 -16.5 7t-13 18.5t-9 25t-3.5 26.5q0 17 10.5 25.5t31.5 8.5h165q33 0 59.5 5.5t45 14t29 21.5t10.5 27q0 38 -26 74t-67.5 67t-93 55t-102.5 39v16l263 293
h122v-8z" />
    <glyph glyph-name="uniFB91" unicode="&#x6a9;" horiz-adv-x="465" arabic-form="medial" 
d="M179 462q45 -21 87.5 -49t76 -63.5t54.5 -77t21 -87.5q0 -19 -6.5 -38t-21.5 -33v-3h75v-111h-465q-9 0 -16.5 7t-13 18.5t-9 25t-3.5 26.5q0 17 10.5 25.5t31.5 8.5h165q33 0 59.5 5.5t45 14t29 21.5t10.5 27q0 38 -26 74t-67.5 67t-93 55t-102.5 39v16l263 293h122v-8z
" />
    <glyph glyph-name="uniFB93" unicode="&#x6af;" horiz-adv-x="946" arabic-form="final" 
d="M658 460q45 -19 87.5 -47t77 -63.5t55.5 -77t21 -87.5q0 -19 -6 -38t-22 -33v-3h75v-111h-671q-46 0 -82.5 14.5t-63 43t-40 68.5t-13.5 91v74h102v-74q0 -23 7.5 -42t19.5 -33t30 -22.5t40 -8.5h371q32 0 59 5.5t45.5 14t29 21.5t10.5 27q0 38 -26.5 74t-67 67t-92 55
t-104.5 39v16l264 293h123v-8zM644 723h51v-5l-190 -210h-3v57z" />
    <glyph glyph-name="uniFB94" unicode="&#x6af;" horiz-adv-x="451" arabic-form="initial" 
d="M177 460q46 -19 88.5 -47t76.5 -63.5t55 -78.5t21 -93q0 -48 -18 -82t-48.5 -55t-72.5 -31t-90 -10h-189q-9 0 -16.5 7t-13 18.5t-9 25t-3.5 26.5q0 17 10.5 25.5t31.5 8.5h165q33 0 59.5 5.5t45 14t29 21.5t10.5 27q0 38 -26 74t-67.5 67t-93 55t-102.5 39v16l263 293
h122v-8zM162 723h51v-5l-190 -210h-3v57z" />
    <glyph glyph-name="uniFB95" unicode="&#x6af;" horiz-adv-x="465" arabic-form="medial" 
d="M179 462q45 -21 87.5 -49t76 -63.5t54.5 -77t21 -87.5q0 -19 -6.5 -38t-21.5 -33v-3h75v-111h-465q-9 0 -16.5 7t-13 18.5t-9 25t-3.5 26.5q0 17 10.5 25.5t31.5 8.5h165q33 0 59.5 5.5t45 14t29 21.5t10.5 27q0 38 -26 74t-67.5 67t-93 55t-102.5 39v16l263 293h122v-8z
M162 723h51v-5l-190 -210h-3v57z" />
    <glyph glyph-name="uniFB9F" unicode="&#x6ba;" horiz-adv-x="661" arabic-form="final" 
d="M602 196q0 -47 16 -66t43 -19v-111q-18 0 -35.5 10.5t-28.5 31.5h-2q1 -7 1.5 -20.5t0.5 -21.5q0 -65 -21 -119.5t-58 -93t-88 -60.5t-112 -22q-135 0 -207.5 91t-72.5 256v104h102v-100q0 -116 46.5 -177.5t131.5 -61.5q37 0 68.5 13.5t55.5 41t37 68t13 94.5v250h110
v-88z" />
    <glyph glyph-name="uniFBA5" unicode="&#x6c0;" horiz-adv-x="546" arabic-form="final" 
d="M546 0q-39 0 -66 17t-40 56h-3q-22 -40 -66.5 -63t-88.5 -23t-81 16.5t-65.5 46t-44 68t-15.5 84.5v19q0 44 15.5 83.5t44 69t66.5 46.5t80 17h207v-260q0 -32 15 -49t42 -17v-111zM282 326q-21 0 -39 -8.5t-30.5 -22t-20 -33.5t-7.5 -41v-19q0 -21 7.5 -40t21 -33
t30.5 -22.5t38 -8.5t39 8.5t30.5 22.5t20.5 33t8 40v124h-98zM250 541v72q0 47 29 77t75 30h44v-49h-44q-24 0 -40.5 -16t-16.5 -42v-22h101v-50h-148z" />
    <glyph glyph-name="uniFBA7" unicode="&#x6c1;" horiz-adv-x="513" arabic-form="final" 
d="M282 326q-21 0 -38 -8.5t-30.5 -22t-20.5 -33.5t-7 -41v-221h-110v221q0 45 15.5 84t44 68.5t65.5 46.5t81 17h176v-269q0 -24 14.5 -40.5t40.5 -16.5v-111q-87 0 -125 45t-38 123v158h-68z" />
    <glyph glyph-name="uniFBA8" unicode="&#x6c1;" horiz-adv-x="276" arabic-form="initial" 
d="M248 196q0 -64 -18.5 -102.5t-52 -59.5t-78.5 -27.5t-99 -6.5q-9 0 -16.5 7t-13 18.5t-9 25t-3.5 26.5q0 17 10.5 25.5t31.5 8.5q37 0 63 4t43 13.5t25 25.5t8 44v225h109v-227zM221 -193l-30 -39q-12 -17 -26.5 -23t-28.5 -6q-26 0 -45 16t-19 44q0 10 1 19.5t4 20.5
l38 144l42 -11l-36 -145q-2 -12 -2 -21q0 -8 4.5 -13t12.5 -5q5 0 9.5 3t8.5 7l34 39z" />
    <glyph glyph-name="uniFBA9" unicode="&#x6c1;" horiz-adv-x="426" arabic-form="medial" 
d="M0 111q16 0 29 6t23.5 16.5t16.5 23.5t6 28v104h101v-256q0 -32 5.5 -56.5t15 -45t22 -36t26.5 -29.5l6 6q-9 15 -14 39t-5 48q0 41 17 70t44 47t61.5 26.5t71.5 8.5v-111q-47 0 -73 -22.5t-26 -60.5q0 -27 10 -56.5t40 -62.5l-67 -86q-47 19 -87.5 47t-72.5 65t-51.5 84
t-23.5 108v22h-4q-11 -18 -28.5 -28t-42.5 -10q-9 0 -16.5 7t-13 18.5t-9 25t-3.5 26.5q0 17 10.5 25.5t31.5 8.5z" />
    <glyph glyph-name="uniFBAB" unicode="&#x6be;" horiz-adv-x="664" arabic-form="final" 
d="M664 0q-24 0 -42 -6.5t-30 -18.5t-18.5 -28t-6.5 -35q0 -29 13 -61.5t41 -58.5l-71 -89q-46 19 -92.5 44.5t-85 61.5t-66 85.5t-37.5 115.5q-18 -5 -38.5 -10t-42.5 -10.5t-45 -9.5t-42 -6l-25 103q44 7 94.5 16.5t92.5 24.5v363l13 11h62q55 0 103.5 -9t85 -30.5
t58 -56.5t21.5 -84q0 -47 -19 -88t-51.5 -76t-75.5 -62.5t-92 -46.5q1 -42 13 -74t28.5 -57t37.5 -42t40 -26l7 5q-9 16 -15.5 38.5t-6.5 43.5q0 40 18 75t46.5 59t62.5 37t65 13v-111zM506 309q0 21 -10 35.5t-29 23t-44.5 13t-57.5 4.5v-242q28 12 53.5 28t44.5 37t31 46
t12 55z" />
    <glyph glyph-name="uniFBAC" unicode="&#x6be;" horiz-adv-x="694" arabic-form="initial" 
d="M652 -24q-68 6 -137.5 18.5t-130.5 33.5q-12 -18 -29 -23t-47 -5h-308q-9 0 -16.5 7t-13 18.5t-9 25t-3.5 26.5q0 17 10.5 25.5t31.5 8.5h134q26 0 47.5 -1t35.5 -8l2 3q-28 13 -56 30t-52.5 40t-40 51.5t-15.5 64.5q0 35 12.5 64t34.5 50.5t54.5 34.5t70.5 16v38h199
q51 0 95.5 -19t76 -53t49.5 -80.5t18 -100.5v-250zM558 241q0 31 -10.5 59.5t-28 48.5t-42 32t-51.5 12h-85v-3q17 -5 32.5 -17.5t27.5 -30t18.5 -39t6.5 -45.5v-138q27 -10 64 -18t68 -10v149zM325 255q0 20 -6 39.5t-18 34t-29 23t-38 8.5q-17 0 -30.5 -6.5t-24 -16.5
t-17 -25t-6.5 -30q0 -32 17 -54t42.5 -38t54.5 -27.5t55 -21.5v114z" />
    <glyph glyph-name="uniFBAD" unicode="&#x6be;" horiz-adv-x="475" arabic-form="medial" 
d="M475 0q-23 0 -41.5 -6.5t-30 -18.5t-18 -28t-6.5 -35q0 -29 13 -61.5t40 -58.5l-71 -89q-47 19 -93.5 44.5t-84.5 61.5t-65.5 85.5t-37.5 115.5q-15 -6 -35 -8t-45 -2q-9 0 -16.5 7t-13 18.5t-9 25t-3.5 26.5q0 17 10.5 25.5t31.5 8.5q31 0 48 3t27 6v361l13 11h61
q55 0 103.5 -9t85.5 -30.5t58.5 -56.5t21.5 -84q0 -46 -19 -86.5t-52 -76t-76 -63.5t-92 -47q2 -42 13.5 -74t28 -57t37.5 -42t41 -26l6 5q-10 16 -16 38.5t-6 43.5q0 40 18.5 75t46.5 59t62 37t65 13v-111zM317 309q0 21 -10.5 35.5t-29 23.5t-44.5 13t-56 5v-243
q26 12 51.5 28t45 36.5t31.5 45.5t12 56z" />
    <glyph glyph-name="uniFBAF" unicode="&#x6d2;" horiz-adv-x="434" arabic-form="final" 
d="M38 -215v155q0 39 11 70.5t32 54.5t52 34.5t71 11.5h230v-111h-230q-26 0 -41.5 -14.5t-15.5 -41.5v-47h708v-112h-817z" />
    <glyph glyph-name="uniFBB1" unicode="&#x6d3;" horiz-adv-x="529" arabic-form="final" 
d="M365 0v310h-18q-24 0 -41.5 -8.5t-29 -22.5t-18.5 -33t-7 -40v-184q0 -44 -10 -73.5t-33 -49.5v-2h730v-112h-900v110l24 7q40 12 60.5 40t20.5 84v178q0 47 15.5 87t42.5 69.5t65 45.5t82 16h126v-311h55v-111h-164zM327 527v72q0 47 29 77t75 30h44v-49h-44
q-24 0 -40.5 -16t-16.5 -42v-22h101v-50h-148z" />
    <glyph glyph-name="uniFBE8" unicode="&#x649;" horiz-adv-x="193" arabic-form="initial" 
d="M164 173q0 -79 -43.5 -126t-120.5 -47q-9 0 -16.5 7t-13 18.5t-9 25t-3.5 26.5q0 17 10.5 25.5t31.5 8.5q28 0 41.5 16.5t13.5 45.5v250h109v-250z" />
    <glyph glyph-name="uniFBE9" unicode="&#x649;" horiz-adv-x="265" arabic-form="medial" 
d="M265 0q-49 0 -80.5 14.5t-48.5 52.5h-2q-11 -20 -24.5 -33t-30 -20t-36 -10.5t-43.5 -3.5q-13 0 -27.5 21.5t-14.5 55.5q0 16 10.5 25t31.5 9q39 0 58 14.5t19 48.5v176h109v-177q0 -34 18.5 -48t60.5 -14v-111z" />
    <glyph glyph-name="uniFBFD" unicode="&#x6cc;" horiz-adv-x="879" arabic-form="final" 
d="M715 0v310h-18q-24 0 -41.5 -8.5t-29.5 -22.5t-18 -33t-6 -40v-196q0 -69 -22 -125.5t-60 -96t-89.5 -61.5t-112.5 -22q-135 0 -207.5 91t-72.5 256v104h102v-100q0 -116 46.5 -177.5t131.5 -61.5q37 0 68.5 13.5t55.5 39t37 63t13 85.5v186q0 47 16 87t43.5 69.5
t65 45.5t81.5 16h127v-311h54v-111h-164z" />
    <glyph glyph-name="uniFBFE" unicode="&#x6cc;" horiz-adv-x="276" arabic-form="initial" 
d="M248 196q0 -64 -18.5 -102.5t-52 -59.5t-78.5 -27.5t-99 -6.5q-9 0 -16.5 7t-13 18.5t-9 25t-3.5 26.5q0 17 10.5 25.5t31.5 8.5q37 0 63 4t43 13.5t25 25.5t8 44v225h109v-227zM31 -149q0 51 49 51q24 0 37.5 -13t13.5 -38t-13.5 -37.5t-37.5 -12.5q-23 0 -36 12t-13 38
zM145 -149q0 25 13.5 38t37.5 13q49 0 49 -51q0 -26 -13 -38t-36 -12q-24 0 -37.5 12.5t-13.5 37.5z" />
    <glyph glyph-name="uniFBFF" unicode="&#x6cc;" horiz-adv-x="265" arabic-form="medial" 
d="M265 0q-49 0 -80.5 14.5t-48.5 52.5h-2q-11 -20 -24.5 -33t-30 -20t-36 -10.5t-43.5 -3.5q-13 0 -27.5 21.5t-14.5 55.5q0 16 10.5 25t31.5 9q39 0 58 14.5t19 48.5v176h109v-177q0 -34 18.5 -48t60.5 -14v-111zM16 -149q0 51 49 51q24 0 37.5 -13t13.5 -38t-13.5 -37.5
t-37.5 -12.5q-23 0 -36 12t-13 38zM130 -149q0 25 13.5 38t37.5 13q49 0 49 -51q0 -26 -13 -38t-36 -12q-24 0 -37.5 12.5t-13.5 37.5z" />
    <glyph glyph-name="uniFC5E" unicode="&#xfc5e;" horiz-adv-x="0" arabic-form="isolated" 
d="M93 140l-36 21q-11 -7 -22 -10t-23 -3q-21 0 -39 9.5t-37 32.5q-9 -11 -16 -23.5t-13 -18.5l-36 21q2 6 9 16.5t14.5 23t17.5 24.5t19 19h5q16 -28 35 -44t31 -17h5.5h6.5v3q-12 10 -20 22.5t-8 30.5q0 36 21.5 52t46.5 16t45.5 -17.5t20.5 -50.5q0 -14 -7.5 -30.5
t-19.5 -29.5l19 -9zM28 247q0 -13 8 -22t21 -18q10 9 15.5 18.5t5.5 21.5t-7.5 20t-16.5 8q-10 0 -18 -6.5t-8 -21.5zM105 102q0 -30 -16.5 -51.5t-46.5 -21.5q-8 0 -18 2.5t-15 7.5q-4 -17 -18.5 -28t-32.5 -11q-30 0 -46.5 17.5t-16.5 45.5v38h41v-38q0 -11 6 -16.5
t16 -5.5q12 0 18 9.5t6 22.5v44h35v-25q0 -11 7 -16t18 -5q10 0 16 8.5t6 22.5v28h41v-28z" />
    </font>
</defs>
</svg>
